<?xml version="1.0" encoding="UTF-8"?><svg id="Layer_2" xmlns="http://www.w3.org/2000/svg" xmlns:xlink="http://www.w3.org/1999/xlink" viewBox="0 0 1534.36 661.49"><defs><style>.cls-1{fill:url(#linear-gradient);isolation:isolate;opacity:.48;}</style><linearGradient id="linear-gradient" x1="1534.36" y1="333.26" x2="0" y2="333.26" gradientTransform="translate(0 664) scale(1 -1)" gradientUnits="userSpaceOnUse"><stop offset="0" stop-color="#9947ff"/><stop offset=".32" stop-color="#87abf0"/><stop offset=".69" stop-color="#b6faf7"/><stop offset="1" stop-color="#ffb69e"/></linearGradient></defs><g id="Layer_1-2"><path class="cls-1" d="M1182.18,607.8c-.35-.22-.75-.34-1.17-.33h-74.3c-.54,0-1.07,.11-1.57,.33s-.94,.53-1.31,.93l-15.66,16.81c-.28,.3-.47,.68-.54,1.09-.07,.41-.02,.83,.15,1.21s.44,.7,.78,.93c.35,.23,.75,.35,1.16,.35h74.3c.54,0,1.07-.11,1.57-.33,.5-.22,.94-.53,1.31-.93l15.67-16.81c.29-.3,.48-.68,.55-1.1,.07-.41,.02-.84-.15-1.22-.17-.38-.44-.7-.8-.93h.01Zm.35,2.04c-.05,.29-.19,.56-.39,.78h0l-15.68,16.81c-.31,.34-.68,.6-1.1,.78-.42,.18-.87,.28-1.33,.28h-74.3c-.3,0-.58-.09-.83-.25s-.44-.39-.56-.66c-.12-.27-.15-.57-.1-.86s.18-.56,.38-.78l15.66-16.81c.31-.34,.68-.6,1.11-.78,.42-.18,.87-.28,1.33-.28h74.34c.29,0,.57,.08,.81,.24,.25,.16,.45,.39,.57,.66,.12,.27,.16,.57,.11,.87h-.02Zm-382.13,30.33c-.35-.22-.75-.34-1.17-.33h-74.3c-.54,0-1.07,.11-1.57,.33s-.94,.53-1.31,.93l-15.66,16.81c-.28,.3-.47,.68-.54,1.09-.07,.41-.02,.83,.15,1.21,.17,.38,.44,.7,.78,.93,.35,.23,.75,.35,1.16,.35h74.3c.54,0,1.07-.11,1.57-.33,.5-.22,.94-.53,1.31-.93l15.67-16.81c.29-.3,.48-.68,.55-1.1,.07-.41,.02-.84-.15-1.22-.17-.38-.44-.7-.8-.93h0Zm.35,2.04c-.05,.29-.19,.56-.39,.78h0l-15.68,16.81c-.31,.34-.68,.6-1.1,.78-.42,.18-.87,.28-1.33,.28h-74.3c-.3,0-.58-.09-.83-.25s-.44-.39-.56-.66c-.12-.27-.15-.57-.1-.86,.05-.29,.18-.56,.38-.78l15.66-16.81c.31-.34,.68-.6,1.11-.78,.42-.18,.87-.28,1.33-.28h74.34c.29,0,.57,.08,.81,.24,.25,.16,.45,.39,.57,.66,.12,.27,.16,.57,.11,.87h-.02ZM1373.91,80.21c.35,.23,.75,.35,1.16,.35h74.3c.54,0,1.07-.11,1.57-.33s.94-.53,1.31-.93l15.67-16.8c.29-.3,.48-.68,.55-1.1,.07-.41,.02-.84-.15-1.22s-.44-.7-.8-.93c-.35-.22-.76-.34-1.17-.33h-74.3c-.54,0-1.07,.11-1.57,.33s-.94,.53-1.31,.93l-15.66,16.81c-.28,.3-.47,.68-.54,1.09-.07,.41-.02,.83,.15,1.21s.44,.7,.78,.93h.01Zm-.33-2.04c.05-.29,.18-.56,.38-.78l15.66-16.81c.31-.34,.68-.6,1.11-.78s.87-.28,1.33-.28h74.34c.29,0,.57,.08,.81,.24,.25,.16,.45,.39,.57,.66s.16,.57,.11,.87c-.05,.29-.19,.56-.39,.78l-15.68,16.81c-.31,.34-.68,.6-1.1,.78-.42,.18-.87,.28-1.33,.28h-74.3c-.3,0-.58-.09-.83-.25s-.44-.39-.56-.66c-.12-.27-.15-.57-.1-.86h-.02Zm159.81,299.32c-.35-.22-.75-.34-1.17-.33h-53.52l4.28-10.31h49.24c.41,0,.81-.12,1.16-.35s.61-.55,.78-.93c.16-.38,.21-.8,.14-1.2-.07-.41-.26-.79-.54-1.09l-15.65-16.82h0c-.37-.4-.81-.71-1.31-.92-.5-.22-1.02-.33-1.57-.33h-31.63l-2.79-10.31h34.42c.54,0,1.07-.11,1.57-.33s.94-.53,1.31-.93l15.67-16.8c.29-.3,.48-.68,.55-1.1,.07-.41,.02-.84-.15-1.22s-.44-.7-.8-.93c-.35-.22-.76-.34-1.17-.33h-57.26l-45.74-168.82h20.16c.54,0,1.07-.11,1.57-.33s.94-.53,1.31-.93l15.67-16.81c.29-.3,.48-.68,.55-1.1,.07-.41,.02-.84-.15-1.22-.17-.38-.44-.7-.8-.93-.35-.22-.75-.34-1.17-.33h-43l-2.79-10.31h45.79c.41,0,.81-.12,1.16-.35,.35-.23,.61-.55,.78-.93,.16-.38,.21-.8,.14-1.2-.07-.41-.26-.79-.54-1.09l-15.65-16.82h0c-.37-.4-.81-.71-1.31-.92-.5-.22-1.02-.33-1.57-.33h-74.3c-.23,0-.45,.04-.66,.11l-134.28-32.55V19.14c0-.06-.02-.11-.05-.16,0,0-.01-.02-.02-.03-.03-.04-.08-.08-.13-.1h0l-43.75-14.23h-.18l-43.75,14.23h0c-.05,.02-.1,.05-.13,.1,0,0-.01,.02-.02,.03-.03,.05-.05,.1-.05,.16V57.53l-240.37,53.42v-17.83c0-.06-.02-.11-.05-.16,0,0-.01-.02-.02-.03-.03-.04-.08-.08-.13-.1h0l-43.75-14.23h-.18l-43.75,14.23h0s-.1,.05-.13,.1c0,0-.01,.02-.02,.03-.03,.05-.05,.1-.05,.16v10.44l-65.34-25.47,5.61-7.14c.09-.11,.09-.28,0-.39-.1-.11-.25-.14-.38-.07l-10.18,5.66-7.91-3.08,18.39-10.23h0s.01,0,.02-.02c.04-.03,.06-.06,.08-.1,0,0,.01,0,.02-.02v-.03s0,0,.01-.02v-.14s-.01-.04-.02-.06c0,0,0-.02-.01-.03L723.76,.14c-.05-.09-.15-.14-.26-.14h0c-.11,0-.2,.06-.26,.14l-40.05,62.26s0,.02-.01,.03c-.01,.02-.02,.04-.02,.06v.14s0,0,.01,.02v.03s.02,.02,.02,.03c.01,.02,.02,.03,.03,.05s.03,.03,.05,.04c0,0,.02,.02,.03,.02l20.41,11.36-7.08,3.55-13.04-7.26c-.13-.07-.28-.04-.38,.07-.09,.11-.1,.27,0,.39l7.63,9.71-71.54,35.85v-7.23c0-.06-.02-.11-.05-.16,0,0-.01-.02-.02-.03-.03-.04-.08-.08-.13-.1h0l-43.75-14.23h-.18l-43.75,14.23h0s-.1,.05-.13,.1c0,0-.01,.02-.02,.03-.03,.05-.05,.1-.05,.16v5.97l-83.5-44.21V17.43c0-.06-.02-.11-.05-.16,0,0-.01-.02-.02-.03-.03-.04-.08-.08-.13-.1h0l-43.75-14.23h-.18l-43.75,14.23h0s-.1,.05-.13,.1c0,0-.01,.02-.02,.03-.03,.05-.05,.1-.05,.16V52.54l-195.21,21.24v-23.8c0-.06-.02-.11-.05-.16,0,0,0-.02-.02-.03-.03-.04-.08-.08-.13-.1h0l-43.75-14.23h-.18l-43.75,14.23h0c-.05,.02-.1,.05-.13,.1,0,0-.01,.02-.02,.03-.03,.05-.05,.1-.05,.16v59.3h0c0,.06,.02,.11,.05,.15,0,0,.01,.02,.02,.03,.04,.04,.08,.07,.13,.09h.01l30.85,8.99-53.08,166.23-13.61-21.16c-.05-.09-.15-.14-.26-.14h0c-.11,0-.2,.06-.26,.14L.05,325.89s0,.02-.01,.03c0,.02-.02,.04-.02,.06v.14s0,.01,0,.02v.03s.02,.02,.02,.03c0,.02,.02,.03,.03,.05,0,.02,.03,.03,.05,.04,0,0,.02,.02,.03,.02l40.05,22.29h0s.09,.03,.14,.03h.06s.03,0,.04-.01c.02,0,.03-.01,.05-.02l6.09-3.39,2.29,6.21-8.53,4.75L.45,333.98c-.13-.07-.28-.04-.38,.07-.09,.11-.1,.27,0,.39l40.05,50.96s.02,.03,.04,.04c0,.01,.03,.02,.04,.03,.05,.03,.1,.05,.15,.05h.07c.06-.01,.12-.05,.16-.1h0l14.17-18.04,72.55,196.54-28.99,9.43h0c-.05,.02-.1,.05-.13,.1,0,0-.01,.02-.02,.03-.03,.05-.05,.1-.05,.16v59.3h0c0,.06,.02,.11,.05,.15,0,0,.01,.02,.02,.03,.04,.04,.08,.07,.13,.09h.01l43.75,12.74s.06,.01,.09,.01,.06,0,.09-.01l43.75-12.74h0c.05-.02,.1-.05,.13-.09,0,0,0-.02,.02-.03,.03-.05,.05-.1,.05-.15h0v-32.98l256.66-21.2,31.39,17.47h0s.09,.03,.14,.03h.06s.03,0,.04-.01c.02,0,.03-.01,.05-.02l28.13-15.66,10.55,1.62-38.83,21.61-39.9-22.21c-.13-.07-.28-.04-.38,.07-.09,.11-.1,.27,0,.39l40.05,50.96s.02,.03,.04,.04c.01,.01,.03,.02,.04,.03,.05,.03,.1,.05,.15,.05h.07c.06-.01,.12-.05,.16-.1h0l39.79-50.64,192.27,29.49,15.31,16.44c.37,.4,.81,.71,1.31,.92,.5,.22,1.02,.33,1.57,.33h74.3c.41,0,.81-.12,1.16-.35s.61-.55,.78-.93c.16-.38,.21-.8,.14-1.2-.07-.41-.26-.79-.54-1.09l-9.44-10.15,306.81-26.02,5.68,6.1c.37,.4,.81,.71,1.31,.92,.5,.22,1.02,.33,1.57,.33h74.3c.41,0,.81-.12,1.16-.35s.61-.55,.78-.93c.16-.38,.21-.8,.14-1.2-.07-.41-.26-.79-.54-1.09l-7.69-8.26,176.13-5.88v27.07h0c0,.06,.02,.11,.05,.15,0,0,.01,.02,.02,.03,.04,.04,.08,.07,.13,.09h.01l43.75,12.74s.06,.01,.09,.01,.06,0,.09-.01l43.75-12.74h.01c.05-.02,.1-.05,.13-.09,0,0,.01-.02,.02-.03,.03-.05,.05-.1,.05-.15h0v-59.3c0-.06-.02-.11-.05-.16,0,0-.01-.02-.02-.03-.03-.04-.08-.08-.13-.1h0l-27.09-8.81,57.89-139.33h45.53c.54,0,1.07-.11,1.57-.33s.94-.53,1.31-.93l15.67-16.81c.29-.3,.48-.68,.55-1.1,.07-.41,.02-.84-.15-1.22s-.44-.7-.8-.93h.08ZM40.05,347.83L.99,326.09l39.07-17.4v39.14h-.01Zm0-39.81L1.11,325.37l38.94-60.54v43.2h0Zm0,76.29L1.48,335.25l38.57,21.47v27.61h0Zm434.07,247.58l-38.57-49.08,38.57,21.47v27.61h0Zm1008.45-265.67h-12.5l15.91-8.22-3.41,8.22Zm-109.45,187.65l21.26,23.5-42.78,1.43v-31.19l21.52,6.27h0Zm-20.79-6.7l11.38-3.7,8.62,9.53-20.01-5.83h.01Zm21.91,7.02l14.02,4.08,6.04,18.09-20.06-22.17h0Zm-.78-.86l-9.11-10.06,17.04-5.54,6.63,19.85-14.57-4.24h0Zm-9.55-10.57l-42.11-46.53c1.35-1.43,2.1-3.28,2.11-5.23,.1-1.81-.53-3.5-1.84-4.89-1.52-1.61-3.77-2.61-5.88-2.61h-22.22c-.05,0-.12-.01-.18-.05-.05-.03-.09-.07-.12-.13-.03-.05-.04-.11-.03-.17s.03-.11,.08-.16l6.49-7.6,.51-.61c1.65-1.96,3.35-3.99,3.51-6.83,0-2.64-1.03-5.12-2.91-7-.19-.28-.55-.69-1-1.19-.18-.2-.37-.42-.57-.65l-6.08-7.14s-.04-.09-.04-.14,0-.11,.03-.15,.06-.09,.11-.12c.05-.03,.1-.05,.15-.05h22.1c1.9,0,3.74-.66,5.19-1.88,1.48-1.24,2.46-2.97,2.74-4.87,.14-1.02,.06-2.03-.2-3.01l21.83-11.27,35.63,106.64-17.3,5.63h0Zm-77.54-75.84l-8.83-10.35c-.09-.11-.2-.2-.32-.27-.25-.12-.57-.12-.82,0-.13,.06-.24,.15-.33,.27-.69,.92-2.06,2.76-3.71,4.97-4.08,5.46-9.66,12.95-11.22,14.94-.92,1.18-2.52,1.93-4.36,2.04-2.21,.14-4.39-.63-5.84-2.07l-13.82-13.67c-.13-.13-.3-.22-.48-.25-.18-.04-.37-.02-.54,.05-.17,.07-.32,.19-.42,.34-.1,.15-.16,.33-.16,.52v26.3c.03,1.81-.5,3.56-1.55,5.05s-2.51,2.61-4.24,3.22c-1.09,.37-2.27,.49-3.41,.33s-2.24-.59-3.18-1.25c-.94-.66-1.71-1.54-2.24-2.54-.53-1.01-.81-2.14-.81-3.27v-47.26c.08-1.65,.67-3.2,1.71-4.5,1.04-1.29,2.45-2.21,4.06-2.66,.68-.18,1.38-.27,2.08-.27s1.43,.09,2.12,.28c1.37,.37,2.63,1.09,3.63,2.09l21.25,20.96c.09,.1,.21,.17,.34,.22s.26,.06,.4,.05,.26-.05,.38-.12,.22-.16,.29-.26l15.08-20.58c.67-.8,1.52-1.45,2.46-1.9,.94-.45,2-.69,3.04-.7h39.26c1.04,0,2.04,.22,2.99,.64,.94,.42,1.77,1.03,2.45,1.8,.68,.77,1.18,1.66,1.48,2.64,.3,.98,.38,1.99,.25,3-.27,1.75-1.17,3.34-2.53,4.48-1.37,1.14-3.09,1.75-4.91,1.74h-21.99c-.16,0-.33,.05-.46,.14-.14,.09-.25,.21-.33,.35-.08,.15-.11,.31-.1,.47,0,.16,.06,.32,.15,.46,0,0,.01,.02,.02,.03l6.09,7.15c.2,.23,.4,.45,.58,.66,.43,.48,.8,.9,.96,1.15,.01,.02,.02,.03,.04,.05,1.78,1.76,2.75,4.1,2.75,6.57-.15,2.63-1.71,4.49-3.37,6.46l-6.98,8.19c-.12,.14-.2,.3-.22,.48-.02,.18,0,.36,.08,.52s.2,.3,.35,.39c.15,.09,.33,.14,.5,.13h22.21c1.91,0,4.04,.95,5.43,2.42,.83,.88,1.8,2.37,1.68,4.45,0,1.9-.76,3.68-2.12,5.03-1.36,1.34-3.18,2.09-5.11,2.09h-35.08c-2.38,.01-7.99,.03-9.58-4.79-.35-1.04-.4-2.16-.14-3.21,.49-1.63,1.26-3.15,2.3-4.53,1.82-2.69,3.8-5.4,5.5-7.69,1.11-1.52,2.24-3.03,3.37-4.53,1.29-1.72,2.63-3.5,3.93-5.29,.13-.16,.2-.37,.2-.57s-.07-.41-.21-.58h0Zm-141.09,109.17h18.75c.46,0,.91,.1,1.33,.28,.42,.18,.79,.45,1.11,.78l7.05,7.57-37.42,1.25,9.2-9.88h-.02Zm-9.95,9.79l-11.67-9.79h20.78l-9.11,9.79Zm9.68-10.4h-22.07l-12.28-10.31h43.94l-9.59,10.31Zm-35.08-10.92l-13.3-11.16,7.63-8.19c.31-.34,.68-.6,1.11-.78s.87-.28,1.33-.28h67.47l-19,20.42h-45.24Zm-.95,0h-19.26c-.3,0-.58-.09-.83-.25s-.44-.39-.56-.66c-.12-.27-.15-.57-.1-.86s.18-.56,.38-.78l7.61-8.17,12.77,10.72h-.01Zm66.01-20.42h6.04c.29,0,.57,.08,.81,.24,.25,.16,.45,.39,.57,.66,.12,.27,.16,.57,.11,.87-.05,.29-.19,.56-.39,.78l-15.68,16.81c-.31,.34-.68,.6-1.1,.78-.42,.18-.87,.28-1.33,.28h-8.02l19-20.42h-.01Zm-.27-.61h-68.04c-.54,0-1.07,.11-1.57,.33s-.94,.53-1.31,.93l-7.65,8.22-79.45-66.69,8.46-9.07c.29-.3,.48-.68,.55-1.1,.07-.41,.02-.84-.15-1.22s-.44-.7-.8-.93c-.35-.22-.75-.34-1.17-.33h-21.95l-12.28-10.31h34.23c.41,0,.81-.12,1.16-.35s.61-.55,.78-.93c.16-.38,.21-.8,.14-1.2-.07-.41-.26-.79-.54-1.09l-15.65-16.82h0c-.37-.4-.81-.71-1.31-.92-.5-.22-1.02-.33-1.57-.33h-9l99.31-64.86,42.38,12.34s.06,.01,.09,.01,.06,0,.09-.01l28.63-8.34,53.04,58.46c-1.02,1.35-1.61,2.95-1.69,4.66v47.27c0,1.16,.28,2.31,.79,3.35l-45.53,48.93h.01Zm-571.52,20.36v-57.7l43.15,27.89v15.78l-43.15,14.03h0Zm43.15-13.39v26.15l-42.42-12.35,42.42-13.8h0Zm-43.15-45.03v-.05l43.15,12.57v15.37l-43.15-27.89h0Zm.73-.47l42.42-13.8v26.15l-42.42-12.35h0Zm-1.13-.27h0s-.1,.05-.13,.1c0,0-.01,.02-.02,.03-.03,.05-.05,.1-.05,.16v.06l-34.39-22.23,142.85-141.79v16.44c0,1.23,.31,2.46,.88,3.55,.54,1.02,1.31,1.91,2.24,2.61l-52.48,131.7-14.95-4.86h-.18l-43.75,14.23h-.02Zm-35.13-22.21l-76.25-49.29v-40.96l219.62-65.59v13.53l-143.37,142.31Zm217.07-163.94s.01,.02,.02,.03l6.09,7.16c.2,.23,.39,.45,.57,.65,.43,.49,.8,.91,.97,1.16,.01,.02,.02,.03,.04,.05,1.78,1.76,2.75,4.1,2.75,6.57-.15,2.63-1.71,4.49-3.37,6.46l-6.98,8.19c-.12,.13-.2,.3-.22,.48-.02,.18,0,.36,.08,.52s.2,.3,.36,.39c.16,.09,.33,.14,.5,.13h22.21c1.91,0,4.04,.95,5.43,2.42,.83,.88,1.8,2.37,1.68,4.45,0,1.9-.76,3.68-2.12,5.03-1.36,1.34-3.18,2.09-5.11,2.09h-35.08c-2.38,.02-7.99,.03-9.58-4.79-.35-1.04-.4-2.16-.14-3.21,.49-1.63,1.26-3.15,2.3-4.53,1.81-2.68,3.8-5.39,5.5-7.69,1.11-1.52,2.24-3.03,3.37-4.53,1.29-1.72,2.63-3.5,3.93-5.29,.13-.16,.2-.37,.2-.57s-.07-.41-.21-.58l-8.83-10.35c-.09-.11-.2-.2-.32-.27-.25-.12-.57-.12-.82,0-.13,.06-.24,.15-.33,.27-.7,.93-2.09,2.79-3.76,5.03-4.06,5.44-9.62,12.89-11.17,14.88-.92,1.18-2.51,1.93-4.36,2.04-2.2,.15-4.39-.63-5.85-2.07l-13.82-13.67c-.13-.13-.3-.22-.48-.25-.18-.04-.37-.02-.54,.05-.17,.07-.32,.19-.42,.34s-.16,.33-.16,.52v26.3c.03,1.81-.5,3.56-1.55,5.05s-2.51,2.61-4.24,3.22c-1.09,.37-2.27,.49-3.41,.33-1.14-.16-2.24-.59-3.18-1.25s-1.72-1.54-2.24-2.54c-.53-1.01-.81-2.14-.81-3.27v-17.17h0v-30.1c.08-1.65,.67-3.2,1.71-4.5,1.04-1.29,2.45-2.21,4.06-2.66,.68-.18,1.38-.27,2.08-.27s1.43,.09,2.12,.28c1.37,.37,2.63,1.09,3.63,2.09l21.25,20.96c.1,.1,.21,.17,.34,.22,.12,.05,.26,.06,.4,.05,.13-.01,.27-.05,.38-.12,.12-.07,.22-.16,.29-.26l15.08-20.58c.66-.8,1.51-1.45,2.46-1.9,.94-.45,2-.69,3.04-.7h39.26c1.04,0,2.04,.22,2.99,.64,.94,.42,1.77,1.03,2.45,1.8s1.18,1.66,1.48,2.63c.3,.98,.38,1.99,.25,3-.27,1.75-1.16,3.34-2.53,4.48-1.37,1.15-3.08,1.76-4.91,1.74h-21.99c-.16,0-.32,.05-.47,.14-.14,.09-.25,.21-.33,.35-.08,.15-.11,.31-.1,.47,0,.16,.06,.32,.15,.46h0Zm-131.32,197.53l-6.47,16.23v-14.35l6.47-1.88Zm-6.47,1.25v-26.15l14.51,4.72-7.76,19.46-6.75,1.97Zm.06,16.47l7.15-17.94,35.94-10.47v58.47l-8.73-2.84-34.35-27.23h-.01Zm32.69,26.7l-32.75-10.65v-15.31l32.75,25.96Zm-25.26-45.34l7.59-19.06,27.33,8.89-34.92,10.17h0Zm-7.49,35.33l34.12,11.1,4.72,3.74-38.84,11.31v-26.15h0Zm35.78,11.64l6.63,2.16-2.86,.83-3.77-2.99Zm7.75,2.47h.01s.1-.05,.13-.09c0,0,.01-.02,.02-.03,.03-.05,.05-.1,.05-.15h0v-59.3c0-.06-.02-.11-.05-.16,0,0-.01-.02-.02-.03-.03-.04-.08-.08-.13-.1h0l-28.23-9.18,52.41-131.53c.94,.59,2.01,1,3.12,1.15,.36,.05,.73,.08,1.1,.08,.88,0,1.76-.15,2.59-.43,1.85-.66,3.42-1.85,4.54-3.45s1.69-3.47,1.66-5.41v-26.29c0-.06,.02-.12,.05-.18,.04-.05,.09-.09,.15-.12,.06-.02,.13-.03,.19-.02s.12,.04,.17,.09l13.82,13.67c1.58,1.56,3.94,2.4,6.31,2.25,2.02-.13,3.77-.96,4.81-2.28,1.56-1.99,7.12-9.45,11.18-14.89,1.67-2.24,3.06-4.1,3.76-5.03,.03-.04,.07-.07,.11-.09,.09-.04,.19-.04,.28,0,.04,.02,.08,.05,.12,.1l8.83,10.36s.07,.12,.07,.19-.02,.14-.08,.2c-1.3,1.8-2.64,3.58-3.93,5.29-1.13,1.51-2.26,3.01-3.38,4.54-1.71,2.3-3.7,5.02-5.51,7.7-1.07,1.42-1.88,3.01-2.39,4.72-.28,1.18-.23,2.41,.15,3.56,1.72,5.25,7.64,5.23,10.16,5.21h10.36l-24.66,210.95h-33.35c-.54,0-1.07,.11-1.57,.33s-.94,.53-1.31,.93l-8.64,9.27-26.29-20.84,3.39-.99h0Zm22.96,22.66l12.2,9.67h-17.72c-.3,0-.58-.09-.83-.25s-.44-.39-.56-.66c-.12-.27-.15-.57-.1-.86,.05-.29,.18-.56,.38-.78l6.63-7.12h0Zm.42-.45l8.61-9.24c.31-.34,.68-.6,1.11-.78s.87-.28,1.33-.28h33.28l-2.39,20.42h-29.17l-12.76-10.12h0Zm41.86,10.73l-1.21,10.31h-14.12l-13-10.31h28.33Zm-1.28,10.92l-1.13,9.63-12.16-9.63h13.29Zm.61,0h11.92l-13.03,9.55,1.12-9.55h0Zm12.95,0h14.22c.46,0,.91,.1,1.33,.28,.42,.18,.79,.45,1.11,.78l5.35,5.75-35.4,3,13.39-9.82h0Zm-.2-.6h-12.68l1.21-10.31h25.53l-14.06,10.31h0Zm-11.4-10.92l2.39-20.42h40.44c.29,0,.57,.08,.81,.24,.25,.16,.45,.39,.57,.66,.12,.27,.16,.57,.11,.87-.05,.29-.19,.56-.39,.78l-14.57,15.62-3,2.2c-.18,.03-.36,.05-.54,.05h-25.82Zm44.37-17.45c.29-.3,.48-.68,.55-1.1,.07-.41,.02-.84-.15-1.22-.17-.38-.44-.7-.8-.93-.35-.22-.76-.34-1.17-.33h-40.34l24.66-210.94h0s24.1-.01,24.1-.01c2.09,0,4.05-.81,5.53-2.27,1.48-1.46,2.3-3.4,2.31-5.44,.1-1.81-.53-3.5-1.84-4.89-1.52-1.61-3.77-2.61-5.88-2.61h-22.22c-.06,0-.12-.01-.18-.04-.05-.03-.09-.08-.12-.13-.03-.05-.03-.11-.03-.17s.03-.11,.08-.16l6.49-7.6,.5-.6c1.65-1.96,3.35-3.99,3.51-6.83,0-2.64-1.03-5.12-2.91-7-.2-.28-.55-.69-1-1.2-.18-.2-.37-.42-.57-.64l-6.08-7.14s-.04-.09-.04-.14,0-.11,.03-.15c.02-.05,.06-.09,.11-.12s.1-.05,.15-.05h22.1c1.81,0,3.57-.61,4.99-1.72l124.87,104.61-6.7,7.19c-.28,.3-.47,.68-.54,1.09s-.02,.83,.15,1.21c.17,.38,.44,.7,.78,.93,.35,.23,.75,.35,1.16,.35h17.99l12.3,10.31h-30.29c-.42,0-.82,.12-1.16,.35-.35,.23-.62,.55-.78,.93-.17,.38-.22,.8-.15,1.21,.07,.41,.25,.79,.54,1.09l15.66,16.82c.37,.4,.81,.71,1.31,.92,.5,.22,1.02,.33,1.57,.33h15.65l-14.06,10.31h-1.59c-.54,0-1.07,.11-1.57,.33s-.94,.53-1.31,.93l-5.93,6.37-152.08,111.47,12.38-13.28,.02-.04Zm262.8-435.16s.01,.02,.02,.03l6.09,7.16c.2,.23,.39,.45,.57,.65,.43,.49,.8,.91,.97,1.16,.01,.02,.02,.03,.04,.05,1.77,1.76,2.75,4.1,2.75,6.57-.15,2.63-1.71,4.49-3.37,6.46l-6.98,8.19c-.12,.13-.2,.3-.22,.48s0,.36,.08,.52,.2,.3,.36,.39,.33,.14,.5,.13h22.21c1.91,0,4.04,.95,5.43,2.42,.83,.88,1.8,2.37,1.68,4.45,0,1.9-.76,3.68-2.12,5.03-1.36,1.34-3.18,2.09-5.11,2.09h-35.08c-2.38,0-7.99,.03-9.58-4.79-.35-1.04-.4-2.16-.14-3.21,.49-1.63,1.26-3.15,2.3-4.53,1.81-2.68,3.8-5.39,5.5-7.69,1.11-1.52,2.24-3.03,3.37-4.53,1.29-1.72,2.63-3.5,3.93-5.29,.13-.16,.2-.37,.2-.57s-.07-.41-.21-.58l-8.83-10.35c-.09-.11-.2-.2-.32-.27-.25-.12-.57-.12-.82,0-.13,.06-.24,.15-.33,.27-.7,.93-2.09,2.8-3.77,5.04-4.06,5.44-9.61,12.88-11.17,14.87-.92,1.18-2.52,1.93-4.37,2.04-2.21,.14-4.39-.64-5.84-2.07l-13.82-13.67c-.13-.13-.3-.22-.48-.25-.18-.04-.37-.02-.54,.05s-.32,.19-.42,.34-.16,.33-.16,.52v26.3c.03,1.81-.5,3.56-1.55,5.05s-2.51,2.61-4.24,3.22c-1.09,.37-2.27,.49-3.41,.33-1.14-.16-2.24-.59-3.18-1.25s-1.72-1.54-2.24-2.54c-.53-1.01-.81-2.14-.81-3.27v-47.26c.08-1.65,.67-3.2,1.71-4.5s2.45-2.21,4.06-2.66c.68-.18,1.38-.27,2.08-.27s1.43,.09,2.12,.28c1.37,.37,2.63,1.09,3.63,2.09l21.25,20.97c.09,.09,.21,.17,.34,.21,.12,.05,.26,.06,.4,.05s.26-.05,.38-.12,.22-.16,.29-.26l15.08-20.58c.66-.8,1.51-1.45,2.46-1.9,.94-.45,2-.69,3.04-.7h39.26c1.04,0,2.04,.22,2.99,.64,.94,.42,1.77,1.03,2.45,1.8,.68,.77,1.18,1.66,1.48,2.63,.3,.98,.38,1.99,.25,3-.27,1.75-1.16,3.34-2.53,4.48-1.34,1.12-3.04,1.74-4.8,1.74h-22.1c-.16,0-.32,.05-.47,.14-.14,.09-.25,.21-.33,.35-.08,.15-.11,.31-.1,.47,0,.16,.06,.32,.15,.46h.02Zm164.09,97.72h0c0,.06,.02,.11,.05,.15,0,0,.01,.02,.02,.03,.04,.04,.08,.07,.13,.09h.01l9.02,2.63-64.31,68.14-33.12-10.77h-.18l-16.18,5.26-47.16-116.9h10.52c2.09,0,4.05-.81,5.53-2.27,1.4-1.38,2.2-3.19,2.29-5.11l133.38,19.17v39.56h0v.02Zm51.54-12.12l-6.9-20.65,42.87,29.69v2.65l-35.97-11.7h0Zm35.24,12.11l-28.43,8.28-6.57-19.67,35,11.38h0Zm-42.2-33.52l28.99-21.28,13.94-4.06v55.08l-42.93-29.73h0Zm30.42-22.35l6.85-5.03,4.92,1.6-11.77,3.43Zm-1.71,.5l-28.93,8.43v-26.15l36.78,11.96-7.84,5.76h-.01Zm-1.43,1.05l-27.5,20.19v-12.18l27.5-8.01Zm-21.05,41.98l-6.45-2.1v-17.21l6.45,19.31Zm.24,.72l6.71,20.07-13.4,3.9v-26.15l6.69,2.18h0Zm6.9,20.65l59.74,178.83-21.82,11.27c-.33-.93-.82-1.78-1.48-2.52-.74-.84-1.64-1.49-2.66-1.95-1.02-.46-2.11-.69-3.24-.69h-39.27c-1.13,.01-2.27,.27-3.3,.76-1.02,.48-1.94,1.2-2.68,2.07l-15.1,20.6s-.06,.07-.1,.09c-.04,.02-.09,.04-.13,.04s-.09,0-.14-.02c-.04-.02-.08-.04-.12-.07l-21.25-20.97c-1.08-1.07-2.43-1.85-3.9-2.24-1.48-.39-3.04-.4-4.52,0-1.62,.45-3.04,1.35-4.14,2.6l-52.78-58.18,14.47-4.22h.01c.05-.02,.1-.05,.13-.09,0,0,.01-.02,.02-.03,.03-.05,.05-.1,.05-.15h0v-59.3c0-.06-.02-.11-.05-.16,0,0-.01-.02-.02-.03-.03-.04-.08-.08-.13-.1h0l-10-3.25,64.32-68.16,34.08,9.93s.06,0,.09,0,.06,0,.09,0l13.81-4.02,.02-.04Zm-120.33,70.68l7.49-7.93,9.33,3.03-16.82,4.9Zm17.55-4.48v58.47l-26.32-8.56-16.72-18.43,24.66-26.13,18.37-5.35h0Zm-18.7,4.81l-24.45,7.12v-26.15l32.45,10.55-8,8.48Zm-.83,.88l-23.62,25.03v-18.15l23.62-6.88Zm-7.96,43.85l-15.66-5.09v-12.17l15.66,17.26Zm.82,.91l11.47,12.65-27.96,8.14v-26.15l16.48,5.36h.01Zm1.17,.38l24.77,8.05-13.81,4.02-10.96-12.08h0Zm114.08-139.84v26.15l-33.39-9.73,7.57-8.03,25.82-8.4h0Zm-24.95,7.48l24.95-26.44v18.32l-24.95,8.11h0Zm-9.1,8.77l-8.37-2.44,15.39-5.01-7.02,7.44h0Zm27.81-50.55l6.24,1.82v11.42l-6.24-13.24Zm6.24,1.18l-6.59-1.92-9.03-19.15,15.62-5.08v26.15Zm-7.37-2.15l-35.04-10.21,26.21-8.53,8.83,18.73h0Zm.35,.75l6.81,14.45-42.93-6.17v-18.8l36.12,10.52Zm6.7,15.05l-25.83,27.38-16.99,5.53v-39.06l42.83,6.15h-.01Zm-175.17,167.01v-58.47l34.47,10.04,8.6,21.32-39.95,26.09-3.13,1.02h.01Zm1.17,.26l-.29,.19-.15-.04,.44-.14h0Zm-.44-59.16l26.1-8.49,7.35,18.23-33.45-9.74h0Zm2.66,58.43l39.75-12.93v26.15l-41.49-12.08,1.74-1.14Zm1.95-1.28l37.8-24.69v12.39l-37.8,12.29h0Zm29.87-46.47l7.93,2.31v17.35l-7.93-19.66Zm-.29-.72l-7.52-18.64,15.74-5.12v26.15l-8.22-2.39h0Zm-103.64-155.7c2.02-.13,3.78-.96,4.81-2.28,1.56-1.99,7.12-9.44,11.17-14.88,1.67-2.24,3.07-4.11,3.76-5.04,.03-.04,.07-.07,.11-.09,.09-.04,.19-.04,.28,0,.04,.02,.08,.05,.12,.1l8.83,10.36c.04,.05,.07,.12,.07,.19s-.02,.14-.08,.2c-1.3,1.8-2.64,3.58-3.93,5.29-1.13,1.51-2.26,3.01-3.38,4.54-1.71,2.3-3.7,5.02-5.51,7.7-1.07,1.42-1.88,3.01-2.39,4.72-.28,1.18-.23,2.41,.15,3.56,1.72,5.25,7.64,5.22,10.16,5.21h23.89l47.24,117.09-27,8.78h0c-.05,.02-.1,.05-.13,.1,0,0-.01,.02-.02,.03-.03,.05-.05,.1-.05,.16v59.3h0c0,.06,.02,.11,.05,.15,0,0,.01,.02,.02,.03,.04,.04,.08,.07,.13,.09h.01l.6,.18-99.65,65.09h-16.08l1.77-10.31h24.42c.54,0,1.07-.11,1.57-.33s.94-.53,1.31-.93l15.67-16.8c.29-.3,.48-.68,.55-1.1,.07-.41,.02-.84-.15-1.22s-.44-.7-.8-.93c-.35-.22-.76-.34-1.17-.33h-37.67l41.07-238.67h.24v.04Zm-52.86,271.22h5.34l-1.83,10.61-3.52-10.61h.01Zm2.98,10.94l-13.06-10.94h9.44l3.63,10.94h-.01Zm.61,1.31l9.74,8.18h-20.89l11.15-8.18Zm2.36-12.25h15.26l-17.19,11.23,1.93-11.23Zm-.51-.61h-5.65l-3.41-10.31h10.84l-1.77,10.31h-.01Zm-6.29,0h-9.96l-12.3-10.31h18.85l3.41,10.31h0Zm3.96,12.46l-11.7,8.58h-16.48c-.46,0-.91-.1-1.33-.28-.42-.18-.79-.45-1.11-.78l-15.66-16.82c-.2-.22-.33-.49-.38-.78s-.01-.59,.1-.86c.12-.27,.31-.5,.56-.66s.53-.25,.83-.25h31.02l14.14,11.85h0Zm-11.5,9.19h22.45l12.28,10.31h-48.79l14.06-10.31h0Zm12.51-9.14l18.21-11.89h9.93c.46,0,.91,.1,1.33,.28,.42,.18,.79,.45,1.11,.78l15.65,16.82c.2,.22,.33,.48,.38,.78,.05,.29,.01,.59-.1,.86s-.31,.5-.56,.66-.53,.25-.83,.25h-34.95l-10.16-8.53h0Zm45.12-43.85h.03c.29,0,.57,.08,.81,.24,.25,.16,.45,.39,.57,.66s.16,.57,.11,.87c-.05,.29-.19,.56-.39,.78l-15.68,16.81c-.31,.34-.68,.6-1.1,.78s-.87,.28-1.33,.28h-24.31l3.51-20.42h37.78Zm-41.92,20.42h-11.14l-6.76-20.42h21.42l-3.51,20.42h0Zm-11.79,0h-19.37l-12.19-10.21,8.52-9.15c.31-.34,.68-.6,1.11-.78s.87-.28,1.33-.28h13.84l6.76,20.42h0Zm-20.32,0h-17.26c-.3,0-.58-.09-.83-.25s-.44-.39-.56-.66-.15-.57-.1-.86c.05-.29,.18-.56,.38-.78l6.72-7.21,11.65,9.76h0Zm.47,43.47l-6.94,5.09,3.75-4.03c.31-.34,.68-.6,1.11-.78,.42-.18,.87-.28,1.33-.28h.75Zm-9.16,7.47l10.19-7.47h50.35l14.4,12.09-6.78,7.27c-.31,.34-.68,.6-1.1,.78s-.87,.28-1.33,.28h-74.3c-.3,0-.58-.09-.83-.25s-.44-.39-.56-.66-.15-.57-.1-.86c.05-.29,.18-.56,.38-.78l9.69-10.4h-.01Zm61.48-7.47h21.26c.29,0,.57,.08,.81,.24,.25,.16,.45,.39,.57,.66s.16,.57,.11,.87c-.05,.29-.19,.56-.39,.78h0l-8.48,9.09-13.87-11.64h-.01Zm283.85-223.38l29.36-8.55h.01c.05-.02,.1-.05,.13-.09,0,0,.01-.02,.02-.03,.03-.05,.05-.1,.05-.15h0v-2.65l127.13,88.06-3.56,3.82c-.28,.3-.47,.68-.54,1.09-.07,.41-.02,.83,.15,1.21s.44,.7,.78,.93c.35,.23,.75,.35,1.16,.35h12.68l14.88,10.31h-27.56c-.42,0-.82,.12-1.16,.35-.35,.23-.62,.55-.78,.93-.17,.38-.22,.8-.15,1.21s.25,.79,.54,1.09l15.66,16.82c.37,.4,.81,.71,1.31,.92,.5,.22,1.02,.33,1.57,.33h9.66l-121.63,62.81-59.71-178.72v-.04Zm157.22,76.91l9.29,6.44h-11.8c-.3,0-.58-.09-.83-.25s-.44-.39-.56-.66c-.12-.27-.15-.57-.1-.86,.05-.29,.18-.56,.38-.78l3.62-3.89Zm14.47,38.39c-.46,0-.91-.1-1.33-.28-.42-.18-.79-.45-1.11-.78l-15.66-16.82c-.2-.22-.33-.49-.38-.78s-.01-.59,.1-.86c.12-.27,.31-.5,.56-.66s.53-.25,.83-.25h28.44l16.63,11.52-17.25,8.91h-10.83Zm57.32-20.43c.46,0,.91,.1,1.33,.28,.42,.18,.79,.45,1.11,.78l15.65,16.82c.2,.22,.33,.48,.38,.78,.05,.29,.01,.59-.1,.86s-.31,.5-.56,.66-.53,.25-.83,.25h-48.98l3.64-8.76h0v-.18l-3.11-11.47h31.46v-.02Zm-29.15,10.83l-15.63-10.83h12.7l2.93,10.83Zm-3.1-11.44h-13.41l-14.88-10.31h25.5l2.79,10.31Zm49.24-31.33h.03c.29,0,.57,.08,.81,.24,.25,.16,.45,.39,.57,.66s.16,.57,.11,.87c-.05,.29-.19,.56-.39,.78l-15.68,16.81c-.31,.34-.68,.6-1.1,.78-.42,.18-.87,.28-1.33,.28h-34.59l-5.53-20.42h57.1Zm-52.2,20.42h-26.22l-9.94-6.89,11.62-12.47c.31-.34,.68-.6,1.11-.78s.87-.28,1.33-.28h16.58l5.53,20.42h-.01Zm-13.67-210.87h.03c.29,0,.57,.08,.81,.24,.25,.16,.45,.39,.57,.66,.12,.27,.16,.57,.11,.87-.05,.29-.19,.56-.39,.78h0l-15.68,16.81c-.31,.34-.68,.6-1.1,.78-.42,.18-.87,.28-1.33,.28h-20.33l-5.53-20.42h42.84Zm-37.94,20.42h-53.34c-.3,0-.58-.09-.83-.25s-.44-.39-.56-.66c-.12-.27-.15-.57-.1-.86s.18-.56,.38-.78l15.66-16.81c.31-.34,.68-.6,1.11-.78,.42-.18,.87-.28,1.33-.28h30.84l5.53,20.42h-.02Zm-5.7-21.03h-30.67c-.54,0-1.07,.11-1.57,.33s-.94,.53-1.31,.93l-15.66,16.81c-.28,.3-.47,.68-.54,1.09-.07,.41-.02,.83,.15,1.21s.44,.7,.78,.93c.35,.23,.75,.35,1.16,.35h53.51l45.74,168.82h-16.41c-.54,0-1.07,.11-1.57,.33s-.94,.53-1.31,.93l-11.68,12.53-127.55-88.35v-55.9c0-.06-.02-.11-.05-.16,0,0-.01-.02-.02-.03-.03-.04-.08-.08-.13-.1h0l-5.45-1.77,92.93-68.24h16.84l2.79,10.31,.02-.02Zm-18.8-10.92l13.22-9.7,2.63,9.7h-15.85Zm45.46-20.43c.46,0,.91,.1,1.33,.28,.42,.18,.79,.45,1.11,.78l15.65,16.82c.2,.22,.33,.48,.38,.78,.05,.29,.01,.59-.1,.86s-.31,.5-.56,.66-.53,.25-.83,.25h-45.96l-2.79-10.29s-.02-.06-.03-.08h0s-.02-.03-.03-.04c-.04-.05-.09-.08-.15-.1h0l-40.91-9.92h72.89Zm-75.13,.25c.07-.05,.15-.07,.23-.11l42.13,10.21-13.72,10.07h-10.84c-.46,0-.91-.1-1.33-.28-.42-.18-.79-.45-1.11-.78l-15.66-16.82c-.2-.22-.33-.49-.38-.78s-.01-.59,.1-.86c.12-.27,.31-.5,.56-.66h.02Zm-134.32-12.98c.05-.02,.1-.05,.13-.09,0,0,.01-.02,.02-.03,.03-.05,.05-.1,.05-.15h0v-19.4l133.52,32.37c-.22,.2-.4,.45-.52,.73-.17,.38-.22,.8-.15,1.21,.07,.41,.25,.79,.54,1.09l15.66,16.82c.37,.4,.81,.71,1.31,.92,.5,.22,1.02,.33,1.57,.33h10.01l-92.62,68.01-37.59-12.23h-.18l-16.09,5.23-41.18-87.35,25.53-7.44h.01l-.02-.02Zm-1.13-.3l-24.67,7.19-8.47-17.97,33.15,10.78h-.01Zm-33.5-11.54l-8.67-18.39,42.9,10.4v19.13l-34.23-11.13h0Zm-8.91-61.57l42.42,13.8-42.42,12.35V5.33h0Zm0,26.78l43.15-12.57V58.27l-43.15-10.46v-15.69h0Zm0,17.28l8.12,17.22-8.12-2.64v-14.58Zm0,15.22l8.48,2.76,8.67,18.4-17.15,4.99v-26.15Zm-.39,26.85s.06,.01,.09,.01,.06,0,.09-.01l17.63-5.14,41.19,87.37-27.08,8.81h0c-.05,.02-.1,.05-.13,.1,0,0-.01,.02-.02,.03-.03,.05-.05,.1-.05,.16v19.12l-133.36-19.16c.03-1.7-.6-3.29-1.85-4.6-1.52-1.61-3.77-2.61-5.88-2.61h-22.22c-.06,0-.12,0-.18-.04-.05-.03-.09-.08-.12-.13s-.03-.11-.03-.17,.03-.11,.08-.16l6.49-7.6,.5-.6c1.65-1.96,3.35-3.99,3.51-6.83,0-2.64-1.03-5.12-2.91-7-.19-.28-.55-.69-1-1.2-.18-.2-.37-.42-.57-.65l-6.08-7.14s-.04-.09-.04-.14,0-.11,.03-.15c.02-.05,.06-.09,.11-.12,.05-.03,.1-.05,.15-.05h22.1c1.9,0,3.74-.66,5.19-1.88,1.48-1.24,2.46-2.97,2.74-4.87,.15-1.1,.06-2.2-.26-3.26-.33-1.06-.87-2.03-1.61-2.86-.74-.84-1.64-1.49-2.66-1.95-.76-.34-1.56-.56-2.38-.65l66.57-48.83,41.94,12.22,.02-.02Zm-.22-26.85v26.15l-41.11-11.97,1.98-1.45,39.13-12.73Zm-37.56,11.58l37.56-27.55v15.34l-37.56,12.22h0Zm-4.28,2.38l-.57-.17,1.44-.47-.86,.63h-.01Zm41.84-73.25V31.48l-42.42-12.35,42.42-13.8h0Zm-43.15,14.22l43.15,12.57v15.69l-43.15,9.59V19.55h0Zm0,38.47l42.1-9.36-38.36,28.15-3.74,1.22v-20h0Zm-240.98,53.54l240.37-53.42v20.29h0c0,.06,.02,.11,.05,.15,0,0,.01,.02,.02,.03,.04,.04,.08,.07,.13,.09h.01l1.07,.31-66.79,49h-39.17c-1.13,0-2.27,.27-3.3,.76-1.02,.48-1.95,1.2-2.68,2.07l-15.1,20.6s-.06,.07-.1,.09-.08,.04-.13,.04-.09,0-.14-.02c-.04-.02-.08-.04-.12-.07l-21.25-20.97c-1.08-1.07-2.43-1.85-3.9-2.24-1.48-.39-3.04-.4-4.52,0-1.74,.48-3.25,1.47-4.37,2.87s-1.76,3.07-1.84,4.87v9.76l-78.26-16.02v-18.19h.02Zm-.21,41.13s.1-.05,.13-.09c0,0,.01-.02,.02-.03,.03-.05,.05-.1,.05-.15h0v-22.03l78.26,16.02v36.89c0,1.23,.31,2.46,.88,3.55s1.42,2.05,2.43,2.76c1.02,.71,2.21,1.18,3.44,1.35,.36,.05,.73,.08,1.1,.08,.88,0,1.76-.15,2.59-.43,1.85-.66,3.42-1.85,4.54-3.45,1.12-1.6,1.69-3.47,1.66-5.41v-26.29c0-.06,.02-.12,.05-.18,.04-.05,.09-.09,.15-.12s.13-.03,.19-.02,.12,.04,.17,.09l13.82,13.67c1.38,1.37,3.38,2.18,5.45,2.26l-41.07,238.66h-21.73l-82.29-248.34,30.12-8.77h.01l.03-.02Zm-.4-22.44v21.74l-36.85-11.98-6.15-18.55,43,8.8h0Zm-41.99-9.23l41.99-9.33v17.93s-41.99-8.6-41.99-8.6Zm41.26,31.36l-29.2,8.5-6.68-20.17,35.88,11.67Zm-42.42-73.09l42.42,13.8-42.42,12.35v-26.15Zm0,26.78l43.15-12.57v17.56l-43.15,9.59v-14.58Zm0,16.85l5.58,16.84-5.58-1.81v-15.02h0Zm0,15.65l5.82,1.89,6.82,20.58-12.63,3.68v-26.15h-.01Zm-.39,26.85s.06,0,.09,0,.06,0,.09,0l13.05-3.8,82.23,248.17h-13.64c-.54,0-1.07,.11-1.57,.33s-.94,.53-1.31,.93l-8.54,9.17-124.82-104.56c1.33-1.22,2.21-2.84,2.48-4.62,.15-1.1,.06-2.2-.26-3.26-.33-1.06-.87-2.03-1.61-2.86-.74-.84-1.64-1.49-2.66-1.95-.9-.4-1.85-.62-2.83-.67l46.34-140.65,12.98,3.78h-.02Zm-.22-26.86v26.15l-12.57-3.66,6.79-20.61,5.78-1.88h0Zm-5.54,1.16l5.54-16.81v15.01l-5.54,1.8Zm-7.61,21.16l-29.27-8.52,35.92-11.68-6.66,20.21h.01Zm13.15-81.63v26.15l-42.42-12.35,42.42-13.8Zm-43.14,14.22l43.14,12.57v14.52l-43.14-16.82v-10.27Zm0,10.92l42.05,16.39-42.05,2.57v-18.96Zm0,19.57l43.02-2.63-6.13,18.61-36.89,12v-27.98Zm-.61,28.4h0c0,.06,.02,.11,.05,.15,0,0,.01,.02,.02,.03,.04,.04,.08,.07,.13,.09h.01l30.19,8.79-46.38,140.8h-39.05c-1,.01-2.01,.23-2.93,.61l-30.64-173.44,88.59-5.42v28.36h0v.03Zm0-48.21v19.23l-88.7,5.42-3.04-17.2,26-33.08,65.73,25.62h.01Zm-61.14-32.44l-4.79,6.1-3.62-1.41,8.41-4.68h0Zm-9.1,5.06l3.92,1.53-25.55,32.51-3.54-20.03,25.17-14.01Zm-22.13,34.68l-7.34,9.33v-27.61l3.74-2.08,3.6,20.36h0Zm21.4-34.96l-24.54,13.66-1.2-6.82,17.83-9.93,7.91,3.08h0ZM723.81,1.34l38.94,60.54-38.94-17.34V1.34Zm0,43.86l39.07,17.4-18.29,10.18-20.77-8.1v-19.48h-.01Zm0,20.13l20.08,7.83-17.21,9.58-2.87-16.27v-1.13h0Zm0,4.62l2.31,13.08-2.31,1.29v-14.37Zm-.61-68.63V44.54l-38.94,17.34L723.2,1.34h0Zm-39.07,61.25l39.07-17.4v19.27h-.05s-.03,.01-.04,.02c-.01,0-.03,0-.04,.01l-18.69,9.37-20.24-11.27h-.01Zm39.07,3.92v17.82l-18.18-10.12,17.95-9,.23,1.29h0Zm-18.84,8.04l18.99,10.57h0s.09,.03,.14,.03h.06s.03,0,.04-.01c.02,0,.03-.01,.05-.02l2.58-1.43,1.2,6.82-3.93,2.19-26.22-14.59,7.08-3.55h0Zm18.84,18.66v27.61l-31.42-39.97,4.84-2.43,26.58,14.79h0Zm-38.57-21.47l11.35,6.32-4.58,2.3-6.77-8.61h0Zm-65.33,45.42l71.93-36.05,32.03,40.76s.02,.03,.04,.04c.01,.01,.03,.02,.04,.03,.05,.03,.1,.05,.15,.05h.07c.06-.01,.12-.05,.16-.1h0l7.54-9.61,2.93,16.59-114.92,7.03v-18.74h.03Zm-.21,51.67s.1-.05,.13-.09c0,0,.01-.02,.02-.03,.03-.05,.05-.1,.05-.15h0v-32.04l115.02-7.03,30.68,173.67c-.94,.48-1.79,1.14-2.47,1.96l-15.1,20.59s-.06,.07-.1,.09-.09,.04-.13,.04c-.05,0-.09,0-.14-.02-.04-.02-.08-.04-.12-.07l-21.25-20.97c-1.08-1.07-2.43-1.85-3.9-2.24-1.48-.39-3.04-.4-4.52,0-1.62,.45-3.04,1.34-4.13,2.59l-109.12-131.88,15.05-4.38h.01l.02-.04Zm-.4-32.28v31.58l-25.82-8.4-17.01-20.56,42.83-2.62h0Zm-41.98,1.96l41.98-21.04v18.47l-41.98,2.57Zm41.25,30.03l-14.35,4.18-10.01-12.1,24.36,7.92h0Zm-42.42-73.09l42.42,13.8-42.42,12.35v-26.15Zm0,26.78l43.15-12.57v7.13l-43.15,21.62s0-16.18,0-16.18Zm0,17.52l16.24,19.63-16.24-5.28v-14.35Zm0,14.99l16.97,5.52,10.46,12.64-27.43,7.99v-26.15h0Zm-.39,26.85s.06,0,.09,0,.06,0,.09,0l28.07-8.18,109.36,132.18c-1.03,1.35-1.62,2.96-1.7,4.66v15.81l-219.62,65.59v-16.17c0-.06-.02-.11-.05-.16,0,0-.01-.02-.02-.03-.03-.04-.08-.08-.13-.1h0l-25.2-8.2,91.51-190.54,17.61,5.13h-.01Zm-127.47,238.75v-14.64l43.15,27.89v.78l-43.15-14.03Zm42.42,14.44l-42.42,12.35v-26.15l42.42,13.8Zm-33.5-49.54l-8.92,2.6v-26.15l17.5,5.69-8.58,17.86h0Zm9.16-17.67l24.34,7.91-32.71,9.53,8.38-17.44h-.01Zm-9.52,18.41l-8.56,17.83v-15.34l8.56-2.49Zm-8.15,19.27l42.73-12.76v40.38l-42.73-27.62Zm-.15-.59l9.08-18.91,33.8-9.84v15.95l-42.88,12.81h0Zm126.98-249.91v26.15l-17.13-4.99,8.87-18.48,8.25-2.68h.01Zm-7.89,1.92l7.89-16.42v13.86l-7.89,2.57h0Zm-9.83,19.05l-24.7-7.19,33.36-10.85-8.67,18.04h.01Zm17.72-80.29v26.15l-42.42-12.35,42.42-13.8Zm-43.15,14.22l43.15,12.57v16.17l-43.15-22.85v-5.89Zm0,6.58l42.79,22.66-42.79,21.67s0-44.33,0-44.33Zm0,45.01l42.79-21.67-8.33,17.34-34.46,11.21v-6.88h0Zm-.61,7.3h0c0,.06,.02,.11,.05,.15,0,0,.01,.02,.02,.03,.04,.04,.08,.07,.13,.09h.01l25.55,7.44-91.5,190.52-17.97-5.85h-.18l-6.74,2.19-18.81-110.55h34.42c2.09,0,4.05-.81,5.53-2.27s2.3-3.4,2.3-5.44c.1-1.81-.53-3.5-1.84-4.89-1.52-1.61-3.77-2.61-5.87-2.61h-22.22c-.07,0-.12,0-.18-.04-.05-.03-.09-.08-.12-.13s-.04-.11-.03-.17c0-.06,.03-.11,.08-.16l6.49-7.6,.5-.6c1.65-1.96,3.35-3.99,3.51-6.83,0-2.64-1.03-5.12-2.91-7-.19-.28-.55-.68-.99-1.19-.18-.21-.38-.43-.58-.66l-6.07-7.14s-.04-.09-.04-.14,0-.11,.03-.15c.03-.05,.06-.09,.11-.12s.1-.05,.15-.05h21.98c1.94,.02,3.83-.64,5.31-1.88s2.46-2.97,2.74-4.87c.14-1.01,.06-2.02-.2-3.01l67.33-34.1v6.99h0v.04Zm-127.24,265.81v-17.79l43.15-11.05v14.8l-43.15,14.03h0Zm43.15-13.38v26.15l-42.42-12.35,42.42-13.8h0Zm-156.11,21.01c-.32-1.06-.87-2.03-1.61-2.86-.74-.84-1.64-1.49-2.66-1.95-1.02-.46-2.11-.69-3.24-.69h-39.27c-1.13,.01-2.27,.27-3.3,.76-1.02,.48-1.95,1.2-2.68,2.07l-15.1,20.6s-.06,.07-.1,.09c-.04,.02-.08,.04-.13,.04s-.09,0-.14-.02c-.04-.02-.08-.04-.12-.07l-17.17-16.94,19.27-168.81,5.67,7.21s.02,.03,.04,.04c0,.01,.03,.02,.04,.03,.05,.03,.1,.05,.15,.05h.07c.06-.01,.12-.05,.16-.1h0l27.5-35,150.79,126.95-5.64,1.83h0s-.1,.05-.13,.1c0,0-.01,.02-.02,.03-.03,.05-.05,.1-.05,.16v40.62l-112.05,28.7c.07-.95-.02-1.9-.3-2.82l.02-.02Zm-30.52,10.82s.01,.02,.02,.03l6.09,7.15c.2,.23,.4,.45,.58,.66,.43,.48,.8,.9,.96,1.15,.01,.02,.02,.03,.04,.05,1.77,1.76,2.75,4.1,2.75,6.57-.15,2.63-1.71,4.49-3.37,6.46l-6.98,8.19c-.12,.13-.2,.3-.22,.48-.03,.18,0,.36,.08,.52s.2,.3,.36,.39c.15,.09,.33,.14,.5,.13h22.21c1.91,0,4.04,.95,5.43,2.42,.83,.88,1.8,2.37,1.68,4.45,0,1.9-.76,3.68-2.12,5.03-1.36,1.34-3.18,2.09-5.11,2.09h-35.08c-2.39,.01-7.99,.03-9.58-4.79-.35-1.04-.4-2.16-.14-3.21,.49-1.63,1.26-3.15,2.3-4.53,1.81-2.68,3.8-5.39,5.5-7.69,1.12-1.53,2.25-3.03,3.38-4.54,1.29-1.72,2.63-3.5,3.93-5.29,.13-.16,.2-.37,.2-.57s-.07-.41-.21-.58l-8.83-10.35c-.09-.11-.2-.2-.32-.27-.25-.12-.57-.12-.82,0-.13,.06-.24,.15-.33,.27-.69,.92-2.07,2.77-3.73,5-4.07,5.45-9.64,12.92-11.2,14.91-.92,1.18-2.51,1.93-4.36,2.04-2.2,.14-4.39-.63-5.84-2.07l-13.82-13.67c-.13-.13-.3-.22-.48-.25-.18-.04-.37-.02-.54,.05-.17,.07-.32,.19-.42,.34-.1,.15-.16,.33-.16,.52v26.3c.03,1.81-.5,3.56-1.55,5.05s-2.51,2.61-4.24,3.22c-1.09,.37-2.27,.49-3.41,.33s-2.24-.59-3.18-1.25c-.94-.66-1.71-1.54-2.24-2.54-.53-1.01-.81-2.14-.81-3.27v-47.26c.08-1.65,.67-3.2,1.71-4.5,1.04-1.29,2.45-2.21,4.06-2.66,.68-.18,1.38-.27,2.08-.27s1.43,.09,2.12,.28c1.37,.37,2.63,1.09,3.63,2.09l21.25,20.97c.09,.09,.21,.17,.34,.21,.13,.05,.26,.06,.4,.05s.26-.05,.38-.12c.12-.07,.22-.16,.29-.26l15.08-20.58c.66-.8,1.51-1.45,2.46-1.9,.94-.45,2-.69,3.04-.7h39.26c1.04,0,2.04,.22,2.99,.64,.94,.42,1.77,1.03,2.45,1.8,.68,.77,1.18,1.66,1.48,2.64,.3,.98,.38,1.99,.25,3h0c-.27,1.75-1.17,3.34-2.53,4.48-1.37,1.15-3.14,1.77-4.91,1.74h-21.99c-.16,0-.33,.05-.47,.14-.14,.09-.25,.21-.33,.35-.08,.15-.11,.31-.1,.47,0,.16,.06,.32,.15,.46h0Zm-179.8-118.39c.09-.11,.09-.28,0-.39-.1-.11-.25-.14-.38-.07l-18.11,10.08-5.72-4.3,24.13-13.43h0s.01-.01,.02-.02c.04-.03,.06-.06,.08-.1,0,0,.01-.01,.02-.02v-.03s0-.01,.01-.02v-.14s-.01-.04-.02-.06c0,0,0-.02-.01-.03l-9.28-14.43,126.95-70.84,25.86,32.9-19.28,168.95-3.53-3.48c-1.08-1.07-2.43-1.85-3.9-2.24-1.48-.39-3.04-.4-4.52,0-1.64,.45-3.08,1.37-4.18,2.64l-119.77-90.16,11.63-14.8h0Zm-12.12,14.42l-5.85-4.4,16.55-9.21-10.7,13.62h0Zm-8.02-31.34l19.21,8.56-23.83,13.26-14.68-11.05,19.3-10.77h0Zm-19.33,10.09l5.23-16.37,13.41,5.97-18.63,10.4h-.01Zm19.99-10.46l9.67-5.4,8.75,13.6-18.42-8.2Zm299.27-68.44c.57,1.09,1.42,2.05,2.43,2.76,1.02,.71,2.21,1.18,3.44,1.35,.36,.05,.73,.08,1.1,.08,.88,0,1.76-.14,2.59-.43,1.85-.66,3.42-1.85,4.54-3.45,1.12-1.6,1.69-3.47,1.66-5.41v-26.29c0-.06,.02-.12,.05-.18s.09-.09,.15-.12c.06-.02,.13-.03,.19-.02s.12,.04,.17,.09l13.82,13.67c1.57,1.56,3.93,2.41,6.31,2.25,2.02-.13,3.77-.96,4.81-2.28,1.57-2,7.16-9.5,11.24-14.97,1.65-2.21,3.01-4.04,3.7-4.95,.03-.04,.07-.07,.11-.09,.09-.04,.2-.04,.28,0,.04,.02,.08,.05,.12,.1l8.83,10.36c.04,.06,.07,.12,.07,.19s-.02,.14-.08,.2c-1.3,1.8-2.64,3.57-3.93,5.29-1.13,1.51-2.26,3.01-3.38,4.54-1.71,2.3-3.7,5.01-5.51,7.7-1.07,1.42-1.88,3.01-2.39,4.72-.29,1.18-.23,2.41,.15,3.56,1.72,5.25,7.64,5.22,10.16,5.21h.04l18.84,110.74-30.11,9.79-151.09-127.21,12.18-15.49c.09-.11,.09-.28,0-.39-.1-.11-.25-.14-.38-.07l-18.5,10.3-5.35-4.51,24.06-13.39,88.81-.7v23.47c0,1.23,.31,2.46,.88,3.55v.03Zm72.81-42.48s.01,.02,.02,.03l6.09,7.15c.2,.23,.4,.46,.58,.66,.43,.48,.79,.9,.96,1.15,.01,.02,.02,.03,.04,.05,1.78,1.76,2.75,4.1,2.75,6.57-.15,2.63-1.71,4.49-3.37,6.46l-6.98,8.19c-.12,.13-.2,.3-.22,.48s0,.36,.08,.52,.2,.3,.36,.39c.15,.09,.33,.14,.5,.13h22.21c1.91,0,4.04,.95,5.43,2.42,.83,.88,1.8,2.37,1.68,4.45,0,1.9-.76,3.68-2.12,5.03-1.36,1.34-3.18,2.09-5.11,2.09h-35.08c-2.39,0-7.99,.03-9.58-4.79-.35-1.04-.4-2.16-.14-3.21,.49-1.63,1.26-3.15,2.3-4.53,1.81-2.68,3.8-5.39,5.5-7.69,1.11-1.52,2.24-3.03,3.38-4.53,1.29-1.72,2.63-3.5,3.93-5.29,.13-.16,.2-.36,.2-.57s-.07-.41-.21-.58l-8.83-10.35c-.09-.11-.2-.2-.33-.27-.25-.12-.56-.12-.82,0-.13,.06-.24,.15-.33,.27-.69,.92-2.06,2.75-3.7,4.96-4.08,5.47-9.67,12.96-11.23,14.96-.92,1.18-2.51,1.93-4.36,2.04-2.2,.15-4.39-.63-5.84-2.07l-13.82-13.67c-.13-.13-.3-.22-.48-.25-.18-.03-.37-.02-.54,.05s-.32,.19-.42,.34-.16,.33-.16,.52v26.3c.03,1.81-.5,3.56-1.55,5.05-1.04,1.49-2.51,2.61-4.24,3.22-1.09,.37-2.27,.49-3.41,.33s-2.24-.59-3.18-1.25-1.72-1.54-2.24-2.54c-.53-1.01-.81-2.14-.81-3.27v-23.78h0v-23.48c.08-1.65,.67-3.2,1.71-4.5,1.04-1.29,2.45-2.21,4.06-2.66,.68-.18,1.38-.27,2.08-.27s1.43,.09,2.12,.28c1.37,.37,2.63,1.09,3.63,2.09l21.25,20.96c.09,.1,.21,.17,.34,.22s.26,.06,.39,.05,.26-.05,.38-.12c.12-.07,.22-.16,.29-.26l15.08-20.58c.66-.8,1.51-1.45,2.46-1.9,.94-.45,2-.69,3.04-.7h39.26c1.04,0,2.04,.22,2.99,.64,.94,.42,1.77,1.03,2.45,1.8,.68,.77,1.18,1.66,1.48,2.64,.3,.98,.38,1.99,.24,3-.27,1.75-1.17,3.34-2.53,4.48-1.37,1.15-3.11,1.76-4.91,1.74h-21.99c-.16,0-.32,.05-.46,.14-.14,.09-.25,.21-.33,.35-.08,.15-.11,.31-.1,.47,0,.16,.06,.32,.15,.46v-.02Zm-16.71,173.34l30.19,25.42-42.8,10.96v-40.06l12.61,3.67h0Zm-11.88-4.09l5.06-1.65,5.67,4.77-10.73-3.12Zm13.32,4.52l26.1,7.6,2.85,16.78-28.96-24.38h0Zm-1.15-.97l-6.43-5.41,29.66-9.65,3.91,22.97-27.14-7.91h0ZM252.55,240.72l16.97-9.45-11.23,14.28-5.75-4.84h.01Zm5.37,5.33l-26.97,34.32v-27.61l21.03-11.71,5.94,5Zm11.57-23.62l-23.28,12.96-15.03-12.66,38.32-.3h-.01Zm-38.41-.31l11.94-12.01,26.3,11.71-38.24,.3h0Zm12.4-12.48l11.44-11.51,14.97,23.27-26.41-11.76h0Zm-.6-.27l-11.93-5.31v-43.2l23.63,36.74-11.7,11.77h0Zm-.46,.46l-11.47,11.54v-16.65l11.47,5.11Zm3.21,25.86l-14.68,8.17v-20.53l14.68,12.36Zm.5,.42l5.35,4.51-20.84,11.6-3.2-1.78,.8-7.04,2.24,1.25h0s.09,.03,.14,.03h.06s.03,0,.04,0c.02,0,.03,0,.05-.02l15.33-8.53h.03Zm-15.79,16.62v27.61l-5.51-7.01,2.54-22.25,2.97,1.65h0Zm-9.83-43.65l9.83-4.38v17.2l-9.83-12.82Zm9.83,16.01v18.76l-2.01-1.12,2.01-17.64Zm-2.59,17.32l-16.34-9.09,18.56-10.35-2.22,19.45h0Zm2.59-38.37l-10.21,4.55-11.15-14.54,21.36-33.2v43.2h0Zm-10.78,4.79l-28.16,12.54,17.23-26.79,10.93,14.25h0Zm.38,.5l9.94,12.97-19.1,10.66-19.52-10.86,28.67-12.76h.01Zm-9.15,24.31l16.89,9.4-.8,7.04-22.8-12.69,6.72-3.75h0Zm16.01,17.09l-2.5,21.89-25.42-32.34,4.57-2.55,23.35,13h0Zm-28.3-10.93l-6.73-8.56,11.05,6.15-4.32,2.41Zm246.24,147.96l2.34,.68v13.07l-2.34-13.75Zm-.11-.67l-3.97-23.35,6.42-2.09v26.15l-2.45-.71Zm2.85-310.12s.1-.05,.13-.09c0,0,.01-.02,.02-.03,.03-.05,.05-.1,.05-.15h0v-5l83.5,44.21v44.96l-67.52,34.2c-.33-.93-.82-1.78-1.48-2.52-.74-.84-1.64-1.49-2.66-1.95-1.02-.46-2.11-.69-3.24-.69h-19.8l-23.58-102.83,34.57-10.07h.01v-.04Zm-1.13-.3l-33.59,9.78-5.13-22.38,38.72,12.59h0Zm-38.88-13.28l-3.39-14.79,43,22.77v4.91l-39.61-12.88h0Zm-3.53-59.82l42.42,13.8-42.42,12.35V3.6Zm0,26.78l43.15-12.57v52.88l-43.15-22.85V30.38Zm0,20.34l2.86,12.47-2.86-.93v-11.54Zm0,12.18l3.02,.98,5.22,22.77-8.24,2.4v-26.15Zm-.39,26.85s.06,.01,.09,.01,.06,0,.09-.01l8.6-2.5,23.55,102.66h-18.84c-1.13,0-2.27,.28-3.3,.76-1.02,.48-1.95,1.2-2.68,2.07l-15.1,20.59s-.06,.07-.1,.09c-.04,.02-.09,.04-.13,.04s-.09,0-.14-.02c-.04-.02-.08-.04-.12-.07l-21.25-20.97c-1.08-1.07-2.43-1.85-3.9-2.24-1.48-.4-3.04-.4-4.52,0-1.74,.48-3.25,1.47-4.37,2.87-1.12,1.39-1.76,3.07-1.84,4.87v23.19l-88.69,.7-15.51-24.12,116.43-117.16,31.75,9.25h-.02Zm-.22-26.85v26.15l-31.04-9.04,10.3-10.36,20.75-6.75h0Zm-19.8,5.8l19.8-19.93v13.49l-19.8,6.44Zm-11.9,11.11l-10.71-3.12,20.4-6.64-9.69,9.75h0ZM403.32,3.62V29.77l-42.42-12.35,42.42-13.8Zm-43.15,14.22l43.15,12.57v17.37l-43.15,4.7V17.84Zm0,35.25l42.63-4.64-20.56,20.68-22.07,7.18v-23.22Zm-196.03,56.48c.05-.02,.1-.05,.13-.09,0,0,0-.02,.02-.03,.03-.05,.05-.1,.05-.15h0v-34.88l195.21-21.25v23.58h0c0,.06,.02,.11,.05,.15,0,0,.01,.02,.02,.03,.04,.04,.08,.07,.13,.09h.01l11.34,3.3-116.1,116.83-24.12-37.49c-.05-.09-.15-.14-.26-.14h0c-.11,0-.2,.06-.26,.14l-21.8,33.88-60.74-79.23,16.29-4.75h.03Zm-1.13-.29l-15.57,4.54-9.8-12.79,25.38,8.25h0Zm-26.03-9.11l-16.12-21.02,42.88-4.67v34.39s-26.76-8.7-26.76-8.7Zm-16.39-63.99l42.42,13.8-42.42,12.35s0-26.15,0-26.15Zm0,26.78l43.15-12.57v23.46l-43.15,4.7s0-15.59,0-15.59Zm0,16.83l15.36,20.04-15.36-5v-15.04Zm0,15.68l16.02,5.21,10.2,13.3-26.22,7.64v-26.15Zm-.61-59.3v26.15l-42.42-12.35,42.42-13.8Zm-43.15,14.22l43.15,12.57v15.89l-5.7,17.84-37.45,12.18V50.39h0Zm38.16,46.05l4.98-15.61v13.99l-4.98,1.62Zm4.98-.98v26.15l-11.91-3.47,6.7-20.98s5.21-1.7,5.21-1.7Zm-42.42,13.8l36.49-11.87-6.57,20.58-29.92-8.71Zm30.32,9.47l12.32,3.59s.06,.01,.09,.01,.06,0,.09-.01l26.83-7.82,61.02,79.59-17.9,27.83s0,.02,0,.03c0,.02-.02,.04-.02,.06v.14s0,0,0,.02v.03s.02,.02,.02,.03c0,.02,.02,.03,.03,.05s.03,.03,.05,.04c0,0,.02,.02,.03,.02l19.72,10.98-6.72,3.75-12.71-7.07c-.13-.07-.28-.04-.38,.07-.09,.11-.1,.27,0,.39l7.61,9.68-126.9,70.81-16.4-25.5L107.89,118.73h-.02Zm-53.48,167.48l16.11,25.05-10.04,5.6-13.88-6.18,7.81-24.46h0Zm-13.75-21.39l13.32,20.71-7.95,24.88-5.38-2.39v-43.2h.01Zm0,43.86l5.19,2.31-5.19,16.26v-18.57Zm0,39.14v-18.69l5.72,15.5-5.72,3.19Zm.64-18.7l14.01,10.55-8.39,4.67-5.62-15.22Zm5.83,15.8l8.71-4.85,5.72,4.3-12.14,6.76-2.29-6.21Zm-6.48,39.4v-27.61l8.44-4.7,5.42,14.67-13.86,17.63h0Zm8.98-32.6l12.46-6.93,6.06,4.56-13.19,16.79-5.32-14.41h0Zm77.89,212.75l7.16,19.39-35.23-10.26,28.08-9.13h-.01Zm14.34,80.78l-42.42-12.35,42.42-13.8v26.15h0Zm0-26.79l-43.15,14.03v-58.47l36.23,10.55,6.92,18.75v15.14Zm0-16.9l-6.19-16.78,6.19,1.8v14.97h0Zm0-15.6l-6.45-1.88-7.31-19.79,13.76-4.48v26.15h0Zm.37-26.86h-.15l-14.18,4.61L55.21,366.8l13.43-17.09,119.76,90.15c-1,1.34-1.58,2.93-1.66,4.61v47.27c0,1.23,.31,2.46,.88,3.55s1.42,2.05,2.43,2.76c1.02,.71,2.21,1.18,3.44,1.35,.36,.05,.73,.08,1.1,.08,.88,0,1.76-.15,2.59-.43,1.85-.66,3.42-1.85,4.54-3.45s1.69-3.47,1.66-5.41v-26.29c0-.06,.02-.12,.05-.17,.04-.05,.09-.09,.15-.12,.06-.02,.13-.03,.19-.02s.12,.04,.17,.09l13.82,13.67c1.35,1.33,3.27,2.14,5.29,2.25l-57.26,87.15-23.53-7.65h-.05Zm.24,26.86v-26.15l22.98,7.47-9.74,14.82-13.24,3.86h0Zm12.72-3.07l-12.72,19.36v-15.66l12.72-3.71h0Zm10.85-15.4l18.84,6.13-28.28,8.24,9.44-14.36h0Zm-23.58,77.77v-26.15l42.42,13.8-42.42,12.35h0Zm43.15-12.76l-43.15-14.03v-14.92l43.15-3.56v32.51Zm0-33.12l-42.85,3.54,13.33-20.29,29.52-8.6v25.35Zm.61-.05v-25.7c0-.06-.02-.11-.05-.16,0,0,0-.02-.02-.03-.03-.04-.08-.08-.13-.1h0l-19.62-6.38,57.39-87.34h.3c2.02-.13,3.77-.96,4.81-2.28,1.56-2,7.14-9.47,11.21-14.92,1.66-2.22,3.04-4.07,3.73-4.99,.03-.04,.07-.07,.11-.09,.09-.04,.19-.04,.28,0,.04,.02,.08,.05,.12,.1l8.83,10.36s.07,.12,.07,.19-.02,.14-.07,.2c-1.3,1.8-2.64,3.57-3.93,5.29-1.14,1.51-2.27,3.02-3.38,4.54-1.71,2.3-3.7,5.01-5.51,7.7-1.07,1.42-1.88,3.01-2.39,4.72-.29,1.18-.23,2.41,.15,3.56,1.72,5.25,7.64,5.23,10.16,5.21h35.07c2.09,0,4.05-.81,5.53-2.27,1.37-1.35,2.17-3.12,2.28-5l150.76,69.42-7.8,12.13s0,.02-.01,.03c-.01,.02-.02,.04-.02,.06v.14s0,.02,.01,.02v.03s.02,.02,.02,.03c.01,.02,.02,.03,.03,.05,.01,.02,.03,.03,.05,.04,0,0,.02,.02,.03,.02l7.71,4.29-255.71,21.12h0Zm256.25-37.7l8.93,4.11-16.23,7.23,7.29-11.34h.01Zm-7.42,12.06l17.09-7.61,20.8,9.58-29.92,2.47-7.97-4.44h0Zm39.07,21.74l-30.14-16.78,30.13-2.49h.01v19.26h0Zm0-19.99l-.06,.06-21.17-9.75,21.24-9.46v19.14h0Zm0-19.8l-21.97,9.78-9.34-4.3,31.31-48.68v43.2h0Zm.31-44.54h0c-.11,0-.2,.06-.26,.14l-31.92,49.62-151.07-69.57c.04-1.73-.59-3.34-1.85-4.67-1.52-1.61-3.77-2.61-5.87-2.61h-22.22c-.06,.01-.12-.01-.18-.05-.05-.03-.09-.08-.12-.13-.03-.05-.03-.11-.03-.17s.03-.11,.08-.16l6.49-7.6,.5-.6c1.65-1.96,3.35-3.99,3.51-6.83,0-2.64-1.03-5.12-2.91-7-.19-.28-.55-.69-1-1.19-.18-.2-.37-.42-.57-.65l-6.08-7.14s-.04-.09-.04-.14,0-.11,.03-.15c.03-.05,.06-.09,.11-.12s.1-.05,.15-.05h21.98c1.94,.03,3.83-.64,5.31-1.88,1.43-1.19,2.38-2.84,2.7-4.66l112.13-28.72v18.05h0c0,.06,.02,.11,.05,.15,0,0,.01,.02,.02,.03,.04,.04,.08,.07,.13,.09h.01l43.75,12.74s.06,.01,.09,.01,.06,0,.09-.01l43.75-12.74h.01s.1-.05,.13-.09c0,0,.01-.02,.02-.03,.03-.05,.05-.1,.05-.15h0v-.81l75.81,49-67.57,67.07-24.99-38.84c-.05-.09-.15-.14-.26-.14h.04Zm.3,44.54v-43.2l24.5,38.08-11.14,11.06-13.36-5.95h0Zm12.89,6.42l-12.89,12.8v-18.54l12.89,5.74Zm11.94-11l14.11,21.93-24.99-11.13,10.88-10.8h0Zm-24.83,44.4v-19.17l27,4.14-27,15.03h0Zm27.87-15.51l-27.83-4.27,13.45-13.35,25.58,11.39-11.2,6.23Zm-27.87,52v-27.61l38.57-21.47-38.57,49.08h0Zm40.03-50.14s-.02-.1-.05-.14c-.1-.11-.25-.14-.38-.07l-.21,.11-10.55-1.62,11.05-6.15h0l.02-.02s.06-.06,.08-.1l.02-.02v-.03s0-.01,.01-.02v-.14s-.01-.04-.02-.06c0,0,0-.02-.01-.03l-14.73-22.9,67.76-67.26,34.83,22.52v58.51h0c0,.06,.02,.11,.05,.15,0,0,.01,.02,.02,.03,.04,.04,.08,.07,.13,.09h.01l43.75,12.74s.06,.01,.09,.01,.06,0,.09-.01l39.65-11.55,26.59,21.08-6.6,7.09c-.28,.3-.47,.68-.54,1.09-.07,.41-.02,.83,.15,1.21,.17,.38,.44,.7,.78,.93,.35,.23,.75,.35,1.16,.35h18.49l13,10.31h-31.49c-.42,0-.82,.12-1.16,.35-.35,.23-.62,.55-.78,.93-.17,.38-.22,.8-.15,1.21,.05,.27,.15,.53,.29,.76l-191.37-29.35h.02Zm192.07,29.27c-.2-.22-.33-.49-.38-.78-.05-.29-.01-.59,.1-.86,.12-.27,.31-.5,.56-.66s.53-.25,.83-.25h32.26l12.28,9.74-45.45-6.97-.2-.22h0Zm93.49,15.33c.2,.22,.33,.48,.38,.78,.05,.29,.01,.59-.1,.86s-.31,.5-.56,.66-.53,.25-.83,.25h-74.3c-.46,0-.91-.1-1.33-.28-.42-.18-.79-.45-1.11-.78l-14.78-15.88,45.83,7.03h.06l36.96-3.13,9.77,10.49h0Zm-9.52-11.13l-5.68-6.1h0c-.37-.4-.81-.71-1.31-.92-.5-.22-1.02-.33-1.57-.33h-13.39l14.17-10.39c.27-.06,.53-.14,.79-.25,.5-.22,.94-.53,1.31-.93l1.06-1.14,152.08-111.48-7.51,8.06c-.28,.3-.47,.68-.54,1.09s-.02,.83,.15,1.21c.17,.38,.44,.7,.78,.93,.35,.23,.75,.35,1.16,.35h74.3c.54,0,1.07-.11,1.57-.33s.94-.53,1.31-.93l6.8-7.29,79.45,66.69-7.59,8.15c-.28,.3-.47,.68-.54,1.09-.07,.41-.02,.83,.15,1.21s.44,.7,.78,.93c.35,.23,.75,.35,1.16,.35h19.99l12.28,10.31h-32.27c-.42,0-.82,.12-1.16,.35-.35,.23-.62,.55-.78,.93-.17,.38-.22,.8-.15,1.21,.07,.41,.25,.79,.54,1.09l9.45,10.14-306.81,26.02,.02-.02Zm297.81-36.58c-.2-.22-.33-.49-.38-.78-.05-.29-.01-.59,.1-.86,.12-.27,.31-.5,.56-.66s.53-.25,.83-.25h32.99l11.88,9.97-36.22,3.07-9.77-10.49h.01Zm93.49,15.33c.2,.22,.33,.48,.38,.78,.05,.29,.01,.59-.1,.86s-.31,.5-.56,.66-.53,.25-.83,.25h-74.3c-.46,0-.91-.1-1.33-.28-.42-.18-.79-.45-1.11-.78l-5.36-5.75,36.46-3.09,38.68-1.29,8.05,8.65h.02Zm169.1-47.08h0c-.05,.02-.1,.05-.13,.1,0,0-.01,.02-.02,.03-.03,.05-.05,.1-.05,.16v31.62l-176.68,5.9-7.41-7.96h0c-.37-.4-.81-.71-1.31-.92-.5-.22-1.02-.33-1.57-.33h-18.18l9.59-10.31h8.59c.54,0,1.07-.11,1.57-.33,.5-.22,.94-.53,1.31-.93l15.67-16.8c.29-.3,.48-.68,.55-1.1,.07-.41,.02-.84-.15-1.22-.17-.38-.44-.7-.8-.93-.35-.22-.76-.34-1.17-.33h-5.43l45-48.36c.56,.94,1.31,1.77,2.22,2.4,1.02,.71,2.21,1.18,3.44,1.35,.36,.05,.73,.08,1.1,.08,.88,0,1.76-.15,2.59-.43,1.85-.66,3.42-1.85,4.54-3.45s1.69-3.47,1.66-5.41v-26.29c0-.06,.02-.12,.05-.17,.04-.05,.09-.09,.15-.12,.06-.02,.13-.03,.19-.02,.06,.01,.12,.04,.17,.09l13.82,13.67c1.57,1.56,3.94,2.4,6.31,2.25,2.02-.13,3.77-.96,4.81-2.28,1.57-2,7.15-9.49,11.23-14.96,1.65-2.21,3.02-4.05,3.71-4.96,.03-.04,.07-.07,.11-.09,.09-.04,.19-.04,.28,0,.04,.02,.08,.05,.12,.1l8.83,10.36s.07,.12,.07,.19-.02,.14-.08,.2c-1.3,1.8-2.64,3.58-3.93,5.29-1.13,1.51-2.26,3.01-3.38,4.54-1.71,2.3-3.69,5.01-5.51,7.7-1.07,1.42-1.88,3.01-2.39,4.72-.29,1.18-.23,2.41,.15,3.56,1.72,5.25,7.64,5.22,10.16,5.21h35.07c1.98,0,3.85-.74,5.3-2.06l41.91,46.31-12.06,3.92h-.02Zm43.54,71.93l-42.42-12.35,42.42-13.8v26.15h0Zm0-26.79l-43.15,14.03v-26.67l43.15-1.44v14.08h0Zm0-16.27l-5.78-17.29,5.78,1.68v15.61Zm0-16.24l-6.01-1.75-6.76-20.24,12.77-4.15v26.15h0Zm.61,59.29v-26.15l42.42,13.8-42.42,12.35h0Zm43.15-12.76l-43.15-14.03v-14.33l8.29-19.96,34.85-10.15v58.47h.01Zm-35.6-48.1l-7.54,18.15v-15.95l7.54-2.2Zm-7.54,1.56v-26.15l15.64,5.09-7.8,18.78-7.84,2.28h0Zm42.42-12.35l-33.82,9.85,7.63-18.37,26.19,8.52Zm-26.54-9.27l-16.09-5.23h-.18l-13.18,4.29-35.66-106.73,122.77-63.4h13.43l-4.28,10.31h-20.13c-.54,0-1.07,.11-1.57,.33s-.94,.53-1.31,.93l-15.66,16.81c-.28,.3-.47,.68-.54,1.09-.07,.41-.02,.83,.15,1.21s.44,.7,.78,.93c.35,.23,.75,.35,1.16,.35h28.11l-57.81,139.14v-.03Zm58.07-139.75h-28.37c-.3,0-.58-.09-.83-.25s-.44-.39-.56-.66c-.12-.27-.15-.57-.1-.86,.05-.29,.18-.56,.38-.78l15.66-16.81c.31-.34,.68-.6,1.11-.78,.42-.18,.87-.28,1.33-.28h19.87l-8.48,20.42h-.01Zm64.44-18.65c-.05,.29-.19,.56-.39,.78h0l-15.68,16.81c-.31,.34-.68,.6-1.1,.78-.42,.18-.87,.28-1.33,.28h-45.28l8.48-20.42h53.8c.29,0,.57,.08,.81,.24,.25,.16,.45,.39,.57,.66s.16,.57,.11,.87h.01Z"/></g></svg>
