
<svg width="153" height="32" viewBox="0 0 153 32" fill="none" xmlns="http://www.w3.org/2000/svg">
<rect width="32" height="32" rx="4" fill="#7950DD"/>
<g clip-path="url(#clip0_2548_29730)">
<path d="M21.821 12.2458C21.4198 12.0166 20.904 12.0166 20.4454 12.2458L17.2359 14.1372L15.058 15.3407L11.9057 17.2321C11.5045 17.4613 10.9887 17.4613 10.5302 17.2321L8.06574 15.7419C7.66455 15.5127 7.37798 15.0542 7.37798 14.5384V11.6727C7.37798 11.2142 7.60724 10.7557 8.06574 10.4691L10.5302 9.03626C10.9314 8.80701 11.4472 8.80701 11.9057 9.03626L14.3702 10.5264C14.7714 10.7557 15.058 11.2142 15.058 11.73V13.6213L17.2359 12.3604V10.4118C17.2359 9.95328 17.0066 9.49477 16.5481 9.2082L11.9631 6.51447C11.5619 6.28522 11.046 6.28522 10.5875 6.51447L5.88783 9.26551C5.42933 9.49477 5.20007 9.95328 5.20007 10.4118V15.7992C5.20007 16.2578 5.42933 16.7163 5.88783 17.0028L10.5302 19.6966C10.9314 19.9258 11.4472 19.9258 11.9057 19.6966L15.058 17.8625L17.2359 16.6016L20.3881 14.7676C20.7893 14.5384 21.3051 14.5384 21.7637 14.7676L24.2281 16.2004C24.6293 16.4297 24.9159 16.8882 24.9159 17.404V20.2697C24.9159 20.7282 24.6866 21.1867 24.2281 21.4733L21.821 22.9061C21.4198 23.1354 20.904 23.1354 20.4454 22.9061L17.981 21.4733C17.5798 21.244 17.2932 20.7855 17.2932 20.2697V18.4357L15.1153 19.6966V21.5879C15.1153 22.0464 15.3445 22.5049 15.8031 22.7915L20.4454 25.4852C20.8466 25.7145 21.3625 25.7145 21.821 25.4852L26.4634 22.7915C26.8645 22.5622 27.1511 22.1037 27.1511 21.5879V16.1431C27.1511 15.6846 26.9219 15.2261 26.4634 14.9395L21.821 12.2458Z" fill="#F5F3F7"/>
</g>
<path d="M111.678 12.1564H108.787C108.563 12.1507 108.351 12.0606 108.192 11.9047C108.034 11.7487 107.942 11.5389 107.937 11.3184V10.648C107.942 10.4275 108.034 10.2177 108.192 10.0617C108.351 9.90577 108.563 9.81563 108.787 9.81002H111.259C111.484 9.81002 111.7 9.7217 111.86 9.56456C112.019 9.40742 112.109 9.19428 112.109 8.97201C112.109 8.74979 112.019 8.53659 111.86 8.37946C111.7 8.22232 111.484 8.134 111.259 8.134H108.764C108.54 8.12839 108.328 8.03825 108.17 7.88231C108.011 7.72636 107.92 7.5165 107.914 7.29605V6.62566C107.92 6.4052 108.011 6.19529 108.17 6.03934C108.328 5.8834 108.54 5.79332 108.764 5.78765H111.599C111.824 5.78765 112.04 5.69939 112.2 5.54219C112.36 5.38506 112.449 5.17191 112.449 4.9497C112.449 4.72743 112.36 4.51428 112.2 4.35714C112.04 4.19995 111.824 4.11169 111.599 4.11169H108.198C108.065 4.10902 107.936 4.15233 107.832 4.23402C107.728 4.31565 107.657 4.4305 107.631 4.55861L105.817 12.9944V13.1619C105.848 13.3578 105.953 13.5349 106.111 13.6588C106.268 13.7827 106.466 13.8446 106.667 13.8323H111.655C111.881 13.8323 112.097 13.7441 112.257 13.5869C112.416 13.4297 112.506 13.2166 112.506 12.9944C112.506 12.7721 112.416 12.559 112.257 12.4018C112.097 12.2446 111.881 12.1564 111.655 12.1564H111.678Z" fill="white"/>
<path d="M50.755 4.1676H49.6212C49.4546 4.1697 49.2913 4.21794 49.1513 4.30688C49.0107 4.39577 48.899 4.52173 48.8276 4.67042L46.3334 10.5922C46.3334 10.607 46.3271 10.6212 46.3169 10.6317C46.3061 10.6422 46.292 10.6481 46.2767 10.6481C46.22 10.6481 46.22 10.6481 46.22 10.5922L43.7257 4.67042C43.6651 4.51929 43.5676 4.38506 43.4423 4.27933C43.2156 4.11177 42.9321 4.33523 42.8754 4.61458L41.0047 13.162C40.99 13.2588 41.0098 13.3577 41.0614 13.4414C41.1295 13.5764 41.2343 13.69 41.3647 13.769C41.4951 13.848 41.6453 13.8893 41.7984 13.8883H42.1385C42.3584 13.8771 42.5653 13.7846 42.719 13.6292C42.8726 13.4738 42.9605 13.2671 42.9661 13.0503V7.57542C42.9661 7.56063 42.9724 7.5464 42.9826 7.53597C42.9933 7.52548 43.0075 7.51959 43.0228 7.51959C43.0381 7.51959 43.0523 7.52548 43.0631 7.53597C43.0733 7.5464 43.0795 7.56063 43.0795 7.57542L45.4037 13.3296C45.4655 13.4851 45.5754 13.6173 45.7177 13.7076C45.8606 13.7979 46.0284 13.8416 46.1973 13.8324H46.4241C46.5907 13.8303 46.754 13.7821 46.894 13.6932C47.0346 13.6043 47.1463 13.4783 47.2177 13.3296L49.5419 7.63132C49.5419 7.61652 49.5481 7.60229 49.5583 7.59181C49.5691 7.58132 49.5832 7.57542 49.5985 7.57542C49.6139 7.57542 49.628 7.58132 49.6388 7.59181C49.649 7.60229 49.6552 7.61652 49.6552 7.63132V13.0503C49.6609 13.2708 49.7522 13.4807 49.9109 13.6366C50.0691 13.7925 50.2816 13.8826 50.5056 13.8883H50.8457C51.0696 13.8826 51.2822 13.7925 51.4403 13.6366C51.599 13.4807 51.6903 13.2708 51.696 13.0503V5.00561C51.6569 4.78221 51.5435 4.57813 51.3729 4.42615C51.2017 4.27423 50.9846 4.18313 50.755 4.1676Z" fill="white"/>
<path d="M76.7178 8.69271H74.2236C74.0133 8.69271 73.8115 8.77508 73.6624 8.92179C73.5133 9.06844 73.43 9.26735 73.43 9.47483C73.43 9.68225 73.5133 9.88117 73.6624 10.0279C73.8115 10.1745 74.0133 10.2569 74.2236 10.2569H74.6771C75.1306 10.2569 75.5841 10.648 75.3573 11.0949C75.0172 11.8212 74.337 12.2122 73.2599 12.2122C71.6726 12.2122 70.709 11.0391 70.709 9.02791C70.709 7.01669 71.7293 5.84355 73.2599 5.84355C73.6148 5.82546 73.9685 5.89825 74.2865 6.05494C74.6045 6.21156 74.8755 6.4467 75.0739 6.73739C75.1623 6.90026 75.2927 7.0375 75.452 7.13551C75.6113 7.23347 75.7933 7.28885 75.9809 7.29605H76.4911C76.6056 7.30523 76.7212 7.28675 76.8267 7.2422C76.9327 7.19764 77.0256 7.12837 77.0982 7.04039C77.1708 6.95235 77.2206 6.84828 77.2433 6.73706C77.266 6.62589 77.2603 6.51093 77.228 6.4022C76.8743 5.66974 76.3091 5.05644 75.6034 4.63905C74.897 4.22172 74.0824 4.01884 73.2599 4.0558C70.6523 4.0558 68.6682 5.89939 68.6682 9.02791C68.6682 12.1564 70.5389 14 73.3166 14C75.8108 14 77.5681 12.4357 77.5681 9.92175V9.53067C77.5704 9.42001 77.55 9.30998 77.5081 9.20732C77.4661 9.1046 77.4037 9.0113 77.3244 8.93307C77.245 8.85478 77.1504 8.79311 77.046 8.75184C76.9417 8.71051 76.8301 8.69039 76.7178 8.69271Z" fill="white"/>
<path d="M61.9791 4.72631C61.9207 4.56419 61.8136 4.4236 61.6718 4.32366C61.5295 4.22372 61.3601 4.16925 61.1855 4.1676H59.7116C59.537 4.16925 59.3675 4.22372 59.2252 4.32366C59.0835 4.4236 58.9763 4.56419 58.918 4.72631L56.0836 12.771C56.0411 12.8967 56.0292 13.0306 56.0484 13.1617C56.0677 13.2929 56.1182 13.4178 56.1953 13.5264C56.2724 13.635 56.3744 13.7243 56.4929 13.7872C56.6108 13.85 56.7429 13.8846 56.8772 13.8883H57.3307C57.5053 13.8867 57.6748 13.8322 57.8171 13.7322C57.9588 13.6323 58.0659 13.4917 58.1243 13.3296L58.4645 12.2682C58.5228 12.1061 58.63 11.9655 58.7717 11.8656C58.914 11.7656 59.0835 11.7112 59.2581 11.7095H61.5823C61.7569 11.7112 61.9264 11.7656 62.0686 11.8656C62.2104 11.9655 62.3175 12.1061 62.3759 12.2682L62.716 13.3296C62.7744 13.4917 62.8815 13.6323 63.0233 13.7322C63.1655 13.8322 63.335 13.8867 63.5096 13.8883H63.9631C64.0975 13.8846 64.2296 13.85 64.3475 13.7872C64.466 13.7243 64.568 13.635 64.6451 13.5264C64.7222 13.4178 64.7726 13.2929 64.7919 13.1617C64.8112 13.0306 64.7993 12.8967 64.7568 12.771L61.9791 4.72631ZM60.5392 10.0336H60.3692C60.2348 10.0299 60.1027 9.99524 59.9842 9.93243C59.8663 9.86956 59.7643 9.78028 59.6872 9.67167C59.6101 9.56305 59.5597 9.43817 59.5404 9.307C59.5211 9.17582 59.533 9.04198 59.5755 8.91625L60.4258 6.34638C60.4258 6.33159 60.4321 6.31736 60.4423 6.30687C60.4531 6.29644 60.4672 6.29055 60.4825 6.29055C60.4978 6.29055 60.512 6.29644 60.5228 6.30687C60.533 6.31736 60.5392 6.33159 60.5392 6.34638L61.3895 8.91625C61.4201 9.04589 61.4218 9.18064 61.3941 9.31096C61.3669 9.44129 61.3102 9.56407 61.2291 9.67059C61.148 9.7771 61.0443 9.86486 60.9253 9.92755C60.8056 9.99025 60.6741 10.0264 60.5392 10.0336Z" fill="white"/>
<path d="M83.2934 4.1676H82.8966C82.6727 4.17327 82.4601 4.2634 82.3019 4.41935C82.1432 4.5753 82.0519 4.78516 82.0463 5.00561V13.0503C82.0519 13.2708 82.1432 13.4807 82.3019 13.6366C82.4601 13.7925 82.6727 13.8826 82.8966 13.8883H83.2934C83.5173 13.8826 83.7299 13.7925 83.888 13.6366C84.0468 13.4807 84.138 13.2708 84.1437 13.0503V5.00561C84.129 4.7881 84.0349 4.58323 83.8784 4.4291C83.7219 4.27497 83.5139 4.18206 83.2934 4.1676Z" fill="white"/>
<path d="M93.2138 5.84359C93.5959 5.83321 93.974 5.9204 94.3118 6.09658C94.6491 6.27277 94.9354 6.53206 95.1412 6.84917C95.2143 7.04372 95.3458 7.21185 95.5176 7.33152C95.6899 7.45113 95.8945 7.51672 96.1049 7.51955H96.5017C96.6162 7.52873 96.7318 7.51025 96.8373 7.4657C96.9433 7.42114 97.0362 7.35187 97.1088 7.26389C97.1813 7.17586 97.2312 7.07178 97.2539 6.96056C97.2766 6.84939 97.2715 6.73443 97.2386 6.6257C96.6717 4.94974 95.1412 4 93.1571 4C90.5495 4 88.5654 5.78769 88.5654 8.97205C88.5654 12.1564 90.4928 13.9441 93.1571 13.9441C95.2545 13.9441 96.6717 12.8268 97.1819 11.4301C97.2148 11.3214 97.2199 11.2064 97.1972 11.0953C97.1745 10.9841 97.1247 10.88 97.0521 10.792C96.9795 10.704 96.8866 10.6347 96.7806 10.5901C96.6751 10.5456 96.5595 10.5271 96.445 10.5363H95.9915C95.7851 10.5543 95.5873 10.6257 95.4178 10.7435C95.2489 10.8612 95.114 11.0211 95.0278 11.2067C94.839 11.5266 94.5647 11.7894 94.2347 11.9667C93.9048 12.1439 93.5324 12.2289 93.1571 12.2122C91.6832 12.2122 90.6629 11.0949 90.6629 9.02795C90.6629 6.9609 91.6832 5.84359 93.2138 5.84359Z" fill="white"/>
<path d="M120.578 4.1676H117.914C117.69 4.17327 117.477 4.2634 117.319 4.41935C117.16 4.5753 117.069 4.78516 117.063 5.00561V13.0503C117.069 13.2708 117.16 13.4807 117.319 13.6366C117.477 13.7925 117.69 13.8826 117.914 13.8883H120.578C123.582 13.8883 125.396 12.0447 125.396 9.02798C125.396 6.01119 123.526 4.1676 120.578 4.1676ZM120.464 12.1006H120.011C119.787 12.0949 119.574 12.0048 119.416 11.8489C119.258 11.6929 119.166 11.4831 119.161 11.2626V6.73747C119.166 6.51701 119.258 6.3071 119.416 6.15115C119.574 5.9952 119.787 5.90513 120.011 5.89946H120.464C122.335 5.89946 123.299 6.8492 123.299 8.97209C123.299 11.095 122.335 12.1006 120.464 12.1006Z" fill="white"/>
<path d="M135.6 12.1564H132.709C132.485 12.1507 132.272 12.0606 132.114 11.9047C131.956 11.7487 131.864 11.5389 131.859 11.3184V10.648C131.864 10.4275 131.956 10.2177 132.114 10.0617C132.272 9.90577 132.485 9.81564 132.709 9.81003H135.203C135.429 9.81003 135.645 9.72171 135.805 9.56457C135.964 9.40743 136.054 9.19429 136.054 8.97202C136.054 8.74974 135.964 8.5366 135.805 8.37946C135.645 8.22232 135.429 8.13401 135.203 8.13401H132.709C132.485 8.12839 132.272 8.03826 132.114 7.88231C131.956 7.72637 131.864 7.51651 131.859 7.29605V6.62567C131.864 6.40521 131.956 6.1953 132.114 6.03935C132.272 5.8834 132.485 5.79333 132.709 5.78766H135.543C135.769 5.78766 135.985 5.69939 136.145 5.5422C136.304 5.38506 136.394 5.17192 136.394 4.9497C136.394 4.72743 136.304 4.51429 136.145 4.35715C135.985 4.19996 135.769 4.11169 135.543 4.11169H130.612C130.388 4.11736 130.175 4.20744 130.017 4.36339C129.858 4.51933 129.767 4.72919 129.761 4.9497V12.9944C129.767 13.2148 129.858 13.4247 130.017 13.5806C130.175 13.7366 130.388 13.8267 130.612 13.8323H135.6C135.824 13.8267 136.037 13.7366 136.195 13.5806C136.353 13.4247 136.445 13.2148 136.45 12.9944C136.453 12.8837 136.432 12.7737 136.39 12.671C136.348 12.5683 136.286 12.475 136.207 12.3967C136.127 12.3184 136.033 12.2568 135.928 12.2155C135.824 12.1742 135.712 12.1541 135.6 12.1564Z" fill="white"/>
<path d="M148.411 4.1676H148.015C147.791 4.17327 147.578 4.2634 147.42 4.41935C147.261 4.5753 147.17 4.78516 147.164 5.00561V10.2011C147.164 10.257 147.164 10.257 147.108 10.257H147.051L143.083 4.55869C143.006 4.45223 142.904 4.36601 142.785 4.30762C142.667 4.24918 142.535 4.22027 142.402 4.2235H141.87C141.646 4.22917 141.433 4.31924 141.275 4.47519C141.116 4.63114 141.025 4.84099 141.019 5.06151V13.1062C141.025 13.3266 141.116 13.5365 141.275 13.6924C141.433 13.8484 141.646 13.9385 141.87 13.9441H142.266C142.49 13.9385 142.703 13.8484 142.861 13.6924C143.02 13.5365 143.111 13.3266 143.117 13.1062V7.85478C143.117 7.83998 143.123 7.82575 143.133 7.81527C143.144 7.80478 143.158 7.79888 143.173 7.79888H143.23L147.255 13.4972C147.332 13.6037 147.434 13.6899 147.553 13.7483C147.671 13.8068 147.802 13.8356 147.935 13.8324H148.445C148.669 13.8267 148.882 13.7367 149.04 13.5807C149.199 13.4248 149.29 13.2149 149.296 12.9945V4.94978C149.257 4.74117 149.149 4.55109 148.99 4.40949C148.829 4.26788 148.626 4.18279 148.411 4.1676Z" fill="white"/>
<path d="M42.5012 25.6245V28.3747H41.05V20.5128H42.5012V21.0813V21.2292L42.591 21.1116C42.9147 20.6875 43.4567 20.4228 44.1694 20.4228C44.943 20.4228 45.5733 20.7071 46.0108 21.2056C46.4488 21.7048 46.6973 22.4231 46.6973 23.2967C46.6973 24.1691 46.4272 24.8871 45.9616 25.3866C45.4963 25.8857 44.8321 26.1705 44.0355 26.1705C43.4089 26.1705 42.8793 25.96 42.5905 25.5936L42.5012 25.4803V25.6245ZM42.4119 23.2967C42.4119 23.7784 42.5514 24.1846 42.8024 24.471C43.0538 24.7582 43.4139 24.9211 43.8457 24.9211C44.2668 24.9211 44.6239 24.7579 44.8752 24.471C45.126 24.1847 45.2684 23.7787 45.2684 23.2967C45.2684 22.8092 45.126 22.4003 44.8752 22.1125C44.624 21.8242 44.2668 21.661 43.8457 21.661C43.4139 21.661 43.0538 21.8239 42.8023 22.1125C42.5514 22.4005 42.4119 22.8094 42.4119 23.2967Z" fill="#7950DD" stroke="#120C18" stroke-width="0.1"/>
<path d="M53.1882 23.2967C53.1882 24.9554 51.9724 26.1705 50.2697 26.1705C48.5671 26.1705 47.3513 24.9554 47.3513 23.2967C47.3513 21.638 48.5671 20.4228 50.2697 20.4228C51.9724 20.4228 53.1882 21.638 53.1882 23.2967ZM48.8136 23.2967C48.8136 23.7734 48.9591 24.1795 49.2155 24.4672C49.4724 24.7552 49.8377 24.9211 50.2697 24.9211C50.7018 24.9211 51.0672 24.7552 51.324 24.4672C51.5805 24.1795 51.7259 23.7734 51.7259 23.2967C51.7259 22.8144 51.5805 22.4055 51.3241 22.1164C51.0672 21.8269 50.7018 21.661 50.2697 21.661C49.8377 21.661 49.4723 21.8269 49.2154 22.1164C48.959 22.4055 48.8136 22.8144 48.8136 23.2967Z" fill="#7950DD" stroke="#120C18" stroke-width="0.1"/>
<path d="M54.2258 18.05H55.677V26.0806H54.2258V18.05Z" fill="#7950DD" stroke="#120C18" stroke-width="0.1"/>
<path d="M57.7378 28.3747L58.5401 26.1022L58.546 26.0853L58.5399 26.0685L56.522 20.5128H57.999L59.1707 24.133L59.2185 24.2807L59.2659 24.1329L60.4265 20.5128H61.9147L59.8967 26.0911L59.8967 26.0911L59.8964 26.0919L59.1156 28.3747H57.7378Z" fill="#7950DD" stroke="#120C18" stroke-width="0.1"/>
<path d="M66.3032 21.0561L66.3923 21.1684V21.025V20.5128H67.8547V26.4679C67.8547 27.0458 67.6475 27.5211 67.2877 27.8523C66.9275 28.1839 66.4102 28.3747 65.7842 28.3747H62.9995V27.2489H65.5387C66.0394 27.2489 66.4036 26.8511 66.4036 26.2992V25.557V25.3981L66.3126 25.5284C66.0345 25.9267 65.4618 26.1705 64.8133 26.1705C63.9942 26.1705 63.3445 25.8856 62.8991 25.3874C62.4531 24.8884 62.2075 24.1704 62.2075 23.2967C62.2075 22.423 62.4531 21.7049 62.8964 21.2059C63.3391 20.7075 63.9833 20.4228 64.7912 20.4228C65.4599 20.4228 66.0019 20.6768 66.3032 21.0561ZM63.6361 23.2967C63.6361 23.7839 63.7756 24.1901 64.0252 24.4752C64.2753 24.761 64.6326 24.9211 65.0588 24.9211C65.4905 24.9211 65.8506 24.7612 66.1022 24.4754C66.3533 24.1902 66.4928 23.7839 66.4928 23.2967C66.4928 22.8094 66.3534 22.4005 66.1024 22.1125C65.8509 21.8239 65.4908 21.661 65.0588 21.661C64.6324 21.661 64.2751 21.8241 64.025 22.1127C63.7756 22.4005 63.6361 22.8094 63.6361 23.2967Z" fill="#7950DD" stroke="#120C18" stroke-width="0.1"/>
<path d="M74.7339 23.2967C74.7339 24.9554 73.5183 26.1705 71.8154 26.1705C70.1129 26.1705 68.8969 24.9554 68.8969 23.2967C68.8969 21.638 70.1129 20.4228 71.8154 20.4228C73.5183 20.4228 74.7339 21.638 74.7339 23.2967ZM70.3593 23.2967C70.3593 23.7734 70.5047 24.1795 70.7611 24.4672C71.018 24.7552 71.3833 24.9211 71.8154 24.9211C72.2475 24.9211 72.6128 24.7552 72.8696 24.4672C73.1261 24.1795 73.2715 23.7734 73.2715 23.2967C73.2715 22.8144 73.1261 22.4055 72.8697 22.1164C72.6129 21.8269 72.2475 21.661 71.8154 21.661C71.3833 21.661 71.0179 21.8269 70.7611 22.1164C70.5046 22.4055 70.3593 22.8144 70.3593 23.2967Z" fill="#7950DD" stroke="#120C18" stroke-width="0.1"/>
<path d="M80.9499 22.5994V26.0806H79.4875V22.9481C79.4875 22.5945 79.3752 22.2868 79.1761 22.0668C78.9765 21.8465 78.6923 21.7173 78.3553 21.7173C77.6429 21.7173 77.1447 22.2723 77.1447 23.0268V26.0806H75.6823V20.5128H77.1447V21.25V21.4396L77.2382 21.2746C77.5397 20.7425 78.1457 20.4228 78.9018 20.4228C79.5252 20.4228 80.0361 20.6484 80.3913 21.031C80.7469 21.4139 80.9499 21.9577 80.9499 22.5994Z" fill="#7950DD" stroke="#120C18" stroke-width="0.1"/>
<defs>
<clipPath id="clip0_2548_29730">
<rect width="22.0084" height="19.2" fill="white" transform="translate(5.20001 6.40002)"/>
</clipPath>
</defs>
</svg>
