<svg width="16" height="16" viewBox="0 0 16 16" fill="none" xmlns="http://www.w3.org/2000/svg" backgroundColor=""><g clip-path="url(#clip0_2526_31459)"><path d="M11.8805 5.49729C11.6131 5.34445 11.2692 5.34445 10.9635 5.49729L8.82381 6.75819L7.37187 7.56057L5.27037 8.82147C5.00291 8.97431 4.65903 8.97431 4.35336 8.82147L2.71037 7.82804C2.44291 7.6752 2.25187 7.36953 2.25187 7.02565V5.1152C2.25187 4.80953 2.4047 4.50386 2.71037 4.31281L4.35336 3.35759C4.62082 3.20475 4.9647 3.20475 5.27037 3.35759L6.91336 4.35102C7.18082 4.50386 7.37187 4.80953 7.37187 5.15341V6.41431L8.82381 5.57371V4.2746C8.82381 3.96893 8.67097 3.66326 8.3653 3.47222L5.30858 1.67639C5.04112 1.52356 4.69724 1.52356 4.39157 1.67639L1.25843 3.51042C0.952763 3.66326 0.799927 3.96893 0.799927 4.2746V7.86625C0.799927 8.17192 0.952763 8.47759 1.25843 8.66863L4.35336 10.4645C4.62082 10.6173 4.9647 10.6173 5.27037 10.4645L7.37187 9.24177L8.82381 8.40117L10.9253 7.17848C11.1928 7.02565 11.5366 7.02565 11.8423 7.17848L13.4853 8.13371C13.7528 8.28654 13.9438 8.59222 13.9438 8.9361V10.8465C13.9438 11.1522 13.791 11.4579 13.4853 11.6489L11.8805 12.6042C11.6131 12.757 11.2692 12.757 10.9635 12.6042L9.32052 11.6489C9.05306 11.4961 8.86202 11.1904 8.86202 10.8465V9.62386L7.41008 10.4645V11.7254C7.41008 12.031 7.56291 12.3367 7.86858 12.5277L10.9635 14.3236C11.231 14.4764 11.5749 14.4764 11.8805 14.3236L14.9754 12.5277C15.2429 12.3749 15.434 12.0692 15.434 11.7254V8.0955C15.434 7.78983 15.2811 7.48416 14.9754 7.29311L11.8805 5.49729Z" fill="#8247E5"></path></g><defs><clipPath id="clip0_2526_31459"><rect width="14.6722" height="12.8" fill="white" transform="translate(0.799927 1.60001)"></rect></clipPath></defs></svg>