<svg width="136" height="27" viewBox="0 0 136 27" fill="none" xmlns="http://www.w3.org/2000/svg"><path d="M0.000673019 12.1615C-0.0211214 11.1821 0.488234 10.8344 1.26318 10.8025C2.03814 10.7707 2.81306 10.7388 3.58801 10.707C5.39622 10.6327 7.19718 10.2319 8.73976 9.84182L8.99812 9.83122C10.5407 9.44102 12.0906 9.37734 13.8916 8.9766C15.6998 8.90233 17.508 8.82806 19.3089 8.42729C19.8255 8.40607 20.6005 8.37425 21.1171 8.35302C22.1504 8.31058 23.1764 7.94164 24.2096 7.89921C25.5012 7.84615 27.0438 7.456 28.3354 7.40294C30.1436 7.32867 31.9518 7.2544 33.7527 6.85363C35.812 6.44225 37.8785 6.35737 39.945 6.2725C40.4616 6.25127 41.2366 6.21944 41.746 5.87173C42.0043 5.86112 42.0043 5.86112 42.2626 5.8505C42.7792 5.82929 43.5542 5.79746 44.078 6.10273C44.5947 6.08151 45.3624 5.72318 45.8862 6.02846C45.879 5.70196 45.879 5.70196 46.13 5.36485C46.905 5.33302 47.4289 5.6383 48.2038 5.60647C48.4621 5.59586 48.4621 5.59586 48.7204 5.58525C49.2298 5.23754 49.4881 5.22692 50.012 5.5322C50.2703 5.52159 50.5286 5.51098 50.5286 5.51098C50.7724 4.84737 51.5619 5.46853 51.813 5.13143C52.5952 5.42609 53.6212 5.05715 54.4034 5.35182C54.6617 5.34121 55.1783 5.31999 55.4367 5.30938L55.695 5.29878C55.9605 5.61466 56.2116 5.27755 56.4627 4.94044C56.4627 4.94044 56.7137 4.60334 56.972 4.59273C57.2303 4.58212 57.7469 4.5609 58.0052 4.55029C58.5292 4.85557 58.5146 4.20257 59.0312 4.18135C59.8134 4.47602 60.5811 4.11769 61.3561 4.08586C61.8727 4.06464 62.3893 4.04342 62.906 4.02219C63.1643 4.01159 63.1643 4.01159 63.4226 4.00098C63.6809 3.99036 64.1975 3.96915 64.4558 3.95854C64.7142 3.94792 65.2381 4.2532 65.2308 3.92671C65.7329 3.25249 65.9985 3.56838 66.5152 3.54716C66.7734 3.53655 67.039 3.85244 67.29 3.51533C67.29 3.51533 67.5483 3.50471 67.8067 3.49411C68.0651 3.4835 68.3378 4.12588 68.5813 3.46228C68.8255 2.79868 69.1056 3.76755 69.3491 3.10395C69.866 3.08273 70.1244 3.07212 70.6406 3.0509C71.1575 3.02968 71.6811 3.33496 71.9328 2.99785C72.4415 2.65013 72.9584 2.62891 73.4752 2.60769C74.2498 2.57586 75.0251 2.54403 75.5413 2.52281C76.826 2.14326 78.1249 2.41671 79.4164 2.36365C80.191 2.33182 80.7079 2.31061 81.4757 1.95228C81.7342 1.94167 81.9851 1.60456 82.2504 1.92044C82.5088 1.90984 82.7672 1.89923 83.0257 1.88861C84.3171 1.83557 85.867 1.7719 87.1511 1.39236C88.4358 1.01281 89.4688 0.970371 90.7677 1.24381C91.0262 1.23321 91.2846 1.22259 91.2846 1.22259C91.8008 1.20138 92.0592 1.19076 92.5686 0.843046C93.3432 0.811215 94.1185 0.779384 94.8931 0.747554C95.6684 0.715723 96.4431 0.683892 97.2183 0.652062C97.993 0.620232 99.0267 0.577791 99.8013 0.54596C100.318 0.52474 100.834 0.503519 101.351 0.482299C101.868 0.461078 102.384 0.439858 102.901 0.418638C103.942 0.702693 104.968 0.333756 105.743 0.301925C106.776 0.259484 107.817 0.54354 108.85 0.501099C110.658 0.426828 112.215 0.689663 114.023 0.615392C115.056 0.572951 115.839 0.867614 116.872 0.825176C117.389 0.803956 117.647 0.793345 118.163 0.772125C118.673 0.424409 118.939 0.740294 119.455 0.719074C120.237 1.01374 121.005 0.655412 122.039 0.612972C122.555 0.591751 123.33 0.55992 123.839 0.212204C125.389 0.148543 126.939 0.0848815 128.489 0.0212204C128.747 0.0106102 129.005 0 129.005 0C129.278 0.642383 129.795 0.621163 130.053 0.610552C130.828 0.578722 132.378 0.51506 133.404 0.146123C133.921 0.124902 134.186 0.440789 134.452 0.756675C134.983 1.38845 134.739 2.05206 135.012 2.69444C135.285 3.33682 135.034 3.67393 135.041 4.00042C135.314 4.6428 134.797 4.66402 134.554 5.32762C134.561 5.65412 134.827 5.97001 134.834 6.2965C135.365 6.92828 135.394 8.23427 135.15 8.89786C135.172 9.87739 135.71 10.8357 135.474 11.8257C136.005 12.4575 136.027 13.437 135.79 14.4271C135.805 15.0801 135.812 15.4065 135.826 16.0596C136.106 17.0284 136.114 17.355 135.346 17.7133C134.571 17.7451 133.804 18.1035 133.029 18.1353C131.221 18.2095 129.42 18.6103 127.87 18.6739C127.095 18.7058 126.578 18.727 125.803 18.7588C125.286 18.7801 124.77 18.8013 124.253 18.8225C123.479 18.8544 122.954 18.5491 122.186 18.9074C121.153 18.9499 119.862 19.0028 118.829 19.0453C115.988 19.162 113.404 19.2682 110.555 19.0583C109.264 19.1114 108.23 19.1538 106.939 19.2069C105.64 18.9334 104.614 19.3024 103.316 19.0289C101.766 19.0926 100.481 19.4721 98.9168 18.8829C98.6584 18.8935 98.6584 18.8935 98.3999 18.9041C97.6321 19.2624 96.8426 18.6412 95.817 19.0101L95.5585 19.0207C95.3001 19.0313 95.0417 19.042 94.7839 19.0526C94.5255 19.0632 94.2671 19.0738 94.2671 19.0738C93.7502 19.095 93.234 19.1162 92.7172 19.1375C91.6841 19.1799 90.6504 19.2224 89.3664 19.6019C88.3333 19.6444 87.558 19.6762 86.525 19.7186C84.9751 19.7822 83.4252 19.8459 81.8827 20.2361C81.3659 20.2573 80.849 20.2785 80.3328 20.2997C79.8159 20.321 79.2991 20.3422 78.5245 20.374C78.266 20.3846 77.7492 20.4059 77.4907 20.4165C76.9746 20.4377 76.7161 20.4483 76.4577 20.4589C76.1993 20.4695 75.6831 20.4907 75.4247 20.5013C74.3984 20.8703 73.1069 20.9233 72.0739 20.9657C71.557 20.987 71.0334 20.6817 70.5165 20.7029C69.7419 20.7348 68.7082 20.7772 67.9335 20.8091C66.6419 20.8621 65.3502 20.9151 64.0587 20.9682C63.8004 20.9788 63.2837 21 63.0254 21.0106C62.516 21.3583 61.7338 21.0637 61.21 20.7584C60.4495 21.4432 59.4163 21.4857 58.3685 20.8751C58.1102 20.8857 58.1029 20.5592 57.8519 20.8963L57.6008 21.2335C56.8114 20.6123 56.3092 21.2865 55.5343 21.3183C54.5083 21.6872 53.7406 22.0456 52.7001 21.7615C52.1835 21.7827 51.9252 21.7933 51.4085 21.8146C49.6003 21.8889 47.7994 22.2896 45.9912 22.3639C45.7329 22.3745 45.4746 22.3851 45.4746 22.3851C44.6924 22.0904 43.9174 22.1222 43.1497 22.4806C42.3966 23.4919 41.3633 23.5344 40.0717 23.5875C39.5551 23.6087 39.0385 23.6299 38.2635 23.6616C37.2303 23.7041 36.4553 23.7359 35.4221 23.7784C34.6471 23.8102 33.6211 24.1792 32.8389 23.8845C32.5806 23.8951 32.064 23.9164 31.8129 24.2534C31.5546 24.2641 31.2963 24.2747 31.2963 24.2747C31.0307 23.9588 30.7797 24.2959 30.5214 24.3065C30.263 24.3171 30.012 24.6542 29.7537 24.6648C28.7204 24.7073 27.9455 24.7391 26.9122 24.7816C26.6539 24.7922 26.1373 24.8134 25.879 24.824C25.1113 25.1823 24.3363 25.2141 23.5541 24.9194C23.0375 24.9407 22.7792 24.9513 22.2626 24.9725C21.7459 24.9937 21.2293 25.015 20.971 25.0256C20.196 25.0574 19.17 25.4263 18.3951 25.4582C18.1368 25.4688 17.8785 25.4794 17.3618 25.5006C15.812 25.5643 14.5276 25.9438 12.9778 26.0075C12.4611 26.0286 11.6789 25.734 11.1696 26.0817L10.9112 26.0923C10.3946 26.1136 9.87068 25.8083 9.35409 25.8295C8.06974 26.2091 6.78545 26.5886 5.50114 26.9682C5.24283 26.9788 4.9845 26.9894 4.72619 27C4.46061 26.6841 4.19504 26.3683 4.18778 26.0417C4.18051 25.7152 4.17325 25.3887 3.90039 24.7464C3.88587 24.0933 3.60576 23.1245 3.08186 22.8192C3.08186 22.8192 2.81629 22.5033 2.80902 22.1768C2.52892 21.2079 2.2488 20.2391 1.97595 19.5967C1.96869 19.2702 1.69585 18.6278 1.69585 18.6278C1.93963 17.9642 1.68132 17.9748 1.41574 17.6589C1.15016 17.3431 1.1429 17.0165 0.877325 16.7006C0.870061 16.3741 0.604474 16.0583 0.597209 15.7318C0.0660459 15.1 0.0297319 13.4675 0.000673019 12.1615ZM129.467 9.13129C129.46 8.80479 129.46 8.80479 129.467 9.13129C129.201 8.8154 129.201 8.8154 128.944 8.82602C128.944 8.82602 128.944 8.82602 128.95 9.15251C129.201 8.8154 129.209 9.1419 129.467 9.13129ZM127.63 7.89957C127.888 7.88897 127.888 7.88897 127.63 7.89957C127.888 7.88897 127.888 7.88897 127.63 7.89957ZM13.5347 16.1808L13.2764 16.1914C13.542 16.5073 13.542 16.5073 13.5347 16.1808ZM16.038 12.4832C16.0452 12.8097 16.0452 12.8097 16.038 12.4832C16.3035 12.7991 16.3035 12.7991 16.5619 12.7885C16.2963 12.4726 16.2963 12.4726 16.038 12.4832ZM17.897 14.6944C17.897 14.6944 17.9043 15.0209 17.897 14.6944C17.9043 15.0209 17.897 14.6944 17.897 14.6944ZM20.7458 14.9042L20.9968 14.5671C20.7385 14.5777 20.4802 14.5883 20.7458 14.9042C20.4802 14.5883 20.7458 14.9042 20.7458 14.9042ZM20.2509 15.9048C20.5092 15.8942 20.502 15.5678 20.7603 15.5571C20.502 15.5678 20.502 15.5678 20.2509 15.9048ZM20.2509 15.9048C19.9926 15.9155 19.9999 16.242 19.9999 16.242C20.2655 16.5579 20.5238 16.5473 21.0404 16.5261C20.7748 16.2102 20.5165 16.2208 20.2509 15.9048ZM20.4511 13.2823C20.2001 13.6194 19.949 13.9565 19.9635 14.6096C20.2146 14.2724 20.2073 13.9459 20.2073 13.9459C20.2073 13.9459 20.4656 13.9353 20.724 13.9247C20.724 13.9247 20.724 13.9247 20.975 13.5876C20.975 13.5876 20.7167 13.5982 20.4511 13.2823ZM21.5062 14.2194C21.7717 14.5353 21.7717 14.5353 22.0374 14.8511C22.0228 14.1982 22.0228 14.1982 21.5062 14.2194ZM22.2738 13.861C22.5394 14.1769 22.8123 14.8193 23.3217 14.4716C23.0488 13.8292 22.7832 13.5133 22.2738 13.861ZM26.6362 12.3747C26.6289 12.0482 26.6289 12.0482 26.6216 11.7217C26.1122 12.0694 26.1122 12.0694 26.6362 12.3747ZM27.9423 12.9746C27.9495 13.3011 27.9495 13.3011 27.9495 13.3011C28.2078 13.2905 28.2078 13.2905 27.9423 12.9746C28.2006 12.964 28.2006 12.964 27.9423 12.9746ZM29.4921 12.911C29.2338 12.9216 28.9755 12.9322 28.7172 12.9428C28.7172 12.9428 28.4661 13.2799 28.4734 13.6064C28.9901 13.5851 29.2411 13.2481 29.5139 13.8904L29.765 13.5533C29.7577 13.2268 29.4921 12.911 29.4921 12.911ZM30.2671 12.8791C30.5326 13.195 30.5399 13.5215 30.5472 13.848C30.7983 13.5109 30.7983 13.5109 30.791 13.1844C30.5326 13.195 30.5326 13.195 30.2671 12.8791ZM30.791 13.1844C31.8388 13.795 33.3814 13.4048 34.149 13.0464L34.4002 12.7093C33.8835 12.7305 33.1085 12.7624 32.5919 12.7836C32.3336 12.7942 32.0753 12.8048 32.068 12.4784C31.5586 12.8261 31.0348 12.5208 30.791 13.1844ZM31.5877 14.1321C31.5877 14.1321 31.595 14.4585 31.5877 14.1321C31.595 14.4585 31.5877 14.1321 31.5877 14.1321ZM32.3699 14.4267L32.6282 14.4161L32.3699 14.4267ZM32.0317 10.8459C32.0389 11.1724 32.0389 11.1724 32.0389 11.1724L32.0317 10.8459ZM32.0753 12.8048L33.8835 12.7305C32.8357 12.12 32.5774 12.1307 32.0753 12.8048ZM33.0723 11.1299C33.5888 11.1087 33.8545 11.4245 34.3565 10.7504C33.5743 10.4557 33.3233 10.7928 33.0723 11.1299ZM37.9584 9.94881C37.9584 9.94881 37.7001 9.95941 37.7073 10.2859C37.7073 10.2859 37.9729 10.6018 37.9657 10.2753C37.9657 10.2753 37.9657 10.2753 37.9584 9.94881ZM39.7739 10.2011L41.0654 10.148C40.276 9.52682 40.276 9.52682 39.7739 10.2011ZM39.5374 11.1912L39.7957 11.1805L39.5374 11.1912ZM42.0987 10.1056C42.6153 10.0844 42.8664 9.74726 43.383 9.72597C42.8664 9.74726 42.3425 9.44194 42.0987 10.1056ZM44.1507 9.36766C44.9256 9.33587 45.7078 9.6305 46.7411 9.5881C45.9444 8.64043 45.1839 9.32527 44.1507 9.36766ZM48.2765 8.87143C48.2765 8.87143 48.0181 8.88204 48.0254 9.2085C48.0254 9.2085 47.7671 9.21919 47.7743 9.54562C48.0254 9.2085 48.0254 9.2085 48.2765 8.87143ZM49.8263 8.80777L49.568 8.81839L49.8263 8.80777ZM50.3285 8.13356C50.3285 8.13356 50.3357 8.46006 50.0847 8.79716C50.343 8.78655 50.343 8.78655 50.3357 8.46005C50.3357 8.46005 50.3357 8.46006 50.3285 8.13356ZM50.1137 10.1032C50.1137 10.1032 50.372 10.0926 50.1137 10.1032C50.372 10.0926 50.372 10.0926 50.372 10.0926C50.3648 9.76606 50.3648 9.76606 50.1137 10.1032C50.3648 9.76606 50.3648 9.76606 50.1137 10.1032ZM51.398 9.72358C51.4053 10.0501 51.4053 10.0501 51.398 9.72358C51.6564 9.71298 51.6564 9.71298 51.6564 9.71298C51.6564 9.71298 51.6564 9.71298 51.398 9.72358ZM53.6866 7.99562C53.6938 8.32212 53.4355 8.33273 53.4427 8.65923C53.1772 8.34335 53.1772 8.34335 52.9116 8.02745C52.6679 8.69106 52.395 8.04868 52.1512 8.71228C52.9261 8.68045 53.4573 9.31218 54.2249 8.9539C53.7011 8.64862 53.6938 8.32212 53.6866 7.99562ZM54.9854 8.26907C54.4761 8.61679 54.4761 8.61679 54.4906 9.26979C54.7416 8.93267 54.7416 8.93267 54.9926 8.59556L54.9854 8.26907ZM56.0114 7.90014C56.0041 7.57364 55.7458 7.58424 55.4729 6.94186C55.4875 7.59486 55.7603 8.23724 54.9854 8.26907L55.2509 8.58496C55.5093 8.57435 55.7676 8.56373 56.2843 8.54252L56.277 8.21602C56.277 8.21602 56.0186 8.22663 56.0114 7.90014ZM56.2843 8.54252C56.5426 8.5319 56.8081 8.84779 57.0519 8.18419C56.7863 7.86831 56.5353 8.20541 56.2843 8.54252ZM57.5613 7.83647C57.5613 7.83647 57.5685 8.16297 57.5613 7.83647C57.5685 8.16297 57.8268 8.15236 57.5613 7.83647C57.8268 8.15236 57.8268 8.15236 57.5613 7.83647C57.8196 7.82587 57.8196 7.82587 57.5613 7.83647ZM57.5903 9.14246C57.5976 9.46894 57.5976 9.46894 57.5903 9.14246C57.8559 9.45834 57.8559 9.45835 58.1142 9.44775C58.1142 9.44775 58.1142 9.44775 58.107 9.12124C57.8486 9.13185 57.8487 9.13185 57.5903 9.14246ZM58.3362 7.80464C58.0851 8.14175 58.3508 8.45763 58.6091 8.44702C58.8673 8.43642 59.384 8.41519 59.9007 8.39398C59.1185 8.09931 58.5945 7.79403 58.3362 7.80464ZM59.8933 8.06748C59.8933 8.06748 59.9007 8.39398 59.8933 8.06748C60.4245 8.69925 60.4173 8.37275 60.6683 8.03565C60.4027 7.71976 60.1444 7.73037 59.8933 8.06748ZM60.9121 7.37204C61.1922 8.34092 61.436 7.67732 61.6943 7.66671C61.4287 7.35083 61.1777 7.68793 60.9121 7.37204ZM62.9786 7.28716C62.4692 7.63488 62.2109 7.64549 61.6943 7.66671L61.7015 7.99321C62.2182 7.97198 62.4838 8.28788 62.7566 8.93026C62.7494 8.60376 62.7421 8.27726 62.4765 7.96138C62.7276 7.62427 62.9859 7.61366 63.2369 7.27655C63.4952 7.26594 63.2297 6.95006 62.9786 7.28716ZM64.0119 7.24472L64.0264 7.89771L64.2847 7.88711C64.5357 7.55 64.5285 7.2235 64.7941 7.53939C64.7941 7.53939 65.0524 7.52877 65.3034 7.19167C64.7723 6.5599 64.2847 7.88711 64.0119 7.24472ZM64.5648 8.85599C64.5648 8.85599 64.8231 8.84537 64.5648 8.85599C64.8231 8.84537 64.8231 8.84537 64.5648 8.85599C64.8231 8.84537 64.8231 8.84537 64.5648 8.85599ZM66.8533 7.12801C66.8461 6.80151 67.1044 6.79091 67.0971 6.46441C66.5805 6.48563 66.5805 6.48562 66.8533 7.12801ZM67.3627 6.78029C67.1189 7.4439 66.6096 7.79161 66.3439 7.47573C66.0784 7.15983 65.5691 7.50756 65.3107 7.51817C65.8419 8.14994 66.3512 7.80223 67.1334 8.09689C67.6575 8.40216 68.1669 8.05445 68.9415 8.02261C68.9347 7.69612 69.1857 7.35901 69.1782 7.03252C68.6613 7.05373 68.1377 6.74846 67.3627 6.78029ZM70.197 6.33708C70.197 6.33708 69.9386 6.3477 69.946 6.67419C69.6951 7.01129 69.7093 7.66429 69.7236 8.31728C69.9752 7.98018 70.4846 7.63246 70.7424 7.62184C70.7356 7.29535 70.7356 7.29535 70.4697 6.97946C70.4697 6.97946 70.2045 6.66358 70.197 6.33708ZM70.4554 6.32647C70.4554 6.32647 70.4622 6.65297 70.7207 6.64236C70.7207 6.64236 70.7207 6.64236 70.9791 6.63175C70.7207 6.64236 70.7207 6.64236 70.4554 6.32647ZM70.7424 7.62184C70.7424 7.62184 70.7498 7.94834 70.7573 8.27484C71.0083 7.93774 71.0008 7.61124 70.7424 7.62184ZM71.4742 5.63104C71.732 5.62043 71.4742 5.63104 71.4742 5.63104V5.63104ZM73.0384 6.22037C72.529 6.56809 72.2706 6.5787 71.7544 6.59992C71.4959 6.61052 71.245 6.94763 70.9866 6.95825C71.2667 7.92712 71.5027 6.93702 71.7686 7.25292C71.7686 7.25292 71.7761 7.57941 72.0413 7.8953C72.2855 7.23169 73.075 7.85285 72.7949 6.88398C73.0601 7.19986 73.3185 7.18925 73.577 7.17864C73.8205 6.51504 73.3036 6.53625 73.0384 6.22037ZM74.3156 5.51433C74.0647 5.85143 74.3224 5.84082 74.3224 5.84082C74.5808 5.83022 74.5734 5.50372 74.3156 5.51433C74.5734 5.50372 74.5734 5.50372 74.3156 5.51433ZM77.6732 5.37639C77.6807 5.70289 77.6807 5.70289 77.6732 5.37639C77.6807 5.70289 77.6807 5.70289 77.6732 5.37639C77.6807 5.70289 77.6807 5.70289 77.6732 5.37639ZM77.9466 6.01877C77.6881 6.02939 77.6807 5.70289 77.4222 5.7135C76.6476 5.74533 76.1382 6.09304 75.6288 6.44077C75.3778 6.77788 75.1194 6.78848 74.5958 6.48321C74.3373 6.49381 74.3373 6.49381 73.8205 6.51504C74.3516 7.14681 74.6175 7.4627 75.1269 7.11498C75.3778 6.77787 75.6431 7.09376 75.6505 7.42026C76.1674 7.39903 76.4184 7.06193 76.6768 7.05132C77.193 7.03009 77.7024 6.68238 78.2335 7.31416C78.4919 7.30354 78.4702 6.32405 79.0013 6.95582C79.0088 7.28232 79.0088 7.28232 79.0162 7.60882L79.274 7.59821C79.525 7.2611 79.7766 6.92399 80.0276 6.58689C79.2455 6.29223 78.4627 5.99756 77.9466 6.01877ZM74.1006 7.48392C74.1081 7.81041 74.3665 7.7998 74.1006 7.48392C74.3665 7.7998 74.359 7.4733 74.1006 7.48392C74.359 7.4733 74.359 7.4733 74.1006 7.48392ZM77.2004 7.35659C77.4589 7.34599 77.7173 7.33537 78.2335 7.31416L78.2267 6.98766C77.9683 6.99826 77.7098 7.00888 77.2004 7.35659C77.4514 7.01949 77.4589 7.34599 77.2004 7.35659ZM80.0059 5.6074C80.0126 5.9339 80.0126 5.9339 80.0059 5.6074C80.0126 5.9339 80.0126 5.9339 80.0059 5.6074ZM80.7954 6.22856L80.537 6.23917L80.7954 6.22856ZM80.5587 7.21866L80.8171 7.20805C80.8171 7.20805 80.8171 7.20805 80.5587 7.21866ZM82.6105 6.48078C82.0794 5.84902 81.821 5.85962 81.3191 6.53384C81.3265 6.86033 81.5843 6.84972 81.5917 7.17622L81.8502 7.16561C81.8427 6.83911 82.1086 7.155 82.367 7.14439C82.3596 6.81789 82.618 6.80728 82.6105 6.48078ZM85.4377 5.71108C84.9208 5.7323 84.4114 6.08002 83.6293 5.78535C83.3709 5.79596 82.854 5.81719 82.6031 6.15429C82.8615 6.14368 83.1199 6.13307 83.1274 6.45957C83.3858 6.44895 83.3926 6.77545 83.651 6.76484C83.651 6.76484 83.902 6.42774 83.8945 6.10124C84.1462 5.76413 84.3972 5.42702 84.9208 5.7323C84.9208 5.7323 85.4377 5.71108 85.4302 5.38458C85.6961 5.70047 85.4377 5.71108 85.4377 5.71108ZM86.2197 6.00575C86.7509 6.63752 87.5187 6.2792 88.0281 5.93147C87.5038 5.6262 86.7292 5.65803 86.2197 6.00575ZM87.2677 6.6163C87.2677 6.6163 87.5255 6.60569 87.2677 6.6163C87.5329 6.93219 87.5255 6.60569 87.5255 6.60569C87.5255 6.60569 87.5255 6.60569 87.2677 6.6163C87.5255 6.60569 87.2677 6.6163 87.2677 6.6163ZM89.3121 5.55193L89.327 6.20493L89.3121 5.55193ZM90.3452 5.50949C90.0874 5.52009 89.8358 5.8572 89.8432 6.1837L90.1016 6.17309C90.3601 6.16248 90.6111 5.82538 90.3452 5.50949ZM91.1279 5.80415C90.8695 5.81476 90.8695 5.81476 91.1279 5.80415C90.8769 6.14126 90.8769 6.14126 90.8769 6.14126C90.8769 6.14126 91.1347 6.13065 91.1279 5.80415ZM91.1204 5.47766C91.1279 5.80415 91.3857 5.79355 91.1204 5.47766C91.3789 5.46705 91.3789 5.46705 91.1204 5.47766ZM91.3857 5.79355L91.4081 6.77304C91.6516 6.10943 91.9025 5.77232 91.8951 5.44582C91.6373 5.45644 91.6441 5.78293 91.3857 5.79355ZM91.9317 7.07831L92.7063 7.04648C92.6995 6.71998 92.958 6.70937 92.9505 6.38287C92.4336 6.4041 92.1827 6.74121 91.9317 7.07831ZM92.6704 5.41399L92.6778 5.74049C92.9356 5.72988 93.4524 5.70866 93.7183 6.02455C93.991 6.66693 94.2277 5.67683 94.4929 5.99272C93.9544 5.03445 93.1872 5.39278 92.6704 5.41399ZM92.9505 6.38287C92.958 6.70937 93.2157 6.69877 92.9505 6.38287C93.2089 6.37227 93.2089 6.37227 93.2089 6.37227C93.2089 6.37227 93.2089 6.37227 93.2015 6.04577C93.2089 6.37227 93.2089 6.37227 92.9505 6.38287ZM95.0023 5.645C94.7439 5.65561 94.7439 5.65561 94.7514 5.9821C94.7514 5.9821 94.7514 5.9821 95.0166 6.298C95.0098 5.9715 95.0098 5.9715 95.0023 5.645ZM95.7702 5.28668C96.2864 5.26545 96.5597 5.90783 97.3201 5.22301C96.8032 5.24424 96.2864 5.26545 95.7702 5.28668ZM100.176 5.75929C100.183 6.08579 100.183 6.08579 100.183 6.08579C100.442 6.07517 100.434 5.74868 100.176 5.75929C100.434 5.74868 100.176 5.75929 100.176 5.75929ZM101.216 6.04335C101.216 6.04335 100.958 6.05396 101.216 6.04335C101.224 6.36984 101.224 6.36984 101.224 6.36984L101.216 6.04335ZM103.025 5.96908C102.774 6.30618 102.774 6.30618 103.032 6.29557C103.032 6.29557 103.032 6.29557 103.025 5.96908ZM103.269 5.30548C103.276 5.63197 103.017 5.64258 103.025 5.96908C103.283 5.95847 103.283 5.95847 103.541 5.94786C103.541 5.94786 103.276 5.63197 103.269 5.30548ZM109.748 6.0197C109.748 6.0197 109.49 6.03032 109.748 6.0197C109.755 6.3462 109.755 6.3462 109.755 6.3462C109.748 6.0197 109.748 6.0197 109.748 6.0197ZM110.774 5.65077C110.782 5.97727 110.782 5.97727 110.774 5.65077C110.782 5.97727 110.788 6.30376 110.788 6.30376C110.788 6.30376 110.788 6.30377 111.047 6.29316C111.047 6.29316 110.782 5.97727 110.774 5.65077ZM111.815 5.93483C111.815 5.93483 111.815 5.93483 111.549 5.61894C111.556 5.94543 111.564 6.27193 111.815 5.93483C111.822 6.26133 111.815 5.93483 111.815 5.93483ZM112.324 5.58711C112.324 5.58711 112.331 5.9136 112.324 5.58711C112.59 5.903 112.59 5.903 112.848 5.89239C112.848 5.89239 112.848 5.89239 112.841 5.56589C112.582 5.5765 112.582 5.5765 112.324 5.58711ZM113.365 5.87116C113.365 5.87116 113.106 5.88178 113.365 5.87116V5.87116ZM115.682 5.44918C115.689 5.77568 115.689 5.77568 115.682 5.44918C115.689 5.77568 115.689 5.77568 115.682 5.44918C115.689 5.77568 115.689 5.77568 115.682 5.44918ZM119.313 5.95363L119.055 5.96423L119.313 5.95363ZM121.638 5.85813C121.638 5.85813 121.379 5.86875 121.638 5.85813V5.85813ZM121.904 6.17402C121.904 6.17402 122.162 6.16341 121.904 6.17402C122.162 6.16341 122.162 6.16341 121.904 6.17402C122.162 6.16341 122.162 6.16341 121.904 6.17402ZM122.686 6.46868C122.169 6.48991 121.387 6.19524 120.877 6.54296C120.619 6.55357 120.354 6.23769 120.095 6.24829L119.844 6.5854C118.804 6.30134 117.778 6.67028 116.995 6.37561C116.737 6.38623 116.479 6.39684 116.221 6.40744C115.711 6.75517 115.446 6.43928 115.438 6.11278C115.173 5.79689 115.933 5.11207 115.158 5.1439L115.187 6.44988C114.922 6.134 114.922 6.134 114.656 5.81812C113.903 6.82944 113.128 6.86127 112.612 6.88248L112.648 8.51496C112.899 8.17786 112.892 7.85137 113.143 7.51426C113.925 7.80893 114.707 8.10359 115.726 7.40816C116.243 7.38693 117.025 7.6816 117.534 7.33389C118.309 7.30205 118.309 7.30205 119.357 7.91261C119.608 7.5755 119.866 7.56489 120.117 7.22778C120.117 7.22778 120.117 7.22778 120.11 6.90128C120.11 6.90128 120.11 6.90128 120.117 7.22778C120.634 7.20656 120.634 7.20656 121.423 7.82773C121.408 7.17473 121.918 6.82701 122.184 7.1429C122.449 7.45879 122.435 6.80579 122.7 7.12168C122.958 7.11107 123.217 7.10046 123.468 6.76335C123.209 6.77397 122.944 6.45808 122.686 6.46868ZM123.992 7.06863C123.992 7.06863 124.25 7.05802 123.992 7.06863C124.25 7.05802 124.25 7.05802 123.992 7.06863C124.25 7.05802 123.992 7.06863 123.992 7.06863ZM124.752 6.3838C124.487 6.06792 124.487 6.06792 124.243 6.73152C124.501 6.72091 124.759 6.7103 124.752 6.3838C124.759 6.7103 124.752 6.3838 124.752 6.3838ZM125.527 6.35197C125.269 6.36259 125.276 6.68908 125.018 6.6997C125.025 7.02619 125.284 7.01558 125.549 7.33146L125.527 6.35197ZM125.793 6.66787C125.793 6.66787 125.8 6.99436 126.058 6.98375C126.051 6.65725 126.044 6.33076 125.793 6.66787ZM124.818 9.32232C125.076 9.31163 125.341 9.62755 125.341 9.62755C125.858 9.60635 126.117 9.59575 126.626 9.24804L126.36 8.93212C126.102 8.94273 126.102 8.94273 125.844 8.95333C125.844 8.95333 125.836 8.62684 125.57 8.31095L125.829 8.30034C125.821 7.97384 126.08 7.96324 126.08 7.96324C126.08 7.96324 126.338 7.95263 126.597 7.94201C126.066 7.31025 125.298 7.66857 124.781 7.68979C124.788 8.01628 124.788 8.01628 125.054 8.33218C124.796 8.34278 124.537 8.35339 124.272 8.03751C124.545 8.67989 124.552 9.00639 124.818 9.32232ZM126.346 8.27912C126.087 8.28974 126.353 8.60562 126.346 8.27912C126.353 8.60562 126.346 8.27912 126.346 8.27912ZM124.537 8.35339C124.523 7.7004 124.014 8.04812 123.755 8.05873C124.014 8.04812 124.279 8.36401 124.537 8.35339ZM123.246 8.40645C123.246 8.40645 123.511 8.72233 123.246 8.40645C123.511 8.72233 123.504 8.39584 123.504 8.39584L123.246 8.40645ZM123.526 9.37531C123.268 9.38591 123.268 9.38591 123.526 9.37531C123.268 9.38591 123.526 9.37531 123.526 9.37531ZM122.507 10.0707C122.766 10.0601 122.766 10.0601 122.507 10.0707C122.758 9.73362 122.758 9.73362 122.758 9.73362C122.758 9.73362 122.5 9.74422 122.507 10.0707ZM121.99 10.0919C121.998 10.4185 122.264 10.7344 122.507 10.0707C122.507 10.0707 122.249 10.0813 122.241 9.75491L122.235 9.42839C123.009 9.39651 122.729 8.42767 123.246 8.40645C123.246 8.40645 123.239 8.07995 123.497 8.06934C122.722 8.10117 122.722 8.10117 122.486 9.09127C122.227 9.10188 122.227 9.10188 121.969 9.11249C121.71 9.1231 121.984 9.76551 121.99 10.0919ZM121.718 9.44959C121.718 9.44959 121.459 9.46019 121.718 9.44959C121.459 9.46019 121.459 9.46019 121.459 9.46019C121.459 9.46019 121.459 9.46019 121.718 9.44959C121.459 9.46019 121.718 9.44959 121.718 9.44959ZM119.982 12.7889C119.717 12.4729 119.458 12.4835 119.207 12.8207C119.207 12.8207 119.473 13.1366 119.982 12.7889ZM119.666 10.1875C119.666 10.1875 119.658 9.86099 119.666 10.1875C119.658 9.86099 119.666 10.1875 119.666 10.1875ZM115.089 13.6435C114.83 13.6541 114.83 13.6541 115.089 13.6435C114.83 13.6541 114.83 13.6541 115.089 13.6435C114.83 13.6541 114.83 13.6541 115.089 13.6435ZM116.373 13.2639L116.631 13.2533C117.399 12.8949 118.174 12.8631 118.691 12.8419C118.691 12.8419 118.949 12.8313 118.941 12.5047C118.167 12.5366 117.134 12.579 116.359 12.6109C116.359 12.6109 116.359 12.6109 116.093 12.295C115.569 11.9898 114.801 12.3481 114.292 12.6958C115.075 12.9904 115.849 12.9586 116.373 13.2639ZM118.898 10.5458C118.898 10.5458 118.906 10.8723 118.898 10.5458V10.5458ZM115.798 10.6731C115.281 10.6944 114.765 10.7156 114.248 10.7368C114.773 11.0421 115.296 11.3473 115.798 10.6731ZM114.056 13.6858C114.034 12.7064 114.034 12.7064 113.517 12.7276C113 12.7488 112.742 12.7595 112.469 12.117C112.728 12.1064 112.728 12.1064 112.986 12.0958L112.211 12.1276C112.218 12.4541 111.967 12.7913 111.967 12.7913C112.232 13.1072 111.975 13.1178 111.716 13.1284C111.724 13.4549 111.981 13.4442 112.24 13.4336C112.749 13.0859 113.008 13.0753 113.015 13.4018C113.531 13.3806 113.79 13.37 114.056 13.6858ZM113.99 10.7474C113.731 10.758 113.731 10.758 113.731 10.758C113.731 10.758 113.739 11.0845 113.99 10.7474C113.997 11.0739 113.99 10.7474 113.99 10.7474ZM112.204 11.8011C112.204 11.8011 111.946 11.8118 112.204 11.8011C111.946 11.8118 111.946 11.8118 111.946 11.8118C111.946 11.8118 111.946 11.8118 112.204 11.8011ZM113.553 14.3601C113.288 14.0442 113.28 13.7177 113.015 13.4018C112.757 13.4124 112.757 13.4124 112.506 13.7495C113.029 14.0548 113.288 14.0442 113.553 14.3601ZM112.513 14.076C112.24 13.4336 112.247 13.7601 111.996 14.0972L112.513 14.076ZM111.709 12.8019C111.695 12.1488 111.178 12.1701 110.654 11.8648C110.661 12.1913 110.668 12.5178 110.668 12.5178L110.151 12.539C110.151 12.539 110.151 12.539 110.159 12.8655C110.417 12.8549 110.941 13.1602 111.199 13.1496C111.458 13.139 111.716 13.1284 111.709 12.8019ZM110.446 14.1609C110.705 14.1503 110.705 14.1503 110.446 14.1609C110.697 13.8238 110.439 13.8344 110.439 13.8344C110.439 13.8344 110.439 13.8344 110.446 14.1609ZM109.413 14.2033C109.671 14.1927 109.922 13.8556 110.174 13.5185C109.915 13.5291 109.406 13.8769 109.148 13.8875C109.148 13.8875 109.155 14.2139 109.413 14.2033ZM108.889 13.8981C108.889 13.8981 108.631 13.9087 108.624 13.5822C108.624 13.5822 108.624 13.5822 108.631 13.9087L108.889 13.8981ZM109.649 13.2133C109.908 13.2027 110.159 12.8655 110.396 11.8754C109.886 12.2231 109.635 12.5602 109.642 12.8867C109.126 12.9079 108.609 12.9292 108.344 12.6133C108.078 12.2974 108.093 12.9504 107.834 12.961C107.576 12.9716 107.318 12.9822 107.318 12.9822L107.325 13.3087C107.841 13.2875 108.616 13.2556 109.649 13.2133ZM107.023 11.3604C107.288 11.6762 107.79 11.002 108.07 11.971C108.322 11.6338 108.315 11.3073 108.307 10.9808C108.307 10.9808 108.307 10.9808 108.566 10.9702C109.089 11.2754 109.348 11.2648 109.85 10.5907C109.075 10.6225 108.293 10.3279 107.79 11.002C107.267 10.6968 106.485 10.402 105.717 10.7605C106.24 11.0657 106.765 11.371 107.023 11.3604ZM105.732 11.4134C105.738 11.7399 105.738 11.7399 105.738 11.7399C105.738 11.7399 105.738 11.7399 105.732 11.4134ZM105.997 11.7293C106.004 12.0558 106.004 12.0558 106.263 12.0451C106.521 12.0345 106.779 12.0239 106.779 12.0239L106.772 11.6974C106.772 11.6974 106.514 11.7081 106.506 11.3816C106.514 11.7081 106.255 11.7187 105.997 11.7293ZM109.104 11.9285C109.62 11.9073 109.62 11.9073 109.606 11.2542C109.355 11.5914 109.363 11.9179 109.104 11.9285ZM108.115 13.9299C108.115 13.9299 108.107 13.6034 108.115 13.9299C108.107 13.6034 108.115 13.9299 108.115 13.9299ZM107.347 14.2882C106.823 13.983 106.823 13.983 106.306 14.0042C106.571 14.3201 106.83 14.3095 107.347 14.2882ZM105.531 14.036C105.531 14.036 105.789 14.0254 106.048 14.0148C105.782 13.6989 105.782 13.6989 105.531 14.036C105.524 13.7095 105.531 14.036 105.531 14.036ZM104.534 15.7109C104.261 15.0685 104.261 15.0685 103.759 15.7427C104.018 15.7321 104.276 15.7215 104.534 15.7109ZM103.236 15.4375C102.977 15.4481 102.977 15.4481 103.236 15.4375C102.977 15.4481 102.977 15.4481 103.236 15.4375C102.977 15.4481 102.977 15.4481 103.236 15.4375ZM103.465 14.1208C103.716 13.7838 103.457 13.7944 103.199 13.805C103.206 14.1315 102.948 14.1421 102.963 14.7951C103.206 14.1315 103.465 14.1208 103.465 14.1208ZM104.225 13.4361C104.233 13.7625 104.498 14.0784 104.756 14.0678C105.266 13.7201 106.034 13.3618 106.557 13.667C106.557 13.667 106.816 13.6564 106.808 13.3299C106.55 13.3405 106.284 13.0247 105.768 13.0459C105.251 13.0671 104.993 13.0777 104.741 13.4148C104.735 13.0884 104.727 12.7619 104.72 12.4353C104.203 12.4565 103.959 13.1202 103.428 12.4884C103.428 12.4884 103.687 12.4778 103.679 12.1513C103.406 11.5089 103.163 12.1725 102.905 12.1831C102.654 12.5202 102.403 12.8573 102.144 12.8679L102.151 13.1945C102.919 12.8361 103.701 13.1308 104.225 13.4361ZM105.229 12.0876L104.971 12.0982L105.236 12.4141L105.229 12.0876ZM105.466 11.0976C105.458 10.7711 105.2 10.7817 105.193 10.4551C104.927 10.1393 104.418 10.487 103.916 11.1612C104.174 11.1506 104.174 11.1506 104.433 11.14L104.69 11.1294C104.698 11.4559 104.956 11.4453 104.964 11.7717C105.215 11.4346 105.215 11.4346 105.466 11.0976ZM102.683 13.8262C102.424 13.8368 102.424 13.8368 102.683 13.8262C102.424 13.8368 102.683 13.8262 102.683 13.8262ZM102.424 13.8368C102.166 13.8474 101.915 14.1845 101.656 14.1951C102.173 14.1739 102.173 14.1739 102.424 13.8368ZM101.692 15.8276L101.169 15.5224C101.176 15.8489 101.435 15.8382 101.692 15.8276ZM100.718 18.4821C100.718 18.4821 100.71 18.1555 100.718 18.4821C100.71 18.1555 100.718 18.4821 100.718 18.4821ZM101.133 13.8899C100.867 13.574 100.608 13.5846 100.358 13.9217L101.133 13.8899ZM100.372 14.5747L100.358 13.9217L100.107 14.2588C100.114 14.5853 100.114 14.5853 100.372 14.5747ZM99.863 14.9224C99.8556 14.5959 99.5897 14.28 99.5897 14.28C99.3312 14.2907 98.8225 14.6384 98.5641 14.649C98.8293 14.9648 99.3387 14.6171 99.863 14.9224ZM99.8406 13.943C99.8406 13.943 99.8339 13.6164 99.8406 13.943C99.5829 13.9536 99.5829 13.9536 99.5829 13.9536L99.8406 13.943ZM98.6509 18.5669C98.6509 18.5669 98.6441 18.2404 98.6509 18.5669C98.6441 18.2404 98.6441 18.2404 98.6441 18.2404C98.3857 18.251 98.3857 18.251 98.6509 18.5669C98.3857 18.251 98.6509 18.5669 98.6509 18.5669ZM97.818 15.9868C98.0689 15.6497 98.0689 15.6497 97.818 15.9868C97.8105 15.6603 97.8037 15.3338 97.8037 15.3338C97.8037 15.3338 97.8105 15.6603 97.818 15.9868C97.8105 15.6603 97.818 15.9868 97.818 15.9868ZM96.5265 16.0399C96.7849 16.0293 96.7775 15.7027 97.0359 15.6921C96.7775 15.7027 96.519 15.7133 96.5265 16.0399C96.519 15.7133 96.5265 16.0399 96.5265 16.0399ZM95.7444 15.7451C95.7444 15.7451 96.0028 15.7345 95.7444 15.7451C96.0028 15.7345 95.7369 15.4187 95.7444 15.7451C95.7369 15.4187 95.7444 15.7451 95.7444 15.7451ZM95.5219 17.3882C95.5151 17.0618 95.5151 17.0618 95.2567 17.0724L95.5219 17.3882ZM95.4785 15.4293L94.4455 15.4717C94.7256 16.4406 94.9691 15.777 95.4785 15.4293ZM93.9286 15.493L92.3787 15.5566C92.903 15.8619 93.4267 16.1671 93.9286 15.493ZM93.1174 13.8923C92.8664 14.2294 92.8664 14.2294 92.357 14.5771C93.1391 14.8717 93.1323 14.5453 93.1174 13.8923ZM92.6012 13.9135C92.3428 13.9242 92.0843 13.9348 92.0843 13.9348C92.0918 14.2612 92.0918 14.2612 92.6012 13.9135ZM92.1277 15.8937C91.8625 15.5779 91.8693 15.9043 92.1277 15.8937C91.8693 15.9043 91.8693 15.9043 92.1277 15.8937ZM92.106 14.9142C92.0986 14.5877 92.0986 14.5877 92.106 14.9142C91.8401 14.5983 91.8401 14.5983 91.5824 14.6089C91.5824 14.6089 91.8476 14.9248 92.106 14.9142ZM91.0947 15.9362C91.0947 15.9362 90.8363 15.9468 90.8288 15.6203C90.8288 15.6203 90.8288 15.6203 90.8363 15.9468C90.8363 15.9468 90.8362 15.9468 91.0947 15.9362ZM91.8184 13.6188C91.8116 13.2923 91.8116 13.2923 91.8042 12.9658C91.5457 12.9765 91.2805 12.6606 91.0221 12.6712C90.5052 12.6924 90.24 12.3765 89.7157 12.0712C89.4573 12.0818 89.4647 12.4083 89.2063 12.4189C89.4722 12.7349 89.4722 12.7349 89.7374 13.0508C89.2212 13.072 88.7044 13.0932 88.1875 13.1144C88.2024 13.7674 88.4608 13.7568 88.7186 13.7462C88.9845 14.062 89.2429 14.0514 89.5014 14.0408C89.4939 13.7143 89.2355 13.7249 89.228 13.3985C90.2617 13.356 91.0438 13.6506 91.8184 13.6188ZM91.2656 12.0075C91.0072 12.0182 91.0146 12.3447 90.7562 12.3553L90.5052 12.6924C90.5052 12.6924 90.5127 13.0189 90.5052 12.6924C90.5052 12.6924 90.7637 12.6818 90.7562 12.3553C91.0146 12.3447 91.2731 12.3341 91.2656 12.0075ZM90.4761 11.3864C89.9524 11.0812 89.1771 11.113 88.6752 11.7872C89.1921 11.766 89.9741 12.0606 90.4761 11.3864ZM87.693 14.1151C87.9514 14.1045 87.9582 14.431 88.4826 14.7363C88.4676 14.0832 88.2092 14.0939 87.693 14.1151ZM87.9148 12.472L87.9074 12.1455L87.9148 12.472ZM88.9987 14.7151C88.9987 14.7151 89.0062 15.0416 88.9987 14.7151C89.2646 15.0309 89.2572 14.7045 88.9987 14.7151C89.2572 14.7045 89.2572 14.7045 88.9987 14.7151ZM89.8174 16.6422C90.0684 16.3051 90.0616 15.9786 90.3126 15.6414C90.0616 15.9786 89.8032 15.9892 89.5448 15.9999C89.5522 16.3263 89.5522 16.3263 89.8174 16.6422ZM89.2863 16.0105C89.0204 15.6945 89.0204 15.6945 89.0279 16.0211L89.2863 16.0105ZM86.9978 17.7384C87.2562 17.7278 87.2562 17.7278 86.9978 17.7384C87.2487 17.4013 86.9903 17.4119 86.9978 17.7384C86.9903 17.4119 86.9903 17.4119 86.9978 17.7384ZM86.7102 16.443C87.4855 16.4112 88.0023 16.39 88.7769 16.3582C88.7769 16.3582 88.7769 16.3582 89.0279 16.0211C88.2533 16.0528 87.478 16.0847 86.7102 16.443C86.7034 16.1165 86.7102 16.443 86.7102 16.443ZM87.7005 14.4416L87.442 14.4522C87.442 14.4522 87.4488 14.7788 87.7005 14.4416C87.4488 14.7788 87.4488 14.7788 87.7005 14.4416ZM86.7468 18.0755C86.7468 18.0755 86.4883 18.0861 86.7468 18.0755C86.4883 18.0861 86.4883 18.0861 86.7468 18.0755ZM86.6667 14.484C86.6593 14.1575 86.4015 14.1682 86.4015 14.1682C86.4083 14.4946 86.6667 14.484 86.6667 14.484ZM86.9109 13.8204C87.1687 13.8098 87.4271 13.7992 87.6856 13.7886C87.4203 13.4727 87.4129 13.1463 87.4054 12.8197C86.8818 12.5144 86.896 13.1675 86.6376 13.1781C86.3798 13.1886 86.1139 12.8728 85.863 13.2098C85.863 13.2098 85.8555 12.8834 85.5971 12.894C85.5971 12.894 85.8555 12.8834 85.848 12.5569C85.5903 12.5675 85.0809 12.9152 84.564 12.9364C84.8299 13.2523 85.0809 12.9152 85.3536 13.5576C85.3678 14.2106 85.8847 14.1894 86.4083 14.4946C86.3941 13.8417 86.6525 13.8311 86.9109 13.8204ZM86.4449 16.1271C86.1865 16.1377 86.1865 16.1377 86.4449 16.1271C86.1865 16.1377 86.1865 16.1377 86.4449 16.1271C86.1865 16.1377 86.1865 16.1377 86.4449 16.1271ZM85.9281 16.1483L85.6696 16.159L85.9281 16.1483ZM85.4553 18.1285L85.7137 18.1179L85.4553 18.1285ZM85.1602 16.5067C85.1602 16.5067 85.1535 16.1802 85.1602 16.5067C85.1535 16.1802 85.1535 16.1802 85.1602 16.5067C85.1535 16.1802 85.1535 16.1802 85.1602 16.5067ZM82.5773 16.6128L82.8283 16.2757C82.8283 16.2757 82.8283 16.2757 82.563 15.9598C82.8283 16.2757 82.5698 16.2863 82.5773 16.6128ZM82.0754 17.287C82.3189 16.6234 82.0536 16.3075 81.5225 15.6757C81.5443 16.6552 81.5517 16.9817 82.0754 17.287ZM80.769 16.6871C80.7622 16.3606 80.7622 16.3606 80.7622 16.3606L80.769 16.6871ZM80.7405 15.3811C80.2236 15.4023 79.9577 15.0864 79.4415 15.1077C79.4483 15.4341 79.4483 15.4341 79.4558 15.7606C79.7142 15.75 80.2311 15.7288 80.7405 15.3811ZM80.2453 16.3818C79.9869 16.3924 79.7359 16.7295 79.219 16.7508C79.7434 17.056 80.0018 17.0454 80.2453 16.3818ZM78.4519 17.1091C78.4519 17.1091 78.7096 17.0985 78.4519 17.1091C78.7096 17.0985 78.7096 17.0985 78.4519 17.1091ZM75.639 18.5317C75.8974 18.5211 76.1559 18.5105 76.4143 18.4999C76.4143 18.4999 76.4143 18.4999 76.4068 18.1734C76.1484 18.184 75.8906 18.1946 75.6247 17.8788C75.6322 18.2052 75.6322 18.2052 75.639 18.5317ZM76.8945 16.8462C76.3709 16.5409 75.854 16.5621 75.0787 16.594C75.8757 17.5417 76.3851 17.194 76.8945 16.8462ZM74.0531 16.9629C74.0531 16.9629 74.3116 16.9523 74.3041 16.6258C74.3041 16.6258 74.3041 16.6258 74.2966 16.2993C74.0457 16.6364 74.0457 16.6364 74.0531 16.9629ZM72.7976 18.6485C72.7908 18.322 72.7908 18.322 72.7976 18.6485C72.7908 18.322 72.7908 18.322 72.7908 18.322C72.7908 18.322 72.5324 18.3326 72.7976 18.6485C72.5324 18.3326 72.7908 18.322 72.7976 18.6485ZM73.0418 17.9849C73.2853 17.3212 73.2778 16.9948 73.5295 16.6577C72.7617 17.016 72.5032 17.0266 72.2448 17.0372C72.5107 17.3531 73.0201 17.0054 73.0418 17.9849ZM72.4815 16.0471L71.19 16.1001C71.4478 16.0895 71.9721 16.3948 72.2306 16.3842C72.4883 16.3736 72.4883 16.3736 72.4815 16.0471ZM71.7354 17.3849C71.7279 17.0584 71.7211 16.732 71.4702 17.069C71.477 17.3955 71.477 17.3955 71.7354 17.3849ZM71.2477 18.7121C71.2409 18.3857 71.2409 18.3857 71.2409 18.3857C71.2409 18.3857 71.2409 18.3857 71.2477 18.7121ZM70.975 18.0697C70.9676 17.7432 71.2185 17.4061 70.9608 17.4167C70.6949 17.1009 70.4297 16.785 70.178 17.1221C70.4439 17.438 70.7098 17.7538 70.975 18.0697ZM70.2147 18.7546C70.2147 18.7546 70.2072 18.4281 70.2147 18.7546C70.2072 18.4281 70.2072 18.4281 70.2147 18.7546ZM69.927 17.4592C69.927 17.4592 69.9203 17.1327 69.927 17.4592C69.9203 17.1327 69.9203 17.1327 69.927 17.4592C69.6618 17.1433 69.6618 17.1433 69.927 17.4592C69.6618 17.1433 69.927 17.4592 69.927 17.4592ZM69.6401 16.1638L70.4147 16.132L69.6401 16.1638ZM68.6356 17.5123C68.894 17.5016 68.8865 17.1752 69.145 17.1646C69.145 17.1646 69.145 17.1646 69.1375 16.838C68.8865 17.1752 68.6281 17.1858 68.6356 17.5123ZM69.109 15.5321C68.8574 15.8692 68.8574 15.8692 68.8648 16.1956L69.1233 16.185C69.1233 16.185 69.1158 15.8586 69.109 15.5321ZM67.861 17.5441C67.861 17.5441 67.8535 17.2175 67.861 17.5441C67.8535 17.2175 67.5951 17.2281 67.861 17.5441C67.5951 17.2281 67.5951 17.2281 67.861 17.5441C67.5951 17.2281 67.6025 17.5547 67.861 17.5441ZM65.0193 17.6607C65.2776 17.6501 65.2776 17.6501 65.0193 17.6607C65.2776 17.6501 65.2776 17.6501 65.0193 17.6607ZM64.761 17.6714C64.7537 17.3449 64.7537 17.3449 64.4954 17.3555C64.5026 17.682 64.5026 17.682 64.761 17.6714ZM63.4694 17.7244L63.7278 17.7138L63.4694 17.7244ZM63.957 16.3972C63.1602 15.4496 63.1602 15.4496 63.6478 14.1224C63.3895 14.133 63.1384 14.4701 62.8802 14.4807C62.3708 14.8284 61.8542 14.8496 61.3302 14.5444L61.0719 14.555C60.046 14.9239 60.046 14.9239 59.7586 13.6285C59.5003 13.6391 59.2419 13.6497 58.9836 13.6603L58.9981 14.3134C59.5148 14.2922 59.7876 14.9345 60.0532 15.2504C60.3188 15.5662 60.3333 16.2193 60.5989 16.5352C60.5989 16.5352 60.5989 16.5352 60.6062 16.8616L61.3811 16.8298C61.3739 16.5033 61.3665 16.1768 61.3593 15.8504C61.101 15.861 61.101 15.861 60.8499 16.1981C60.8427 15.8716 60.8354 15.5451 60.8282 15.2185C61.6104 15.5133 61.6104 15.5133 62.6509 15.7973C62.6509 15.7973 62.6509 15.7973 62.9092 15.7867L62.6581 16.1238C62.3998 16.1344 62.1342 15.8185 62.1487 16.4715C62.6654 16.4503 63.4404 16.4184 63.957 16.3972ZM60.0895 16.8829C60.0895 16.8829 60.0968 17.2093 60.0895 16.8829C60.3551 17.1987 60.3479 16.8722 60.6062 16.8616C60.3479 16.8722 60.3405 16.5458 60.0895 16.8829ZM62.7017 18.0827C62.6944 17.7563 62.6944 17.7563 62.6944 17.7563C62.6944 17.7563 62.6944 17.7563 62.4434 18.0933L62.7017 18.0827ZM61.9268 18.1146C62.1851 18.104 62.1851 18.104 61.9268 18.1146C62.1851 18.104 61.9268 18.1146 61.9268 18.1146ZM62.4144 16.7874C62.4144 16.7874 62.4071 16.4609 62.1487 16.4715C62.1487 16.4715 61.8904 16.4821 61.8832 16.1556C61.8977 16.8086 61.8977 16.8086 62.4144 16.7874ZM60.9226 19.463C60.6643 19.4736 60.6643 19.4736 60.9226 19.463C60.6643 19.4736 60.6643 19.4736 60.9226 19.463ZM60.4059 19.4843L60.1404 19.1684C60.1476 19.4949 60.4059 19.4843 60.4059 19.4843ZM61.4029 17.8093C60.8862 17.8306 60.3769 18.1783 59.8602 18.1995C61.1591 18.4729 61.1591 18.4729 61.4029 17.8093ZM59.5583 16.2511C59.3073 16.5882 59.3073 16.5882 59.0563 16.9253L59.3218 17.2412C60.075 16.2299 60.075 16.2299 59.5293 14.9451C59.5293 14.9451 59.271 14.9557 59.02 15.2928C59.0127 14.9664 59.0054 14.6399 58.9981 14.3134L58.7398 14.324C58.7471 14.6505 59.0127 14.9664 58.7616 15.3034C58.7689 15.6299 58.5178 15.967 58.5251 16.2936C59.0417 16.2724 59.0417 16.2724 59.5583 16.2511ZM58.7253 13.671L55.3672 13.8089C55.6401 14.4513 55.8984 14.4407 56.1567 14.43C56.9244 14.0717 57.441 14.0505 58.2159 14.0187C58.4743 14.008 58.7326 13.9974 58.7253 13.671ZM58.7907 16.6094C58.5323 16.6201 58.274 16.6307 58.2813 16.9571C58.023 16.9678 58.023 16.9678 57.7647 16.9784C58.5469 17.273 58.5469 17.273 58.7907 16.6094ZM57.5354 18.295C57.5354 18.295 57.7937 18.2844 57.5354 18.295C57.7937 18.2844 57.5354 18.295 57.5354 18.295ZM57.7501 16.3254C57.7429 15.9988 57.7429 15.9988 57.7356 15.6724C57.994 15.6618 58.2523 15.6511 58.5106 15.6405C58.5106 15.6405 58.5106 15.6405 58.5033 15.3141C58.245 15.3247 58.2378 14.9982 57.9794 15.0088L58.2305 14.6717C57.4555 14.7036 57.4555 14.7036 57.2118 15.3671C57.2118 15.3671 56.9607 15.7042 56.7024 15.7148C56.9825 16.6837 57.4991 16.6625 57.7501 16.3254ZM56.5095 18.6639C56.5095 18.6639 56.7605 18.3268 56.5095 18.6639C56.7605 18.3268 56.5022 18.3374 56.5095 18.6639C56.5022 18.3374 56.5022 18.3374 56.5095 18.6639ZM56.4658 16.705L56.2075 16.7156C56.2075 16.7156 56.2075 16.7156 56.4658 16.705C56.2075 16.7156 56.4658 16.705 56.4658 16.705ZM56.2293 17.695C56.2221 17.3685 56.2221 17.3685 56.2293 17.695C56.2221 17.3685 55.9638 17.3791 56.2293 17.695C55.971 17.7056 56.2293 17.695 56.2293 17.695ZM54.9595 18.7276C54.9595 18.7276 54.9523 18.401 54.9595 18.7276C54.9523 18.401 54.9523 18.401 54.9595 18.7276C54.9523 18.401 54.694 18.4116 54.9595 18.7276C54.9523 18.401 54.9595 18.7276 54.9595 18.7276ZM53.3879 17.8117C53.3879 17.8117 53.3806 17.4853 53.3879 17.8117C53.3806 17.4853 53.3806 17.4853 53.3879 17.8117C53.3806 17.4853 53.3806 17.4853 53.3879 17.8117ZM54.1337 16.4739C54.141 16.8004 54.1483 17.127 54.1556 17.4534C54.4138 17.4428 54.4138 17.4428 54.4066 17.1163C54.3993 16.7898 54.3921 16.4633 54.3848 16.1368C54.9087 16.4421 55.167 16.4315 55.4326 16.7474C55.6909 16.7368 55.9492 16.7262 55.942 16.3996C56.193 16.0625 56.4513 16.0519 56.7024 15.7148C56.6951 15.3883 56.4296 15.0725 56.1785 15.4096C55.9201 15.4202 55.9201 15.4202 55.4108 15.7679C55.6618 15.4308 55.9201 15.4202 55.9201 15.4202C55.9201 15.4202 55.9201 15.4202 55.6618 15.4308C55.1524 15.7785 54.6359 15.7997 54.1265 16.1474C53.8754 16.4845 53.3516 16.1793 53.1005 16.5164C52.8422 16.527 52.8422 16.527 52.5839 16.5376C52.3255 16.5482 52.3255 16.5482 52.0745 16.8853C52.8422 16.527 53.6171 16.4951 54.1337 16.4739ZM55.1234 14.4725C55.1234 14.4725 55.1162 14.146 55.1234 14.4725C55.1162 14.146 55.1162 14.146 55.1234 14.4725ZM54.0684 13.5354C53.8028 13.2196 53.81 13.546 53.5517 13.5566L54.0684 13.5354ZM52.8712 17.833C52.8639 17.5065 52.8567 17.1799 52.8494 16.8534C52.5911 16.8641 52.3255 16.5482 52.3401 17.2011C52.3474 17.5277 52.0891 17.5383 52.0963 17.8648C52.3474 17.5277 52.6202 18.1701 52.8712 17.833ZM50.5682 18.9079L49.5349 18.9504C50.0661 19.5822 50.3099 18.9185 50.5682 18.9079ZM49.5349 18.9504C49.2694 18.6345 49.2621 18.308 49.0183 18.9716L49.5349 18.9504ZM49.4913 16.9914C49.7497 16.9808 50.0007 16.6437 50.259 16.6331C50.5173 16.6225 50.7757 16.6119 51.034 16.6013L51.0485 17.2542C50.7902 17.2648 50.7902 17.2648 50.5246 16.949C50.5319 17.2754 50.2735 17.2861 50.2808 17.6125C51.3141 17.5701 51.3141 17.5701 51.2995 16.9171C51.5579 16.9065 51.8162 16.8959 52.0672 16.5588C51.8017 16.2429 51.536 15.927 51.7799 15.2634C51.5434 16.2536 51.2923 16.5906 51.034 16.6013C50.259 16.6331 49.2258 16.6756 48.1925 16.718C48.4581 17.0339 48.4654 17.3603 48.7237 17.3497C48.982 17.3391 49.2403 17.3285 49.4913 16.9914ZM49.2112 16.0225C48.9529 16.0331 48.9529 16.0331 49.2112 16.0225C48.9602 16.3596 48.9602 16.3596 49.2112 16.0225C49.2185 16.349 49.2185 16.349 49.2112 16.0225ZM47.9996 19.667C47.9996 19.667 47.9923 19.3405 47.9996 19.667C47.9923 19.3405 47.9923 19.3405 47.9996 19.667C47.9923 19.3405 47.9923 19.3405 47.9996 19.667C47.9923 19.3405 47.9996 19.667 47.9996 19.667ZM48.4726 17.6868C48.207 17.371 47.9487 17.3816 47.6977 17.7187C47.9705 18.3611 48.2288 18.3505 48.4726 17.6868ZM47.1955 18.3928L47.4539 18.3822C47.1955 18.3928 46.93 18.077 46.93 18.077C46.93 18.077 46.93 18.077 46.9372 18.4035C46.93 18.077 47.1883 18.0664 47.1955 18.3928ZM46.6571 17.4346L46.9082 17.0975C46.9082 17.0975 46.9082 17.0975 46.6571 17.4346ZM44.3541 18.5096L45.129 18.4777L44.3541 18.5096ZM43.0625 18.5626L44.0958 18.5202C44.0813 17.8672 43.3208 18.552 43.5574 17.5619C44.5834 17.193 45.8822 17.4665 46.8864 16.118C46.8936 16.4445 47.1593 16.7604 47.1593 16.7604C47.4176 16.7498 47.4176 16.7498 47.9415 17.0551C47.6686 16.4127 47.6686 16.4127 47.3958 15.7703C46.6281 16.1286 45.8459 15.834 45.3438 16.5082C45.3438 16.5082 45.3438 16.5082 45.0854 16.5188C44.8199 16.2029 44.8199 16.2029 44.5761 16.8665C44.5761 16.8665 44.5688 16.54 44.3105 16.5506C44.0522 16.5612 44.0594 16.8877 43.8011 16.8983C43.8084 17.2248 43.5429 16.9089 43.2846 16.9196C42.5169 17.2779 43.048 17.9097 43.0625 18.5626ZM46.6063 15.1491L46.3407 14.8332C46.0897 15.1703 46.0969 15.4969 45.8459 15.834L46.0969 15.4969C46.3553 15.4863 46.3553 15.4863 46.6063 15.1491ZM45.5731 15.1915L44.2814 15.2446C44.5471 15.5605 44.8054 15.5499 44.8054 15.5499C45.0637 15.5393 45.322 15.5286 45.5731 15.1915ZM43.7721 15.5923C44.0304 15.5817 44.0304 15.5817 43.7721 15.5923C44.0304 15.5817 43.7721 15.5923 43.7721 15.5923ZM43.7939 16.5718C43.7866 16.2454 43.7866 16.2454 43.7939 16.5718C43.7866 16.2454 43.7866 16.2454 43.7939 16.5718ZM43.2555 15.6135C42.9972 15.6242 42.9972 15.6242 43.2555 15.6135C42.9972 15.6242 43.2555 15.6135 43.2555 15.6135ZM42.0366 18.9316L42.2949 18.921L41.5199 18.9528C41.7783 18.9422 42.0366 18.9316 42.0366 18.9316ZM40.4794 18.6688C40.4721 18.3423 40.4649 18.0157 40.7159 17.6786C40.9815 17.9945 41.2471 18.3105 41.5126 18.6263C41.5054 18.2998 41.4981 17.9733 41.7492 17.6362C42.0075 17.6256 42.2731 17.9415 42.797 18.2468C42.5241 17.6043 42.5169 17.2779 42.2512 16.962L41.218 17.0045C41.2252 17.3309 41.2252 17.3309 41.2325 17.6574C40.4649 18.0157 40.4649 18.0157 40.1775 16.7204C39.6609 16.7416 39.6609 16.7416 40.4794 18.6688ZM42.4732 15.3189C42.2077 15.003 42.2077 15.003 42.4732 15.3189C42.215 15.3295 42.215 15.3295 42.4732 15.3189C42.215 15.3295 42.215 15.3295 42.4732 15.3189ZM42.2222 15.656C41.9639 15.6666 41.7055 15.6772 41.7055 15.6772C41.1962 16.0249 40.9379 16.0355 40.414 15.7303C40.6796 16.0461 40.6941 16.6992 41.2107 16.678C41.1962 16.0249 41.4545 16.0143 41.7129 16.0037C41.9712 15.9931 42.2295 15.9825 42.2222 15.656ZM38.4274 19.4066C38.4274 19.4066 38.4274 19.4066 38.6857 19.396C38.4274 19.4066 38.4201 19.0802 38.1618 19.0908C38.4201 19.0802 38.4274 19.4066 38.4274 19.4066ZM38.1545 18.7642C38.1545 18.7642 38.4056 18.4271 38.1545 18.7642C38.1473 18.4377 38.1473 18.4377 38.1545 18.7642C38.1473 18.4377 38.1473 18.4377 38.1545 18.7642C38.1473 18.4377 38.1545 18.7642 38.1545 18.7642ZM38.915 18.0794C38.6422 17.4371 38.6422 17.4371 38.14 18.1112L38.915 18.0794ZM38.8496 15.1409C39.1079 15.1303 39.3662 15.1197 39.6245 15.1091C40.1484 15.4144 40.6578 15.0667 41.4327 15.0349C41.691 15.0243 41.9494 15.0137 42.2077 15.003L42.4587 14.666C42.9826 14.9712 43.492 14.6235 44.2742 14.9181C44.7909 14.8969 45.5585 14.5386 46.0751 14.5174C46.0751 14.5174 46.3262 14.1803 46.3189 13.8538L46.5772 13.8432L46.8356 13.8326C47.1084 14.4749 46.8283 13.506 47.0939 13.822C47.0939 13.822 47.1011 14.1484 47.1084 14.4749C47.1084 14.4749 46.5918 14.4961 46.8646 15.1385C46.8646 15.1385 47.1229 15.1279 47.3813 15.1173C47.8979 15.0961 48.1562 15.0855 48.6728 15.0643C49.1895 15.0431 49.4623 15.6854 49.7206 15.6748C50.2445 15.98 50.7684 16.2854 51.2777 15.9376C51.2632 15.2846 51.2632 15.2846 50.7393 14.9794C50.7321 14.6529 50.7321 14.6529 50.7248 14.3263C50.9831 14.3157 51.2341 13.9786 51.4925 13.968C51.4925 13.968 51.4998 14.2946 51.2415 14.3052C52.0309 14.9263 52.5403 14.5786 53.0424 13.9044C53.0351 13.5779 53.2934 13.5673 53.2862 13.2408C52.7695 13.262 52.5112 13.2726 51.9946 13.2938C51.9873 12.9674 51.9873 12.9674 51.9801 12.6409C52.4966 12.6197 52.755 12.609 53.2716 12.5878C53.2643 12.2613 53.2571 11.9348 52.9988 11.9454L55.0653 11.8606C54.807 11.8712 54.2903 11.8923 54.032 11.9029C54.5487 11.8817 54.8143 12.1977 55.0871 12.84C55.862 12.8082 56.3714 12.4605 57.1464 12.4286C56.9026 13.0923 56.9026 13.0923 56.6442 13.1028C56.3569 11.8075 57.3974 12.0915 57.9067 11.7438C57.914 12.0703 57.9213 12.3968 57.9358 13.0498C57.6702 12.7339 57.6702 12.7339 57.4119 12.7445C57.1536 12.7551 57.1609 13.0817 56.9026 13.0923L56.9098 13.4188C57.4192 13.0711 57.9358 13.0498 58.4524 13.0286C58.7108 13.018 58.9691 13.0074 59.2274 12.9968C60.2534 12.6278 61.0283 12.596 62.0688 12.88C61.5595 13.2277 61.3012 13.2384 60.7773 12.9331C60.2534 12.6278 60.2606 12.9543 60.2825 13.9338C60.5335 13.5967 60.5335 13.5967 60.7846 13.2596C61.5668 13.5542 62.0834 13.533 62.8511 13.1747C63.1094 13.1641 63.3677 13.1534 63.3677 13.1534C63.8916 13.4588 64.652 12.7739 65.1832 13.4057C65.1832 13.4057 65.4415 13.3951 65.6998 13.3845C65.427 12.7421 64.9176 13.0899 64.6593 13.1005C64.401 13.1111 63.8843 13.1322 63.626 13.1428C63.6115 12.4899 63.877 12.8057 64.1354 12.7951C64.9176 13.0899 65.6852 12.7315 66.7185 12.6891C66.9769 12.6785 67.2352 12.6679 67.2279 12.3413C66.9696 12.3519 66.7112 12.3625 66.4457 12.0467C67.2134 11.6883 67.7375 11.9936 68.2394 11.3194C67.4572 11.0248 66.9478 11.3725 66.1656 11.0778C66.1583 10.7513 66.1583 10.7513 66.4093 10.4142C65.8855 10.1089 65.1105 10.1408 64.3428 10.4991C65.1033 9.81426 65.6271 10.1195 66.1438 10.0983C66.6604 10.0771 67.4281 9.71879 67.9444 9.6975C68.4613 9.6763 68.9781 9.6551 69.7527 9.62331C70.2696 9.60202 71.0442 9.57023 71.5611 9.54903C72.0779 9.52774 72.8525 9.49594 73.3769 9.80127C72.86 9.82246 72.3431 9.84366 72.0847 9.85426C71.827 9.86486 71.8337 10.1914 71.8412 10.5179C72.0996 10.5073 72.6233 10.8125 72.8817 10.8019L71.3318 10.8656C71.3318 10.8656 71.3318 10.8656 71.3393 11.1921C71.5977 11.1814 71.5977 11.1814 71.8629 11.4974C71.0951 11.8557 70.0546 11.5716 69.8328 13.2147C70.3496 13.1935 70.3496 13.1935 70.5857 12.2034L71.361 12.1716C70.8516 12.5193 70.5931 12.5299 70.3422 12.867C70.859 12.8458 71.1242 13.1616 71.3827 13.151C71.3827 13.151 71.8995 13.1299 71.6262 12.4875L71.6194 12.161L71.8778 12.1504C71.8846 12.4768 72.1505 12.7927 72.158 13.1193C72.6667 12.7715 72.394 12.1291 72.6382 11.4656C72.9034 11.7814 72.9034 11.7814 72.9109 12.1079C72.9183 12.4344 72.9251 12.7609 72.9251 12.7609C72.9326 13.0874 73.1985 13.4033 73.4494 13.0662C73.7079 13.0556 73.9656 13.045 74.2166 12.7079C74.7335 12.6867 75.2429 12.3389 75.7665 12.6442C75.7665 12.6442 75.7665 12.6442 76.0182 12.3071C76.0182 12.3071 75.7597 12.3177 75.2354 12.0124C76.2617 11.6435 77.0437 11.9381 77.5606 11.917C77.3096 12.2541 76.7853 11.9487 76.5418 12.6124C76.2834 12.623 76.2834 12.623 76.2908 12.9495C76.0399 13.2866 76.0541 13.9396 76.069 14.5926C76.069 14.5926 75.8106 14.6032 75.5522 14.6138C75.5447 14.2873 75.5447 14.2873 75.5372 13.9608C75.2795 13.9714 74.7552 13.6661 74.4967 13.6767C74.2675 14.9933 74.0097 15.004 72.9618 14.3933C73.2202 14.3827 73.4786 14.3722 73.7364 14.3616C73.7364 14.3616 73.7364 14.3616 73.7296 14.035C72.9543 14.0669 72.1797 14.0987 71.1392 13.8147C70.6366 14.4889 69.596 14.2048 68.8214 14.2367C68.3046 14.2579 67.7884 14.2791 67.2788 14.6268C67.2715 14.3004 67.5299 14.2897 67.5225 13.9632C67.5225 13.9632 66.7549 14.3216 66.2455 14.6693C66.2455 14.6693 66.2455 14.6693 66.2528 14.9958C66.2528 14.9958 66.2528 14.9958 66.2455 14.6693C65.7216 14.3639 65.2049 14.3852 64.9467 14.3958L64.9539 14.7224C65.2122 14.7117 65.2122 14.7117 65.7361 15.017C65.2195 15.0382 64.9612 15.0488 64.7029 15.0594C64.6956 14.733 64.4446 15.0701 64.1862 15.0807C64.179 14.7541 63.9207 14.7647 63.9134 14.4382C63.6551 14.4488 63.6551 14.4488 63.6551 14.4488C63.6624 14.7753 63.4113 15.1125 63.4186 15.439C63.9352 15.4178 64.1935 15.4071 64.7101 15.3859C64.7174 15.7124 64.7246 16.0389 64.7246 16.0389C64.7246 16.0389 64.7246 16.0389 64.9829 16.0283C65.234 15.6912 65.2267 15.3647 65.4778 15.0276C65.4851 15.3541 65.7434 15.3435 65.7506 15.6699C66.26 15.3222 66.5111 14.9852 67.0423 15.6169C67.3006 15.6063 67.8169 15.585 68.0753 15.5745C68.0753 15.5745 68.0753 15.5745 68.0685 15.2479C67.8026 14.9321 67.5442 14.9427 67.2788 14.6268C67.5225 13.9632 68.0611 14.9215 68.312 14.5844C68.563 14.2473 68.563 14.2473 68.814 13.9102L69.5893 13.8784C69.3308 13.889 69.0724 13.8996 68.8214 14.2367C68.8357 14.8896 68.8431 15.2161 68.8431 15.2161C69.36 15.1949 69.8911 15.8267 70.1346 15.1631C70.4073 15.8055 70.9167 15.4578 71.4335 15.4366C71.692 15.4259 71.9504 15.4153 72.2088 15.4047C72.4666 15.3941 72.4741 15.7206 72.4815 16.0471C72.7399 16.0364 72.7467 16.363 73.0052 16.3524L73.2636 16.3418C73.5071 15.6781 74.024 15.6569 74.2749 15.3198C73.7581 15.341 73.4854 14.6987 72.9835 15.3729C72.976 15.0464 72.7176 15.057 72.7108 14.7305C72.9543 14.0669 73.4854 14.6987 73.7438 14.6881C74.2607 14.6669 74.5191 14.6562 75.2937 14.6244C75.0428 14.9615 75.0502 15.288 74.7993 15.6251L75.8323 15.5827C75.8248 15.2561 75.8248 15.2561 75.8174 14.9297C76.3342 14.9084 76.0975 15.8986 76.6144 15.8774L76.8728 15.8667C77.1163 15.2031 77.6406 15.5084 77.9059 15.8243C78.1568 15.4872 77.6257 14.8554 78.401 14.8235C78.4078 15.1501 78.4153 15.4766 78.6812 15.7924C79.1906 15.4447 78.6662 15.1395 78.9104 14.4758C79.6925 14.7706 80.2161 15.0758 80.733 15.0546C81.2566 15.3598 82.017 14.6751 82.5413 14.9803L82.2755 14.6644C82.017 14.675 81.5008 14.6963 80.984 14.7175C81.4859 14.0432 82.0028 14.022 82.5196 14.0008L82.7849 14.3167C83.0433 14.3061 83.0358 13.9796 83.2943 13.969C83.5669 14.6114 83.8328 14.9272 84.349 14.906C84.3565 15.2325 84.6149 15.2219 84.6149 15.2219C84.8584 14.5583 85.1243 14.8742 85.6337 14.5265C85.6262 14.2 84.8516 14.2318 85.0951 13.5683C84.8299 13.2523 84.564 12.9364 84.0404 12.6312C83.782 12.6418 83.7894 12.9683 83.531 12.9789C83.5235 12.6524 83.5161 12.3259 83.5161 12.3259C84.0187 11.6517 84.8075 12.2729 85.5754 11.9146C85.5754 11.9146 85.5679 11.588 85.8196 11.2509C85.8338 11.9039 86.3507 11.8827 86.8669 11.8615C87.3837 11.8403 87.9074 12.1455 88.4025 11.1448C88.1441 11.1554 87.8857 11.166 87.6347 11.5032C87.6272 11.1766 87.6272 11.1766 87.6204 10.8501L87.8789 10.8395C88.9194 11.1236 89.6865 10.7652 90.727 11.0493C90.9855 11.0387 91.2439 11.0281 91.7608 11.0069C91.5098 11.344 91.5098 11.344 91.2581 11.6811C91.775 11.6598 92.0334 11.6492 92.5428 11.3015C92.2844 11.3121 92.0185 10.9963 92.0117 10.6698C92.5279 10.6486 92.7796 10.3115 93.0522 10.9538L92.8013 11.2909C93.5908 11.9121 94.358 11.5538 95.3985 11.8378C94.6313 12.1962 94.107 11.8909 93.6125 12.8916L93.3541 12.9022C93.0882 12.5863 93.0814 12.2598 92.8304 12.5969C92.572 12.6075 92.321 12.9446 92.0626 12.9552C92.0626 12.9552 91.8116 13.2923 91.8184 13.6188C92.0769 13.6082 92.6012 13.9135 92.8589 13.9029C93.3758 13.8817 94.1511 13.8499 94.6673 13.8286C95.1841 13.8074 95.7078 14.1127 96.2321 14.418C95.9737 14.4286 95.9737 14.4286 95.7152 14.4391C95.1916 14.1339 94.4163 14.1657 93.9069 14.5134C93.6417 14.1976 93.6417 14.1976 93.3758 13.8817C93.1248 14.2188 93.1323 14.5453 93.1391 14.8717L93.3975 14.8611C93.9144 14.8399 94.1728 14.8293 94.6822 14.4816C94.9399 14.471 94.9399 14.471 95.1984 14.4604C95.9805 14.7551 96.4899 14.4074 97.2651 14.3756C97.5304 14.6914 97.7888 14.6808 98.0547 14.9967C98.0472 14.6702 97.782 14.3543 97.7746 14.0278C98.0255 13.6907 98.0255 13.6907 98.2765 13.3536C98.284 13.6801 98.2839 13.6801 98.2907 14.0066C98.8001 13.6588 99.317 13.6376 100.092 13.6059C100.608 13.5846 101.391 13.8793 101.893 13.2051C102.388 12.2043 102.388 12.2043 103.163 12.1725C103.155 11.846 103.148 11.5195 103.141 11.193C103.399 11.1824 103.399 11.1824 103.657 11.1718C103.65 10.8453 103.643 10.5188 103.894 10.1817C105.193 10.4551 106.47 9.74911 107.784 10.6756C108.293 10.3279 108.802 9.98015 109.584 10.2748C109.85 10.5907 110.366 10.5694 110.876 10.2217C111.644 9.86338 112.426 10.1581 113.2 10.1262C113.976 10.0944 114.499 10.3997 115.267 10.0413C115.526 10.0307 115.784 10.0201 116.042 10.0095C116.3 9.99895 116.817 9.97766 117.334 9.95646C117.326 9.62994 117.326 9.62994 117.061 9.31412C116.817 9.97766 117.075 9.96706 117.341 10.283C117.599 10.2724 117.85 9.93527 118.367 9.91407C117.836 9.28223 117.577 9.29283 116.02 9.03003C117.046 8.66109 117.828 8.95576 118.604 8.92393C118.61 9.25044 118.625 9.90338 119.149 10.2087C119.142 9.88218 119.4 9.87158 119.393 9.54507C119.393 9.54507 119.651 9.53447 119.658 9.86099C120.182 10.1662 120.706 10.4715 121.216 10.1238C120.943 9.48138 120.175 9.83979 119.895 8.87087L121.704 8.7966C121.696 8.47011 121.43 8.15422 121.423 7.82773C120.907 7.84894 120.397 8.19666 119.88 8.21788C119.364 8.23911 119.098 7.92321 118.582 7.94444C118.065 7.96565 117.814 8.30276 117.297 8.32398C117.039 8.33459 116.515 8.02931 116.257 8.03993C115.998 8.05054 115.733 7.73466 115.482 8.07175C114.98 8.74597 114.456 8.44069 113.681 8.47252C113.164 8.49375 112.906 8.50436 112.389 8.52558C112.375 7.87258 112.361 7.21959 112.346 6.5666C112.087 6.57721 111.829 6.58782 111.571 6.59843C110.796 6.63026 110.014 6.3356 109.238 6.36743C109.238 6.36743 109.232 6.04093 108.973 6.05154C108.981 6.37804 108.722 6.38864 108.722 6.38864C107.689 6.43108 106.648 6.14703 105.615 6.18947L105.357 6.20008C104.589 6.55841 103.549 6.27436 102.774 6.30618C102.272 6.98039 101.992 6.01152 101.482 6.35924C100.973 6.70695 100.973 6.70695 100.183 6.08579C99.9248 6.0964 99.6738 6.43351 99.4154 6.44411C98.8917 6.13884 98.3681 5.83356 98.1022 5.51768L98.3681 5.83356C97.0908 6.53961 96.0503 6.25556 94.7514 5.9821C94.493 5.99272 94.4929 5.99272 94.2345 6.00333C93.7251 6.35104 93.2089 6.37227 92.6921 6.39348C92.4336 6.4041 92.4336 6.4041 92.1752 6.41471C91.9242 6.75181 91.4081 6.77304 91.1422 6.45714C90.8837 6.46776 90.6253 6.47837 90.3675 6.48898C89.8507 6.5102 89.0828 6.86852 88.566 6.88975C88.3008 6.57385 88.2933 6.24736 88.0281 5.93147C88.0349 6.25797 88.0349 6.25797 88.0423 6.58447C88.0423 6.58447 88.0423 6.58447 87.7839 6.59508C87.2677 6.6163 86.7434 6.31103 86.2415 6.98524C86.2415 6.98524 85.983 6.99585 85.7178 6.67996C85.7178 6.67996 85.4519 6.36407 85.4594 6.69057C84.4331 7.05951 83.1342 6.78606 82.1011 6.82851C81.5843 6.84972 81.0606 6.54445 80.8096 6.88155C80.5512 6.89216 80.0344 6.91338 80.0276 6.58689C79.7766 6.92399 79.7834 7.25049 79.5324 7.5876C79.0162 7.60882 78.7503 7.29293 78.2335 7.31416C77.7241 7.66187 76.9495 7.6937 76.6693 6.72482L76.4184 7.06193C76.4258 7.38843 76.1742 7.72553 75.9164 7.73614C75.658 7.74675 75.3996 7.75736 74.8827 7.77858C74.3665 7.7998 73.8496 7.82103 73.3328 7.84224C73.0743 7.85285 73.075 7.85285 72.8166 7.86347C72.5582 7.87407 72.0413 7.8953 71.7829 7.90591C71.0157 8.26423 70.4914 7.95895 69.7093 7.66429C69.4434 7.3484 69.4509 7.6749 69.4509 7.6749C68.6905 8.35972 68.1669 8.05445 67.3845 7.75978L67.3773 7.43329C67.1189 7.4439 66.8679 7.781 66.6096 7.79161C66.6023 7.46511 66.6096 7.79161 66.0929 7.81283C65.8419 8.14994 65.3253 8.17116 64.8086 8.19238C64.292 8.2136 63.7899 8.88781 63.2515 7.92954C62.7349 7.95077 62.4765 7.96138 61.9672 8.30909C61.7088 8.31971 61.1777 7.68793 60.9339 8.35153C60.4173 8.37275 60.159 8.38336 59.6423 8.40458C59.1257 8.42581 58.8601 8.10992 58.3435 8.13114C58.3435 8.13114 58.3508 8.45763 58.0997 8.79474C57.3248 8.82657 56.2915 8.86901 55.5166 8.90084C54.2249 8.9539 52.6751 9.01756 51.3907 9.39706L51.1325 9.40775C50.3502 9.11305 49.5825 9.47134 48.542 9.18731C48.0254 9.2085 47.7743 9.54562 47.7817 9.87214C47.7743 9.54562 47.5088 9.22979 47.2577 9.56691C46.9995 9.57751 47.0067 9.90393 46.7483 9.91462C45.9735 9.94642 45.7151 9.95702 45.1912 9.65179L45.1985 9.97821C44.9401 9.98881 44.4163 9.68358 44.158 9.69418C44.158 9.69418 44.158 9.69418 43.8996 9.70478C43.8996 9.70478 43.8996 9.70478 44.158 9.69418L43.8924 9.37826C43.1319 10.0631 42.6153 10.0844 41.8331 9.78965C41.5748 9.80025 41.3165 9.81094 41.0582 9.82154L41.3165 9.81094C41.3165 9.81094 41.5748 9.80025 41.5821 10.1268C41.0654 10.148 40.2905 10.1799 39.7739 10.2011C39.2572 10.2222 38.7406 10.2435 38.224 10.2647C37.7074 10.2859 36.9324 10.3178 36.423 10.6655C35.9064 10.6867 35.3898 10.7079 34.8732 10.7291C34.3711 11.4034 33.8326 10.4451 33.3305 11.1193C33.5888 11.1087 33.5961 11.4351 33.5961 11.4351C33.8545 11.4245 34.0982 10.761 34.3711 11.4034C34.6439 12.0458 34.8877 11.3822 35.146 11.3716C35.6699 11.6768 35.6699 11.6768 36.172 11.0026C36.6959 11.3079 37.7219 10.939 38.0092 12.2343C38.2676 12.2237 38.5259 12.2131 38.7842 12.2025C38.2749 12.5502 38.0311 13.2138 38.0311 13.2138C37.5144 13.235 37.2561 13.2456 37.2706 13.8986C38.333 15.1621 38.5913 15.1515 38.8496 15.1409ZM66.4747 13.3527C66.7331 13.3421 66.7331 13.3421 66.7331 13.3421L66.4747 13.3527ZM66.9841 13.005C66.9914 13.3314 66.9914 13.3314 66.9841 13.005C67.2497 13.3208 67.2497 13.3208 66.9841 13.005C67.2424 12.9944 67.2424 12.9944 66.9841 13.005ZM69.3091 12.9094L67.5008 12.9837C67.766 13.2996 67.766 13.2996 68.0244 13.289C68.2829 13.2784 68.7997 13.2572 69.3091 12.9094ZM69.28 11.6034L69.0215 11.6141C69.0215 11.6141 69.0215 11.6141 69.28 11.6034C69.0215 11.6141 69.0215 11.6141 69.28 11.6034ZM68.778 12.2777L68.0027 12.3095C68.2612 12.2989 68.5196 12.2883 68.778 12.2777ZM68.483 10.6559L67.9668 10.6771L68.483 10.6559ZM67.1843 10.3823L66.6677 10.4036C66.9333 10.7194 67.1915 10.7088 67.1843 10.3823C67.1915 10.7088 67.1915 10.7088 67.1843 10.3823ZM69.28 11.6034C69.5384 11.5928 69.7968 11.5822 70.0546 11.5716C70.313 11.561 70.5714 11.5504 70.564 11.2239C70.8082 10.5603 71.0734 10.8762 71.3318 10.8656L71.5828 10.5285C71.3176 10.2126 71.0517 9.89674 70.5423 10.2445C70.2838 10.2551 70.0261 10.2657 69.5092 10.2869C69.5167 10.6134 69.7819 10.9293 69.7894 11.2557C69.7894 11.2557 69.5235 10.9399 69.28 11.6034ZM36.9906 12.9298C37.2489 12.9192 37.2489 12.9192 36.9906 12.9298C37.2489 12.9192 37.2489 12.9192 37.2489 12.9192C37.2489 12.9192 37.2489 12.9192 36.9906 12.9298C37.2489 12.9192 37.2489 12.9192 36.9906 12.9298ZM38.0383 13.5403C38.0383 13.5403 38.0456 13.8668 38.0383 13.5403C38.5694 14.1721 38.5694 14.1721 38.5549 13.519C38.5549 13.519 38.2966 13.5297 38.0383 13.5403ZM38.0383 13.5403C37.7727 13.2244 37.7727 13.2244 37.78 13.5509L38.0383 13.5403ZM37.5217 13.5615C37.2634 13.5721 37.0123 13.9092 36.754 13.9198C37.0123 13.9092 37.2779 14.2252 37.5362 14.2145L37.5217 13.5615ZM37.5508 14.8675C37.2924 14.8781 37.0341 14.8887 36.5175 14.9099C37.0414 15.2152 37.307 15.5311 37.5508 14.8675ZM37.3651 18.1431C37.3651 18.1431 37.3578 17.8166 37.3651 18.1431C37.3578 17.8166 37.3578 17.8166 37.3651 18.1431ZM37.3215 16.1841C36.8049 16.2053 36.5248 15.2364 35.7716 16.2478L37.3215 16.1841ZM36.8412 17.8378C36.8412 17.8378 36.5828 17.8484 36.8412 17.8378C36.5828 17.8484 36.5828 17.8484 36.8412 17.8378ZM36.3972 21.124C36.3899 20.7974 36.3972 21.124 36.3972 21.124V21.124ZM36.3391 18.512C36.5974 18.5014 36.3391 18.512 36.3391 18.512C36.3318 18.1855 36.3391 18.512 36.3391 18.512ZM36.3173 17.5325C36.0517 17.2166 36.0517 17.2166 35.5423 17.5643C36.059 17.5431 36.3173 17.5325 36.3173 17.5325ZM35.4915 15.2789C35.4915 15.2789 35.4988 15.6054 35.4915 15.2789C36.0081 15.2577 36.2664 15.247 36.2664 15.247C36.2519 14.5941 36.2446 14.2676 36.4884 13.6039C35.9718 13.6252 35.7207 13.9623 35.4624 13.9729L35.4697 14.2993C35.7426 14.9418 35.7426 14.9418 35.4915 15.2789ZM35.2332 15.2895C35.2259 14.963 35.2187 14.6365 35.2187 14.6365C34.9604 14.6472 34.9604 14.6472 34.702 14.6577C34.6947 14.3312 34.6947 14.3312 34.6875 14.0047L32.8793 14.079C33.4104 14.7107 33.676 15.0267 34.451 14.9949C34.9604 14.6472 34.9821 15.6266 35.2332 15.2895ZM34.4728 15.9743L34.4801 16.3008C34.4801 16.3008 34.7311 15.9637 34.4728 15.9743C34.7311 15.9637 34.7311 15.9637 34.4728 15.9743ZM34.5672 20.2188C34.5745 20.5453 34.5672 20.2188 34.5672 20.2188V20.2188ZM34.229 16.6379C34.229 16.6379 34.4873 16.6273 34.4801 16.3008C34.4801 16.3008 34.2217 16.3114 34.229 16.6379ZM33.9416 15.3426C34.1999 15.3319 34.1999 15.3319 33.9416 15.3426C34.1999 15.3319 34.1927 15.0055 33.9416 15.3426C33.9344 15.0161 33.9344 15.0161 33.9416 15.3426ZM34.036 19.587C33.7705 19.2711 33.7705 19.2711 33.5121 19.2817C33.5121 19.2817 33.5121 19.2817 33.5195 19.6082C33.7777 19.5976 34.036 19.587 34.036 19.587ZM33.756 18.6181C33.756 18.6181 33.7486 18.2917 33.756 18.6181L32.9737 18.3235C33.4976 18.6288 33.756 18.6181 33.756 18.6181ZM33.1667 15.3744C33.1667 15.3744 33.1594 15.0479 33.1667 15.3744C33.1594 15.0479 33.1667 15.3744 33.1667 15.3744ZM31.3657 15.7752C31.624 15.7645 31.8824 15.7539 32.1407 15.7433C32.399 15.7327 32.6573 15.7221 32.9156 15.7115C32.65 15.3956 32.3917 15.4062 31.8678 15.1009C31.6095 15.1115 31.3512 15.1221 31.1002 15.4593C31.1074 15.7858 31.3657 15.7752 31.3657 15.7752ZM30.9217 19.0614C30.3906 18.4295 30.3906 18.4295 30.1396 18.7666C30.3979 18.756 30.6562 18.7454 30.9217 19.0614ZM30.3397 16.1441C30.3325 15.8176 30.3325 15.8176 29.8158 15.8388C30.0814 16.1547 30.3397 16.1441 30.3397 16.1441ZM30.1396 18.7666L29.3646 18.7985C29.8885 19.1038 29.8885 19.1038 30.1396 18.7666ZM28.8552 19.1462C28.8552 19.1462 28.8479 18.8197 28.8552 19.1462C28.8479 18.8197 28.8479 18.8197 28.8552 19.1462C28.8479 18.8197 28.8479 18.8197 28.8552 19.1462C28.8479 18.8197 28.8479 18.8197 28.8552 19.1462ZM28.1311 21.4635C28.1311 21.4635 28.3894 21.4529 28.1311 21.4635C28.3894 21.4529 28.3894 21.4529 28.1311 21.4635C28.3822 21.1264 28.1239 21.1371 28.1311 21.4635ZM28.0294 16.8926C28.0294 16.8926 28.0222 16.5661 28.0294 16.8926C27.7711 16.9032 27.7711 16.9032 27.5128 16.9138C27.7711 16.9032 28.0294 16.8926 28.0294 16.8926ZM29.0409 15.8707L29.292 15.5335C29.543 15.1964 29.794 14.8593 30.0523 14.8487C30.318 15.1646 30.5835 15.4804 30.8418 15.4699C30.8345 15.1433 30.8273 14.8169 31.0711 14.1533C30.8128 14.1639 30.2889 13.8586 29.7795 14.2064C29.7795 14.2064 29.5212 14.217 29.2629 14.2276C28.739 13.9222 28.2224 13.9435 27.9713 14.2805C27.4619 14.6284 26.9453 14.6495 26.687 14.6601C26.687 14.6601 26.6797 14.3336 26.4214 14.3442C26.1776 15.0079 25.9266 15.345 26.4578 15.9767C27.4983 16.2608 28.2732 16.229 29.0409 15.8707ZM27.2981 18.8834L25.7482 18.947C26.2648 18.9258 26.5377 19.5682 27.2981 18.8834ZM26.1849 15.3344C25.9121 14.6919 25.6683 15.3556 25.4099 15.3662C25.6756 15.6821 25.6756 15.6821 26.1849 15.3344ZM24.6423 15.7245C24.6568 16.3775 24.6568 16.3775 25.439 16.6722C25.1662 16.0298 24.9079 16.0404 24.6423 15.7245ZM26.2067 16.3138C26.2067 16.3138 26.214 16.6404 26.2067 16.3138C26.4723 16.6298 26.465 16.3032 26.465 16.3032L26.2067 16.3138ZM26.2939 20.2318C26.2866 19.9053 26.2794 19.5788 26.2794 19.5788C26.021 19.5894 25.7627 19.6 25.5117 19.9371C25.7772 20.253 26.0283 19.916 26.2939 20.2318ZM25.7845 20.5795C25.5262 20.5901 25.5262 20.5901 25.2679 20.6007C25.5334 20.9166 25.799 21.2325 25.7845 20.5795ZM25.2315 18.9683L24.4566 19.0001C24.7222 19.316 24.9878 19.6318 25.2315 18.9683ZM24.4276 17.6941C24.4276 17.6941 24.4203 17.3676 24.4276 17.6941C24.4203 17.3676 24.4203 17.3676 24.4276 17.6941C24.4203 17.3676 24.162 17.3782 24.4276 17.6941C24.162 17.3782 24.1693 17.7047 24.4276 17.6941ZM24.3622 14.7556C24.3694 15.0821 24.3694 15.0821 24.3622 14.7556C24.3694 15.0821 24.3694 15.0821 24.3622 14.7556ZM23.8382 14.4504L24.0966 14.4397L23.8382 14.4504C23.831 14.1239 23.8382 14.4504 23.8382 14.4504ZM24.8497 13.4284C25.1153 13.7443 25.1153 13.7443 25.3809 14.0602C25.6319 13.7231 25.6319 13.7231 25.8902 13.7125C26.1486 13.7019 26.6724 14.0071 27.1891 13.9859C27.4401 13.6488 27.4329 13.3223 27.6839 12.9853C27.4256 12.9959 27.16 12.6799 26.9017 12.6905C26.909 13.017 26.9162 13.3436 26.9235 13.67C26.1413 13.3754 26.1413 13.3754 24.8497 13.4284C24.3259 13.1231 23.8092 13.1443 23.0343 13.1762C23.8382 14.4504 24.3331 13.4496 24.8497 13.4284ZM22.3102 15.4935C22.5685 15.4829 22.8341 15.7988 23.0924 15.7882C23.0924 15.7882 23.3507 15.7776 23.3434 15.4511C23.3434 15.4511 23.3434 15.4511 23.3362 15.1245C23.3362 15.1245 23.3362 15.1245 23.3434 15.4511C23.6017 15.4405 23.5945 15.1139 23.8455 14.7768C23.0779 15.1351 22.8195 15.1458 22.3102 15.4935C22.0446 15.1776 21.7935 15.5147 21.5425 15.8518C21.8081 16.1677 22.0664 16.1571 22.3102 15.4935ZM21.7863 15.1882C21.528 15.1988 21.528 15.1988 21.0113 15.2201C21.2769 15.5359 21.5352 15.5253 21.5425 15.8518C21.5352 15.5253 21.5352 15.5253 21.7863 15.1882ZM21.3859 20.4334L21.6442 20.4228L21.637 20.0963C21.637 20.0963 21.6296 19.7698 21.3714 19.7804C21.3714 19.7804 21.1131 19.791 20.8548 19.8016C21.1276 20.444 21.1276 20.444 21.3859 20.4334ZM20.8475 19.4752C20.5891 19.4858 20.5891 19.4858 20.5891 19.4858C20.8474 19.4752 20.8475 19.4752 20.8475 19.4752ZM20.5964 19.8123L20.0798 19.8335C20.3381 19.8229 20.3454 20.1493 20.5964 19.8123ZM20.5746 18.8327L19.7924 18.5381C20.058 18.8539 20.3163 18.8433 20.5746 18.8327ZM19.2322 16.6003C19.2395 16.9268 19.4978 16.9162 19.505 17.2427C19.505 17.2427 19.7634 17.2321 20.2872 17.5373C20.28 17.2109 20.28 17.2109 20.2727 16.8844C19.7488 16.5791 19.7415 16.2526 19.9853 15.589C19.727 15.5996 19.2031 15.2943 18.9448 15.305C18.9521 15.6314 19.2177 15.9473 19.2249 16.2738C19.2322 16.6003 18.9739 16.611 18.9812 16.9374C18.9812 16.9374 18.9812 16.9374 19.2322 16.6003ZM19.1886 14.6413C19.1886 14.6413 19.1813 14.3148 19.1741 13.9883C18.9158 13.9989 18.3919 13.6937 18.1481 14.3573C18.4137 14.6731 18.6793 14.9891 19.1886 14.6413ZM17.9552 17.3064C17.9406 16.6534 17.9333 16.3268 18.1771 15.6633C17.9261 16.0004 17.6678 16.011 17.6678 16.011C17.424 16.6745 17.4313 17.0011 17.9552 17.3064ZM17.3731 14.3891C17.1148 14.3997 16.8492 14.0839 16.8492 14.0839C16.3326 14.1051 16.0816 14.4422 15.8378 15.1057C16.3544 15.0845 16.8638 14.7368 17.3731 14.3891ZM16.6563 17.033C16.1324 16.7276 15.8668 16.4117 15.3575 16.7594C15.8886 17.3913 15.8886 17.3913 16.6563 17.033ZM14.6697 20.7093C14.6697 20.7093 14.6624 20.3827 14.6697 20.7093C14.4042 20.3933 14.4042 20.3933 14.6697 20.7093C14.4114 20.7199 14.4114 20.7199 14.6697 20.7093ZM14.5971 17.4443C14.3388 17.4549 14.3388 17.4549 14.3388 17.4549C14.3388 17.4549 14.3388 17.4549 14.5971 17.4443ZM14.5462 15.1588L13.7712 15.1906C14.0369 15.5065 14.2952 15.4959 14.5462 15.1588ZM13.5566 17.1602C13.5566 17.1602 13.2982 17.1708 13.5566 17.1602C13.2982 17.1708 13.5566 17.1602 13.5566 17.1602ZM12.7452 15.5596C12.7452 15.5596 13.0036 15.549 12.9963 15.2225L12.738 15.2331C12.738 15.2331 12.738 15.2331 12.7452 15.5596ZM10.2202 18.2776C10.4713 17.9405 10.7224 17.6034 10.2057 17.6247L10.2202 18.2776ZM8.41201 18.3519C8.67037 18.3413 9.18696 18.3201 9.438 17.983L8.40475 18.0254L8.41201 18.3519ZM8.40475 18.0254C8.40475 18.0254 8.1392 17.7096 8.40475 18.0254C8.14645 18.036 8.14645 18.036 8.14645 18.036C8.14645 18.036 8.14645 18.036 8.40475 18.0254ZM7.12772 18.7314C7.38601 18.7208 7.38601 18.7208 7.64438 18.7102L7.63712 18.3837C7.3715 18.0679 7.12046 18.405 7.12772 18.7314C7.12046 18.405 7.12046 18.405 7.12772 18.7314ZM6.59654 18.0997C6.59654 18.0997 6.58929 17.7732 6.59654 18.0997C6.58929 17.7732 6.58929 17.7732 6.58929 17.7732C6.58929 17.7732 6.58929 17.7732 6.33825 18.1103C6.33098 17.7839 6.33825 18.1103 6.59654 18.0997ZM5.00309 16.2044C5.00309 16.2044 4.99582 15.8779 5.00309 16.2044C4.99582 15.8779 5.00309 16.2044 5.00309 16.2044ZM98.2331 11.3946C98.4983 11.7105 98.4983 11.7105 98.7493 11.3734C99.0077 11.3628 99.5246 11.3416 99.7755 11.0045C100.285 10.6568 100.543 10.6461 100.816 11.2885L101.074 11.2779C101.333 11.2673 101.067 10.9514 101.067 10.9514L100.802 10.6355L103.126 10.54L103.134 10.8665C102.617 10.8877 102.108 11.2354 101.333 11.2673C101.857 11.5726 102.366 11.2248 102.639 11.8673L102.646 12.1937C102.38 11.8779 102.373 11.5514 102.373 11.5514C102.122 11.8885 101.871 12.2256 101.613 12.2362C101.089 11.9309 100.307 11.6362 99.8047 12.3105C99.5537 12.6476 99.2878 12.3317 99.0226 12.0157C98.7567 11.6999 98.2399 11.7211 97.9821 11.7317C97.7162 11.4158 97.7162 11.4158 98.2331 11.3946ZM77.5823 12.8964C77.5749 12.5699 77.5749 12.5699 77.5823 12.8964V12.8964ZM80.1585 12.4638C80.6672 12.1161 81.1915 12.4214 81.7009 12.0736C82.2171 12.0524 82.4755 12.0418 82.9999 12.3471C83.0141 13.0001 82.7557 13.0107 82.2395 13.032C81.7226 13.0532 81.4642 13.0638 80.9473 13.085L81.2132 13.4009C80.7038 13.7486 80.4312 13.1062 79.9068 12.8009C79.1397 13.1593 79.1397 13.1593 79.1539 13.8123C78.8955 13.8229 78.3718 13.5176 78.1134 13.5282C78.1209 13.8547 78.1209 13.8547 78.1209 13.8547C77.8407 12.8858 77.0804 13.5706 76.5561 13.2653C76.8145 13.2547 77.0729 13.2441 77.3313 13.2335L77.5823 12.8964C78.3569 12.8646 79.3757 12.1692 80.1585 12.4638ZM82.4905 12.6949C82.232 12.7055 82.232 12.7055 82.4905 12.6949C82.232 12.7055 82.4905 12.6949 82.4905 12.6949ZM81.2058 13.0744C81.199 12.7479 80.9406 12.7585 80.6747 12.4426C80.6896 13.0956 80.9473 13.085 81.2058 13.0744ZM79.1465 13.4858C79.1465 13.4858 79.1397 13.1593 79.1465 13.4858V13.4858ZM97.9672 11.0788C96.9267 10.7946 95.6352 10.8477 94.6022 10.8901C94.0853 10.9114 93.8269 10.922 93.3032 10.6167C93.8126 10.269 94.071 10.2584 94.5947 10.5637C94.8531 10.5531 94.8531 10.5531 95.1115 10.5424C95.6209 10.1947 95.8862 10.5106 96.403 10.4894C97.4361 10.4469 98.2256 11.0681 99.2519 10.6992C99.0009 11.0363 98.7493 11.3734 98.7493 11.3734C98.4915 11.384 98.2331 11.3946 97.9672 11.0788C98.2331 11.3946 97.9672 11.0788 97.9672 11.0788ZM94.8965 12.512C94.8965 12.512 95.155 12.5014 95.1475 12.1749C95.3985 11.8378 95.3985 11.8378 95.6494 11.5007C97.1993 11.4371 97.1993 11.4371 97.7311 12.0688C97.7379 12.3953 97.7454 12.7219 97.2285 12.7431C96.9633 12.4271 96.9558 12.1006 96.6974 12.1112C96.6974 12.1112 96.4247 11.4689 96.1812 12.1325C96.188 12.459 95.6718 12.4802 95.4134 12.4908C95.4134 12.4908 95.4134 12.4908 95.155 12.5014C94.6381 12.5226 94.1287 12.8703 93.6051 12.5651C94.1219 12.5439 94.3729 12.2068 94.8965 12.512ZM39.0425 12.1919C39.3081 12.5078 39.5737 12.8236 39.8393 13.1395C40.3486 12.7918 41.1163 12.4335 41.6329 12.4123C42.1568 12.7175 42.6735 12.6963 43.1973 13.0016C42.939 13.0122 42.939 13.0122 42.6807 13.0229C42.4224 13.0335 42.1641 13.0441 42.1713 13.3706L41.913 13.3812C41.3891 13.0758 41.1381 13.413 40.8798 13.4236C39.8538 13.7926 39.0643 13.1713 39.0425 12.1919ZM84.484 9.34499L84.4697 8.69199C84.9859 8.67077 85.2376 8.33366 85.4953 8.32305C85.7538 8.31244 86.2781 8.61772 86.5433 8.9336C87.0452 8.25939 87.0452 8.25939 87.5764 8.89116C87.0602 8.91239 86.565 9.91306 86.0414 9.60783C86.0414 9.60783 86.0414 9.60783 85.7829 9.61842C85.7829 9.61842 85.7829 9.61842 86.0414 9.60783C85.7755 9.29191 85.5103 8.97604 85.2518 8.98666C84.735 9.00787 84.735 9.00787 84.484 9.34499ZM49.1822 14.7165C49.1749 14.39 48.9238 14.7271 48.9238 14.7271C48.6583 14.4112 48.4073 14.7483 48.1489 14.7589L47.8833 14.4431C48.3854 13.7689 48.9166 14.4006 49.426 14.0529C49.4187 13.7264 49.6698 13.3894 49.6698 13.3894C49.9281 13.3787 50.1936 13.6946 49.9426 14.0317C49.9426 14.0317 49.9498 14.3582 49.9571 14.6848C50.4665 14.3369 50.4665 14.3369 50.9903 14.6423C50.9903 14.6423 50.9977 14.9688 51.2632 15.2846C50.23 15.3271 49.455 15.3589 49.1822 14.7165ZM104.891 8.50678C104.625 8.19089 104.108 8.21211 103.858 8.54922C103.843 7.89623 103.843 7.89623 104.36 7.875C104.618 7.8644 104.611 7.5379 104.87 7.52729C105.135 7.84317 105.142 8.16967 105.142 8.16967C107.208 8.08479 107.208 8.08479 107.739 8.71656C106.957 8.42189 106.441 8.44312 105.932 8.79083C105.673 8.80144 105.156 8.82266 104.891 8.50678ZM84.7858 11.2933L84.5349 11.6304C83.7602 11.6623 82.7197 11.3782 81.9594 12.063L81.6935 11.7472C82.4538 11.0624 83.7453 11.0093 84.7858 11.2933ZM99.7389 9.37199C100.256 9.3508 100.514 9.34011 101.031 9.31891C101.547 9.29771 101.813 9.61363 102.323 9.26592C102.581 9.25523 102.588 9.58175 103.105 9.56055L98.7133 9.7409C98.7133 9.7409 98.7133 9.7409 98.7059 9.41438C98.9643 9.40379 99.4737 9.05609 99.7389 9.37199ZM50.1501 11.7356C49.8917 11.7463 49.6262 11.4304 49.3679 11.441C49.3679 11.441 49.3679 11.441 49.3606 11.1144C49.8772 11.0932 50.1355 11.0826 50.6522 11.0614C50.4084 11.725 50.4156 12.0515 50.1646 12.3886C49.6479 12.4098 49.1241 12.1046 48.6074 12.1258C48.3491 12.1364 48.0908 12.147 48.0763 11.494C48.8512 11.4621 49.3824 12.094 50.1501 11.7356ZM48.3419 11.8099C48.0835 11.8206 48.0835 11.8206 48.3419 11.8099C48.0835 11.8206 48.3419 11.8099 48.3419 11.8099ZM80.3511 9.51475C79.8275 9.20942 79.3181 9.55723 78.8012 9.57843C78.5428 9.58903 78.5428 9.58903 78.2843 9.59962C78.5285 8.93603 78.7938 9.25191 79.0522 9.24131C79.3106 9.23071 79.5541 8.56709 80.0852 9.19883C80.3511 9.51475 80.6021 9.17763 81.119 9.15643C81.1257 9.48295 80.6163 9.83067 80.3511 9.51475ZM57.1028 10.4697C57.6122 10.122 57.8922 11.0908 58.4089 11.0696C57.6412 11.428 57.6412 11.428 56.6079 11.4704C56.6007 11.1438 56.3423 11.1545 56.3351 10.828C56.5934 10.8174 56.8517 10.8068 57.1173 11.1226C57.3683 10.7855 57.361 10.4591 57.1028 10.4697ZM104.389 9.18095C104.905 9.15975 105.422 9.13855 106.204 9.43319C105.946 9.44378 105.695 9.7809 105.695 9.7809C105.178 9.80219 104.655 9.49687 104.145 9.84458C103.887 9.85518 103.621 9.53935 103.872 9.20224C104.131 9.19164 104.131 9.19164 104.389 9.18095ZM80.4095 12.1267C79.8926 12.1479 79.1173 12.1798 78.6011 12.201C78.6011 12.201 78.6011 12.201 78.5937 11.8745C79.6199 11.5056 79.8783 11.495 80.4095 12.1267ZM56.3496 11.481C56.0913 11.4915 55.5892 12.1658 55.5747 11.5128C55.3163 11.5234 55.3237 11.85 55.0653 11.8606L55.0435 10.881C56.0768 10.8386 56.0768 10.8386 56.3496 11.481ZM73.4128 11.4337C73.6712 11.4231 73.6712 11.4231 73.4128 11.4337C73.4203 11.7602 73.4128 11.4337 73.4128 11.4337ZM73.6787 11.7496C73.9439 12.0655 74.2024 12.0548 74.4608 12.0442L74.4682 12.3707C73.9514 12.3919 73.7004 12.7291 73.1761 12.4238C73.693 12.4026 73.6855 12.0761 73.6787 11.7496ZM54.032 11.9029L52.2238 11.9772C52.977 10.966 53.5081 11.5977 54.032 11.9029ZM44.4962 13.275C44.2452 13.6121 44.2524 13.9386 44.0014 14.2758C44.0014 14.2758 44.0014 14.2758 43.743 14.2864C43.7358 13.9598 43.7358 13.9598 43.9869 13.6227C43.7285 13.6334 43.4702 13.644 43.2192 13.9811C43.7212 13.3069 43.9795 13.2963 44.4962 13.275ZM95.6135 9.86827C94.8382 9.90006 94.322 9.92126 93.5467 9.95315C93.5467 9.95315 93.5467 9.95315 93.2815 9.63723C93.7977 9.61603 94.573 9.58414 95.0824 9.23643C95.3476 9.55235 95.606 9.54175 95.6135 9.86827ZM93.5399 9.62663C93.5399 9.62663 93.2815 9.63722 93.5399 9.62663C93.2815 9.63722 93.5399 9.62663 93.5399 9.62663ZM86.565 9.91306C86.565 9.91306 86.5725 10.2396 86.565 9.91306C86.5725 10.2396 86.3215 10.5767 86.0631 10.5873C85.7972 10.2715 85.7972 10.2715 85.532 9.95554C85.7904 9.94494 86.0488 9.93434 86.565 9.91306ZM44.4817 12.6221C44.2161 12.3061 44.2088 11.9796 44.4671 11.969C44.4817 12.6221 44.991 12.2743 45.2493 12.2637C45.2566 12.5902 44.9983 12.6009 45.0055 12.9273C44.7472 12.938 44.4889 12.9486 44.4817 12.6221ZM59.7077 11.3431C59.1838 11.0378 59.1984 11.6908 58.9473 12.0279C58.9327 11.3749 59.1838 11.0378 59.4276 10.3742C59.4421 11.0272 59.7004 11.0166 59.7077 11.3431ZM93.776 8.63652C94.0344 8.6259 94.3003 8.9418 94.5587 8.93119L93.2666 8.98423C93.5176 8.64713 93.776 8.63652 93.776 8.63652C93.7692 8.31002 93.776 8.63652 93.776 8.63652ZM108.787 9.32711C109.563 9.29532 110.086 9.60054 110.603 9.57935C110.086 9.60054 109.577 9.94826 108.787 9.32711ZM63.0731 11.5316C62.5491 11.2263 62.5346 10.5734 62.2691 10.2575C63.044 10.2257 62.8075 11.2157 63.0731 11.5316ZM95.0675 8.58346L96.8758 8.50919L95.0675 8.58346ZM49.9353 13.7052C50.452 13.684 50.4592 14.0105 50.4665 14.3369C50.2082 14.3476 50.2082 14.3476 49.9498 14.3582C49.9426 14.0317 49.9353 13.7052 49.9353 13.7052ZM80.6387 10.8101C80.8897 10.473 80.8965 10.7995 81.1549 10.7889C81.4133 10.7783 81.4208 11.1048 81.4283 11.4313C80.9114 11.4525 80.653 11.4631 80.6387 10.8101C80.3877 11.1472 80.6455 11.1366 80.6387 10.8101ZM45.5149 12.5796C45.766 12.2425 46.0243 12.2319 46.017 11.9054C46.2899 12.5478 46.2899 12.5478 45.5149 12.5796ZM61.2503 10.9529C60.992 10.9635 60.9993 11.29 60.7409 11.3006C60.7264 10.6477 60.7192 10.3211 60.9702 9.98402C61.2358 10.2999 61.2431 10.6264 61.2503 10.9529ZM49.4042 13.0735C49.1459 13.084 48.8948 13.4212 48.3782 13.4424C48.873 12.4417 48.873 12.4417 49.4042 13.0735ZM41.1453 13.7395C40.887 13.7501 40.8943 14.0766 40.636 14.0872C40.636 14.0872 40.3777 14.0978 40.3704 13.7713C40.6287 13.7607 40.8725 13.097 41.1453 13.7395ZM93.2598 8.65774C92.7429 8.67896 92.4771 8.36308 91.9534 8.0578C92.4703 8.03658 92.9865 8.01535 93.2598 8.65774ZM88.5952 8.19573C88.861 8.51162 89.1195 8.50101 89.3847 8.81689C88.6101 8.84873 88.6101 8.84873 88.5952 8.19573ZM108.5 8.03174C108.507 8.35824 108.507 8.35824 108.5 8.03174C108.507 8.35824 108.249 8.36885 108.249 8.36885L107.991 8.37945C107.984 8.05296 108.242 8.04235 108.235 7.71586C108.242 8.04235 108.5 8.03174 108.5 8.03174ZM109.024 8.33701C109.283 8.32641 109.784 7.65219 110.057 8.29457C109.541 8.31579 109.289 8.6529 109.024 8.33701ZM75.4579 10.3693C75.7231 10.6853 75.7231 10.6853 75.989 11.0011C75.7306 11.0117 75.4721 11.0224 75.2137 11.033C75.2069 10.7064 75.4579 10.3693 75.4579 10.3693ZM84.0689 13.9372C84.3348 14.2531 84.6007 14.5689 84.0913 14.9166C84.0838 14.5901 83.8179 14.2743 84.0689 13.9372ZM82.4104 9.10337C82.6689 9.09276 82.9341 9.40867 83.1925 9.39807C82.9341 9.40867 82.9341 9.40867 82.4104 9.10337ZM81.3991 10.1253C81.9153 10.1041 81.9153 10.1041 81.9302 10.757C81.6718 10.7676 81.6643 10.4412 81.3991 10.1253ZM64.6302 11.7945C64.1063 11.4892 63.848 11.4998 63.5897 11.5104C64.0991 11.1626 64.3574 11.152 64.6302 11.7945ZM43.9578 12.3167L43.1828 12.3486C43.4338 12.0115 43.6922 12.0009 43.9578 12.3167ZM116.035 9.68303C115.777 9.69363 115.518 9.70422 115.253 9.3884C116.02 9.03003 116.028 9.35651 116.035 9.68303ZM85.2952 10.9456C85.3027 11.2721 85.0443 11.2827 84.7858 11.2933C84.779 10.9669 84.7716 10.6404 84.7716 10.6404C85.03 10.6298 85.2884 10.6192 85.2952 10.9456ZM75.2212 11.3594C74.9777 12.023 74.7118 11.7071 74.4533 11.7178L74.4459 11.3913L75.2212 11.3594ZM87.6272 11.1766C87.1178 11.5244 86.8601 11.535 86.6016 11.5456C86.8451 10.882 86.8451 10.882 87.6272 11.1766ZM63.0876 12.1846C63.3459 12.174 63.597 11.8369 63.8553 11.8263C63.8553 11.8263 63.8553 11.8263 63.8625 12.1528C63.6042 12.1634 63.3532 12.5005 63.0876 12.1846C63.0948 12.5111 63.0948 12.5111 63.0876 12.1846ZM63.1021 12.8376L63.1093 13.1641C62.8511 13.1747 62.8511 13.1747 62.5928 13.1853C62.8511 13.1747 63.1021 12.8376 63.1021 12.8376ZM77.5749 12.5699C77.3164 12.5805 77.0587 12.5912 76.8002 12.6018C77.0587 12.5912 77.3096 12.2541 77.5749 12.5699ZM102.824 8.59166L103.858 8.54922C103.341 8.57043 103.097 9.23403 102.824 8.59166ZM54.5269 10.9023C54.7925 11.2181 54.7925 11.2181 54.807 11.8711C54.2831 11.5658 54.5341 11.2288 54.5269 10.9023ZM77.1163 15.2031C76.8579 15.2137 76.5927 14.8978 76.3342 14.9084C76.5927 14.8978 77.0946 14.2236 77.1163 15.2031ZM99.4445 7.7501C99.6955 7.41299 99.9614 7.72888 100.22 7.71827L99.4445 7.7501ZM94.2786 7.96231L95.0532 7.93048L94.2786 7.96231ZM103.585 7.90684C103.326 7.91744 103.334 8.24394 103.075 8.25455C103.075 8.25455 103.075 8.25455 103.068 7.92805C103.326 7.91744 103.326 7.91744 103.585 7.90684C103.577 7.58034 103.577 7.58034 103.585 7.90684ZM77.7532 8.96786C77.7532 8.96786 77.7607 9.29439 77.7532 8.96786C78.0191 9.2837 77.7607 9.2944 77.7607 9.2944C77.7607 9.2944 77.5023 9.30499 77.7532 8.96786C77.5023 9.30499 77.4948 8.97847 77.7532 8.96786C77.4948 8.97847 77.7532 8.96786 77.7532 8.96786ZM111.607 8.23091C111.356 8.56802 111.349 8.24152 111.349 8.24152C111.349 8.24152 111.342 7.91503 111.593 7.57792C111.6 7.90441 111.6 7.90441 111.607 8.23091ZM98.6916 8.76142L98.1747 8.78264C98.4257 8.44554 98.4257 8.44554 98.6916 8.76142ZM73.9005 10.1065L74.6751 10.0747C74.4174 10.0853 74.159 10.0959 73.9005 10.1065ZM90.4469 10.0804C90.1891 10.091 89.9307 10.1016 89.9307 10.1016L89.6648 9.78578C89.9233 9.77519 90.1817 9.76459 90.4469 10.0804ZM62.2836 10.9105C62.2908 11.2369 62.0326 11.2476 62.2836 10.9105C62.0253 10.9211 61.7669 10.9317 61.7669 10.9317C61.7669 10.9317 61.7669 10.9317 61.7597 10.6052C62.0253 10.9211 62.0253 10.9211 62.2836 10.9105ZM98.1964 9.7621C98.1964 9.7621 97.9455 10.0992 98.1964 9.7621C97.938 9.7727 97.938 9.7727 97.938 9.7727L97.9312 9.44627L98.1964 9.7621ZM51.6999 11.672C51.9583 11.6614 51.9583 11.6614 51.9655 11.9878C51.9655 11.9878 51.9655 11.9878 51.9728 12.3143C51.9655 11.9878 51.7072 11.9984 51.6999 11.672C51.4416 11.6826 51.6999 11.672 51.6999 11.672ZM86.5867 10.8926L86.3357 11.2297C86.3357 11.2297 86.0773 11.2403 85.8196 11.2509C86.0705 10.9138 86.329 10.9032 86.5867 10.8926C86.329 10.9032 86.5867 10.8926 86.5867 10.8926ZM60.4972 11.9642C60.2461 12.3013 60.2461 12.3013 60.4972 11.9642C60.2461 12.3013 59.9878 12.3119 59.9878 12.3119L59.9806 11.9854C60.2389 11.9748 60.2389 11.9748 60.4972 11.9642ZM92.572 12.6075C92.8304 12.5969 93.0882 12.5863 93.3466 12.5757C93.1031 13.2393 92.8372 12.9234 92.572 12.6075ZM82.7706 13.6637C82.5196 14.0008 82.5196 14.0008 82.268 14.338C82.2537 13.6849 82.2463 13.3584 82.7706 13.6637ZM71.1609 14.7941C70.9024 14.8047 70.9024 14.8047 70.6366 14.4889C70.6366 14.4889 70.6366 14.4889 70.6298 14.1624C71.1534 14.4676 71.1534 14.4676 71.1609 14.7941C71.4118 14.457 71.1609 14.7941 71.1609 14.7941ZM84.7716 10.6404C84.5132 10.651 84.5132 10.651 84.2547 10.6616C84.5057 10.3245 84.7567 9.98734 84.7716 10.6404ZM83.1783 8.74504C83.1783 8.74504 83.4435 9.06093 83.7019 9.05031C83.4435 9.06093 83.4435 9.06093 83.1851 9.07154C83.1851 9.07154 83.1851 9.07154 83.1783 8.74504ZM77.4948 8.97847C77.2371 8.98907 77.2296 8.66258 77.4731 7.99898C77.4806 8.32548 77.488 8.65197 77.4948 8.97847ZM47.0648 12.516C46.8065 12.5266 46.8065 12.5266 46.8065 12.5266C46.7992 12.2001 46.7992 12.2001 47.0648 12.516C47.0575 12.1895 47.0648 12.516 47.0648 12.516ZM36.7249 12.6139C36.4667 12.6245 36.2083 12.6351 35.95 12.6456C36.201 12.3085 36.2083 12.6351 36.7249 12.6139ZM102.042 8.29699L102.559 8.27577L102.042 8.29699ZM91.193 8.74262L90.6762 8.76384L91.193 8.74262ZM52.7187 10.9766L53.2353 10.9553C53.2353 10.9553 53.2353 10.9553 53.2426 11.2818C52.977 10.966 52.977 10.966 52.7187 10.9766ZM51.2051 12.6727C51.4707 12.9886 51.4707 12.9886 51.2124 12.9992C51.2124 12.9992 51.2124 12.9992 51.2051 12.6727C50.9468 12.6833 51.2051 12.6727 51.2051 12.6727ZM50.4301 12.7045C50.4374 13.031 50.4374 13.031 50.4301 12.7045C50.1718 12.7151 50.1718 12.7151 49.9136 12.7257C49.9136 12.7257 49.9136 12.7257 49.9063 12.3992C50.1718 12.7151 50.4301 12.7045 50.4301 12.7045ZM51.2269 13.6522C51.2269 13.6522 50.9686 13.6628 51.2269 13.6522C50.9686 13.6628 50.9686 13.6628 50.9686 13.6628C50.9686 13.6628 50.9686 13.6628 51.2269 13.6522ZM45.0274 13.9068C45.2857 13.8962 45.0274 13.9068 45.0274 13.9068V13.9068ZM52.0091 13.9468L51.4925 13.968C51.4852 13.6415 51.7435 13.6309 52.0091 13.9468ZM100.736 7.69706C100.736 7.69706 100.729 7.37056 100.736 7.69706C100.994 7.68644 100.994 7.68644 100.994 7.68644C100.994 7.68644 100.994 7.68644 100.736 7.69706ZM97.8946 7.81377C97.8946 7.81377 97.6362 7.82437 97.8946 7.81377C97.6362 7.82437 97.6362 7.82437 97.6362 7.82437C97.6362 7.82437 97.6294 7.49787 97.8946 7.81377C97.8871 7.48727 97.8946 7.81377 97.8946 7.81377ZM97.12 7.8456C97.12 7.8456 96.8616 7.8562 97.12 7.8456C96.869 8.1827 96.8616 7.8562 97.12 7.8456C96.8616 7.8562 96.8616 7.8562 97.12 7.8456C96.8616 7.8562 97.12 7.8456 97.12 7.8456ZM82.6539 8.43976C82.9124 8.42915 82.9124 8.42915 82.6539 8.43976C82.9124 8.42915 82.6539 8.43976 82.6539 8.43976ZM109.526 7.6628C109.784 7.65219 109.777 7.32569 109.526 7.6628C109.784 7.65219 109.784 7.65219 109.784 7.65219C109.784 7.65219 109.784 7.65219 109.526 7.6628C109.784 7.65219 109.784 7.65219 109.526 7.6628ZM76.9854 9.32619L76.7277 9.33679C76.7202 9.0103 76.7202 9.0103 76.9854 9.32619C76.9786 8.99969 76.9854 9.32619 76.9854 9.32619ZM76.9854 9.32619C77.2438 9.31559 77.2438 9.31559 76.9854 9.32619C77.2438 9.31559 77.2438 9.31559 76.9854 9.32619ZM98.0038 12.7112C97.7454 12.7219 97.7454 12.7219 98.0038 12.7112C97.7454 12.7219 97.7454 12.7219 98.0038 12.7112ZM104.633 8.51739C104.374 8.52799 104.374 8.52799 104.374 8.52799C104.374 8.52799 104.374 8.52799 104.633 8.51739C104.374 8.52799 104.633 8.51739 104.633 8.51739ZM100.758 8.67654C100.758 8.67654 100.5 8.68715 100.758 8.67654C100.5 8.68715 100.5 8.68715 100.758 8.67654ZM60.2098 10.6688C59.9515 10.6794 59.9515 10.6794 60.2098 10.6688C59.9515 10.6794 59.9442 10.3529 60.2098 10.6688C59.9442 10.3529 60.2026 10.3423 60.2098 10.6688ZM64.0845 10.5097C64.0845 10.5097 64.3428 10.4991 64.0845 10.5097C64.3428 10.4991 64.3428 10.4991 64.0845 10.5097ZM63.3168 10.868C63.3168 10.868 63.3096 10.5415 63.3168 10.868C63.3096 10.5415 63.3096 10.5415 63.3096 10.5415C63.5679 10.5309 63.5679 10.5309 63.3168 10.868C63.5751 10.8574 63.5751 10.8574 63.3168 10.868ZM83.5378 13.3054C83.5452 13.6318 83.2868 13.6425 83.5378 13.3054C83.28 13.316 83.28 13.316 83.28 13.316C83.28 13.316 83.28 13.316 83.5378 13.3054ZM79.936 14.1069C79.9435 14.4334 79.9435 14.4334 79.936 14.1069C79.9435 14.4334 79.9435 14.4334 79.936 14.1069ZM79.9292 13.7804L79.936 14.1069C79.936 14.1069 79.936 14.1069 79.9292 13.7804ZM119.378 8.89209L119.386 9.21855C119.386 9.21855 119.127 9.22924 119.378 8.89209C119.12 8.9027 119.378 8.89209 119.378 8.89209ZM119.386 9.21855C119.393 9.54507 119.393 9.54507 119.386 9.21855C119.393 9.54507 119.393 9.54507 119.386 9.21855ZM80.3803 10.8207C80.3877 11.1472 80.3877 11.1472 80.3803 10.8207C80.3877 11.1472 80.3877 11.1472 80.3803 10.8207C80.3877 11.1472 80.3803 10.8207 80.3803 10.8207ZM80.3728 10.4942L80.3803 10.8207C80.1219 10.8313 80.1219 10.8313 80.3728 10.4942C80.1144 10.5048 80.1144 10.5048 80.3728 10.4942ZM65.9073 11.0884C65.9145 11.4149 65.9145 11.4149 65.9073 11.0884C65.649 11.099 65.649 11.099 65.649 11.099C65.9073 11.0884 65.9073 11.0884 65.9073 11.0884ZM51.1833 11.6932C51.1906 12.0197 50.9323 12.0303 51.1833 11.6932C50.925 11.7038 50.925 11.7038 50.925 11.7038C50.925 11.7038 50.925 11.7038 51.1833 11.6932ZM73.4054 11.1072L73.4128 11.4337C73.4128 11.4337 73.4128 11.4337 73.4054 11.1072ZM48.0981 12.4735C48.0981 12.4735 48.1053 12.8 48.0981 12.4735C47.847 12.8106 47.847 12.8106 48.0981 12.4735C47.8397 12.4841 47.8397 12.4841 48.0981 12.4735C47.8397 12.4841 48.0981 12.4735 48.0981 12.4735ZM78.3352 11.8851C78.3352 11.8851 78.3284 11.5586 78.3352 11.8851C78.07 11.5692 78.3284 11.5586 78.3284 11.5586C78.3284 11.5586 78.3284 11.5586 78.3352 11.8851ZM65.4197 12.4156C65.1614 12.4262 65.1614 12.4262 65.1614 12.4262C65.1541 12.0997 65.1541 12.0997 65.4197 12.4156C65.4124 12.0891 65.4197 12.4156 65.4197 12.4156ZM55.862 12.8082L55.6037 12.8188L55.862 12.8082ZM82.9124 8.42915C83.1708 8.41855 83.1783 8.74504 82.9124 8.42915C83.1783 8.74504 83.1783 8.74504 82.9124 8.42915C83.1783 8.74504 83.1783 8.74504 82.9124 8.42915C83.1783 8.74504 83.1783 8.74504 82.9124 8.42915C83.1783 8.74504 83.1783 8.74504 82.9124 8.42915C83.1783 8.74504 83.1783 8.74504 82.9124 8.42915ZM101.518 7.99171C101.267 8.32882 101.26 8.00233 101.518 7.99171C101.26 8.00233 101.26 8.00233 101.518 7.99171ZM90.16 8.78506C90.4109 8.44795 90.411 8.44796 90.411 8.44796C90.4184 8.77446 90.4184 8.77445 90.16 8.78506ZM58.6454 10.0795C58.6454 10.0795 58.9037 10.0689 58.6454 10.0795C58.9037 10.0689 58.6454 10.0795 58.6454 10.0795ZM58.9182 10.7219C58.6599 10.7325 58.6599 10.7325 58.9182 10.7219C58.6599 10.7325 58.6599 10.7325 58.9182 10.7219C58.6599 10.7325 58.6599 10.7325 58.9182 10.7219ZM60.2171 10.9954C60.2098 10.6688 60.2171 10.9954 60.2171 10.9954V10.9954ZM83.2142 10.3775C83.2068 10.051 83.2068 10.051 83.2142 10.3775C83.2068 10.051 83.2068 10.051 83.2142 10.3775ZM87.0893 10.2184C87.0893 10.2184 87.3471 10.2078 87.0893 10.2184C87.3471 10.2078 87.3471 10.2078 87.0893 10.2184ZM74.9553 11.0436C74.9553 11.0436 74.9485 10.717 74.9553 11.0436C74.9485 10.717 74.9485 10.717 74.9553 11.0436C74.9485 10.717 74.9485 10.717 74.9553 11.0436C74.9485 10.717 74.9553 11.0436 74.9553 11.0436ZM100.536 10.3197C100.536 10.3197 100.794 10.3091 100.536 10.3197C100.794 10.3091 100.794 10.3091 100.536 10.3197C100.794 10.3091 100.536 10.3197 100.536 10.3197ZM62.0543 12.2271C62.0471 11.9005 62.0471 11.9005 62.0543 12.2271C62.0471 11.9005 62.0471 11.9005 62.0543 12.2271C62.0471 11.9005 62.0471 11.9005 62.0543 12.2271C62.0471 11.9005 62.0471 11.9005 62.0543 12.2271ZM62.0543 12.2271C62.3126 12.2165 62.0543 12.2271 62.0543 12.2271V12.2271ZM62.3345 13.1959C62.3272 12.8694 62.3272 12.8694 62.3345 13.1959C62.3272 12.8694 62.3272 12.8694 62.3345 13.1959C62.3272 12.8694 62.3272 12.8694 62.3345 13.1959ZM45.5367 13.5591C45.5367 13.5591 45.2857 13.8962 45.5367 13.5591C45.2784 13.5697 45.2784 13.5697 45.5367 13.5591C45.2784 13.5697 45.5367 13.5591 45.5367 13.5591ZM64.9539 14.7224C64.9612 15.0488 64.7029 15.0594 64.9539 14.7224C64.7029 15.0594 64.9612 15.0488 64.9539 14.7224ZM71.9355 14.7624C71.9429 15.0889 71.9429 15.0889 71.9355 14.7624C71.9429 15.0889 71.9429 15.0889 71.9355 14.7624C71.9429 15.0889 71.9429 15.0889 71.9355 14.7624ZM119.084 7.27022C119.076 6.94372 119.076 6.94372 119.084 7.27022C119.076 6.94372 119.335 6.93312 119.084 7.27022C119.342 7.25962 119.084 7.27022 119.084 7.27022ZM29.0263 15.2176C28.7753 15.5547 28.2587 15.5759 28.0076 15.913C27.7348 15.2707 27.24 16.2714 26.7088 15.6396C27.7275 14.9442 27.9858 14.9336 29.0263 15.2176ZM76.4034 6.40894L76.6619 6.39833L76.4034 6.40894ZM68.4104 7.39084C68.6688 7.38023 68.6688 7.38023 68.6688 7.38023C68.6688 7.38023 68.6688 7.38023 68.4104 7.39084ZM87.1544 13.1569C87.1619 13.4834 86.9035 13.494 87.1544 13.1569C86.896 13.1675 86.896 13.1675 86.896 13.1675C86.896 13.1675 86.896 13.1675 87.1544 13.1569C86.896 13.1675 87.1544 13.1569 87.1544 13.1569ZM19.2177 15.9473C19.2177 15.9473 18.9593 15.9579 19.2177 15.9473C18.9593 15.9579 18.9593 15.9579 19.2177 15.9473Z" fill="#E42575"></path></svg>