<svg viewBox="0 0 1343 352" fill="none" xmlns="http://www.w3.org/2000/svg">
  <path
    d="M1058.05 53.7523C1059.09 52.6144 1060.97 53.0258 1061.44 54.4929L1065.38 66.8714C1065.84 68.3385 1064.55 69.7609 1063.04 69.4318L1050.35 66.6546C1048.85 66.3254 1048.26 64.4915 1049.3 63.3536L1058.05 53.7523Z"
    fill="#FFAA00"
  />
  <path
    d="M384.318 5.01893C385.355 3.881 387.235 4.29244 387.702 5.75952L391.642 18.138C392.109 19.6051 390.812 21.0275 389.308 20.6984L376.618 17.9212C375.114 17.592 374.531 15.7581 375.568 14.6202L384.318 5.01893Z"
    fill="#2B2037"
  />
  <path
    d="M250.543 96.1488C251.853 96.9579 251.796 98.8816 250.44 99.6113L244.34 102.895C242.984 103.625 241.347 102.614 241.393 101.075L241.599 94.1496C241.645 92.6107 243.339 91.6985 244.649 92.5076L250.543 96.1488Z"
    fill="#E42575"
  />
  <path
    d="M1137.93 258.948C1139.47 259.041 1140.33 260.763 1139.48 262.047L1135.66 267.827C1134.81 269.111 1132.89 268.995 1132.2 267.617L1129.11 261.419C1128.42 260.042 1129.48 258.436 1131.02 258.529L1137.93 258.948Z"
    fill="#E42575"
  />
  <path
    d="M397.931 336.948C399.468 337.041 400.327 338.763 399.478 340.047L395.658 345.827C394.809 347.111 392.888 346.995 392.2 345.617L389.105 339.419C388.417 338.042 389.478 336.436 391.015 336.529L397.931 336.948Z"
    fill="#E42575"
  />
  <path
    d="M144.355 238.513C145.336 237.326 147.234 237.646 147.771 239.089L150.189 245.582C150.726 247.025 149.5 248.508 147.981 248.252L141.15 247.099C139.632 246.843 138.96 245.039 139.941 243.853L144.355 238.513Z"
    fill="#00D181"
  />
  <path
    d="M1260.84 173.001C1261.82 171.815 1263.72 172.135 1264.26 173.578L1266.68 180.071C1267.21 181.513 1265.99 182.997 1264.47 182.74L1257.64 181.588C1256.12 181.331 1255.45 179.528 1256.43 178.341L1260.84 173.001Z"
    fill="#2B2037"
  />
  <path
    d="M33.1626 283.184C32.1041 282.066 32.6528 280.221 34.1503 279.863L40.8889 278.254C42.3864 277.896 43.7095 279.293 43.2706 280.769L41.2952 287.41C40.8562 288.885 38.9844 289.333 37.9259 288.215L33.1626 283.184Z"
    fill="#2B2037"
  />
  <circle cx="112.5" cy="16" r="6" fill="#33273F" />
  <circle cx="1231.5" cy="49" r="6" fill="#00D181" />
  <circle cx="1077.5" cy="338" r="6" fill="#33273F" />
  <circle cx="1171.5" cy="172" r="18" fill="#24182F" />
  <circle cx="303.5" cy="288" r="18" fill="#24182F" />
  <circle cx="9.5" cy="78" r="9" fill="#33273F" />
  <circle cx="1333.5" cy="270" r="9" fill="#33273F" />
</svg>
